<svg width="400" height="200" viewBox="0 0 400 200" fill="none" xmlns="http://www.w3.org/2000/svg">
<g id="cleanButtonHover">
<g id="button_1_hover">
<path id="back" d="M33 95.8576C33 95.8576 149.566 66.3599 138.271 39.5789C115.972 -13.2914 36.1115 196.96 94.7105 160.786C153.31 124.612 268.433 48.0887 277.249 44.3786C286.065 40.6684 136.197 205.772 211.909 160.786C287.621 115.8 350.887 89.6666 368 95.8576" stroke="#FEB4C2" stroke-opacity="0.8" stroke-width="50" stroke-linecap="round"/>
<rect id="button_1" x="60" y="65" width="280" height="80" rx="12" stroke="#F96287" stroke-width="5"/>
<g id="Clean fields">
<path d="M135.584 117.243C133.712 117.243 132.11 116.847 130.778 116.055C129.446 115.263 128.42 114.138 127.7 112.68C126.998 111.222 126.647 109.485 126.647 107.469C126.647 105.453 126.998 103.725 127.7 102.285C128.42 100.827 129.446 99.702 130.778 98.91C132.11 98.118 133.712 97.722 135.584 97.722C136.898 97.722 138.113 97.929 139.229 98.343C140.345 98.757 141.281 99.36 142.037 100.152L141.173 101.961C140.345 101.187 139.481 100.629 138.581 100.287C137.699 99.927 136.718 99.747 135.638 99.747C133.496 99.747 131.858 100.422 130.724 101.772C129.59 103.122 129.023 105.021 129.023 107.469C129.023 109.917 129.59 111.825 130.724 113.193C131.858 114.543 133.496 115.218 135.638 115.218C136.718 115.218 137.699 115.047 138.581 114.705C139.481 114.345 140.345 113.778 141.173 113.004L142.037 114.813C141.281 115.587 140.345 116.19 139.229 116.622C138.113 117.036 136.898 117.243 135.584 117.243ZM149.782 117.243C148.45 117.243 147.442 116.847 146.758 116.055C146.092 115.263 145.759 114.129 145.759 112.653V97.965H147.946V112.491C147.946 113.121 148.027 113.652 148.189 114.084C148.369 114.516 148.63 114.84 148.972 115.056C149.314 115.272 149.737 115.38 150.241 115.38C150.457 115.38 150.664 115.371 150.862 115.353C151.078 115.317 151.276 115.272 151.456 115.218L151.402 117.054C151.114 117.108 150.835 117.153 150.565 117.189C150.313 117.225 150.052 117.243 149.782 117.243ZM160.069 117.243C158.683 117.243 157.486 116.973 156.478 116.433C155.488 115.875 154.714 115.092 154.156 114.084C153.616 113.076 153.346 111.87 153.346 110.466C153.346 109.098 153.616 107.91 154.156 106.902C154.696 105.876 155.434 105.075 156.37 104.499C157.324 103.923 158.422 103.635 159.664 103.635C160.852 103.635 161.869 103.896 162.715 104.418C163.561 104.94 164.209 105.678 164.659 106.632C165.127 107.586 165.361 108.729 165.361 110.061V110.898H155.02V109.467H163.903L163.471 109.818C163.471 108.378 163.147 107.262 162.499 106.47C161.869 105.66 160.942 105.255 159.718 105.255C158.8 105.255 158.017 105.471 157.369 105.903C156.739 106.317 156.262 106.902 155.938 107.658C155.614 108.396 155.452 109.26 155.452 110.25V110.412C155.452 111.51 155.623 112.437 155.965 113.193C156.325 113.949 156.856 114.525 157.558 114.921C158.26 115.299 159.097 115.488 160.069 115.488C160.843 115.488 161.59 115.371 162.31 115.137C163.048 114.885 163.741 114.48 164.389 113.922L165.145 115.461C164.551 116.001 163.795 116.433 162.877 116.757C161.959 117.081 161.023 117.243 160.069 117.243ZM173.198 117.243C172.298 117.243 171.488 117.072 170.768 116.73C170.066 116.37 169.508 115.884 169.094 115.272C168.68 114.66 168.473 113.976 168.473 113.22C168.473 112.248 168.716 111.483 169.202 110.925C169.706 110.367 170.525 109.971 171.659 109.737C172.811 109.503 174.377 109.386 176.357 109.386H177.572V110.817H176.384C175.286 110.817 174.368 110.853 173.63 110.925C172.892 110.997 172.307 111.123 171.875 111.303C171.443 111.483 171.137 111.717 170.957 112.005C170.777 112.293 170.687 112.653 170.687 113.085C170.687 113.823 170.939 114.426 171.443 114.894C171.965 115.362 172.667 115.596 173.549 115.596C174.269 115.596 174.899 115.425 175.439 115.083C175.997 114.741 176.429 114.273 176.735 113.679C177.059 113.085 177.221 112.401 177.221 111.627V108.549C177.221 107.433 176.996 106.632 176.546 106.146C176.096 105.642 175.358 105.39 174.332 105.39C173.54 105.39 172.775 105.507 172.037 105.741C171.299 105.957 170.543 106.317 169.769 106.821L169.013 105.228C169.481 104.904 170.012 104.625 170.606 104.391C171.2 104.139 171.821 103.95 172.469 103.824C173.117 103.698 173.738 103.635 174.332 103.635C175.466 103.635 176.402 103.824 177.14 104.202C177.878 104.562 178.427 105.12 178.787 105.876C179.147 106.614 179.327 107.568 179.327 108.738V117H177.275V113.949H177.518C177.374 114.633 177.095 115.218 176.681 115.704C176.285 116.19 175.79 116.568 175.196 116.838C174.602 117.108 173.936 117.243 173.198 117.243ZM183.924 117V103.878H186.057V106.794H185.76C186.138 105.75 186.75 104.967 187.596 104.445C188.46 103.905 189.45 103.635 190.566 103.635C191.61 103.635 192.474 103.824 193.158 104.202C193.86 104.562 194.382 105.129 194.724 105.903C195.066 106.677 195.237 107.649 195.237 108.819V117H193.05V108.954C193.05 108.144 192.942 107.478 192.726 106.956C192.528 106.434 192.204 106.047 191.754 105.795C191.322 105.543 190.755 105.417 190.053 105.417C189.261 105.417 188.568 105.588 187.974 105.93C187.38 106.272 186.921 106.749 186.597 107.361C186.273 107.973 186.111 108.693 186.111 109.521V117H183.924ZM207.986 117V105.579H205.394V103.878H208.58L207.986 104.445V103.419C207.986 101.673 208.418 100.35 209.282 99.45C210.164 98.55 211.514 98.046 213.332 97.938L214.331 97.884L214.466 99.585L213.332 99.639C212.594 99.675 211.991 99.837 211.523 100.125C211.055 100.395 210.713 100.782 210.497 101.286C210.281 101.79 210.173 102.411 210.173 103.149V104.175V103.878H218.273V117H216.086V105.579H210.173V117H207.986ZM215.843 100.611V98.154H218.516V100.611H215.843ZM228.819 117.243C227.433 117.243 226.236 116.973 225.228 116.433C224.238 115.875 223.464 115.092 222.906 114.084C222.366 113.076 222.096 111.87 222.096 110.466C222.096 109.098 222.366 107.91 222.906 106.902C223.446 105.876 224.184 105.075 225.12 104.499C226.074 103.923 227.172 103.635 228.414 103.635C229.602 103.635 230.619 103.896 231.465 104.418C232.311 104.94 232.959 105.678 233.409 106.632C233.877 107.586 234.111 108.729 234.111 110.061V110.898H223.77V109.467H232.653L232.221 109.818C232.221 108.378 231.897 107.262 231.249 106.47C230.619 105.66 229.692 105.255 228.468 105.255C227.55 105.255 226.767 105.471 226.119 105.903C225.489 106.317 225.012 106.902 224.688 107.658C224.364 108.396 224.202 109.26 224.202 110.25V110.412C224.202 111.51 224.373 112.437 224.715 113.193C225.075 113.949 225.606 114.525 226.308 114.921C227.01 115.299 227.847 115.488 228.819 115.488C229.593 115.488 230.34 115.371 231.06 115.137C231.798 114.885 232.491 114.48 233.139 113.922L233.895 115.461C233.301 116.001 232.545 116.433 231.627 116.757C230.709 117.081 229.773 117.243 228.819 117.243ZM241.839 117.243C240.507 117.243 239.499 116.847 238.815 116.055C238.149 115.263 237.816 114.129 237.816 112.653V97.965H240.003V112.491C240.003 113.121 240.084 113.652 240.246 114.084C240.426 114.516 240.687 114.84 241.029 115.056C241.371 115.272 241.794 115.38 242.298 115.38C242.514 115.38 242.721 115.371 242.919 115.353C243.135 115.317 243.333 115.272 243.513 115.218L243.459 117.054C243.171 117.108 242.892 117.153 242.622 117.189C242.37 117.225 242.109 117.243 241.839 117.243ZM251.209 117.243C250.039 117.243 249.013 116.964 248.131 116.406C247.267 115.848 246.592 115.065 246.106 114.057C245.638 113.031 245.404 111.825 245.404 110.439C245.404 109.035 245.638 107.829 246.106 106.821C246.592 105.795 247.267 105.012 248.131 104.472C249.013 103.914 250.039 103.635 251.209 103.635C252.397 103.635 253.414 103.932 254.26 104.526C255.106 105.12 255.673 105.921 255.961 106.929H255.664V97.965H257.851V117H255.718V113.868H255.988C255.7 114.894 255.124 115.713 254.26 116.325C253.414 116.937 252.397 117.243 251.209 117.243ZM251.668 115.488C252.91 115.488 253.891 115.056 254.611 114.192C255.349 113.31 255.718 112.059 255.718 110.439C255.718 108.801 255.349 107.55 254.611 106.686C253.891 105.822 252.91 105.39 251.668 105.39C250.444 105.39 249.463 105.822 248.725 106.686C247.987 107.55 247.618 108.801 247.618 110.439C247.618 112.059 247.987 113.31 248.725 114.192C249.463 115.056 250.444 115.488 251.668 115.488ZM266.923 117.243C266.239 117.243 265.573 117.171 264.925 117.027C264.295 116.901 263.701 116.721 263.143 116.487C262.603 116.235 262.135 115.938 261.739 115.596L262.441 114.057C262.873 114.399 263.341 114.687 263.845 114.921C264.349 115.137 264.862 115.299 265.384 115.407C265.906 115.515 266.437 115.569 266.977 115.569C268.003 115.569 268.777 115.38 269.299 115.002C269.821 114.624 270.082 114.111 270.082 113.463C270.082 112.959 269.911 112.563 269.569 112.275C269.227 111.969 268.687 111.735 267.949 111.573L265.492 111.033C264.358 110.799 263.512 110.394 262.954 109.818C262.414 109.242 262.144 108.495 262.144 107.577C262.144 106.767 262.351 106.074 262.765 105.498C263.197 104.904 263.8 104.445 264.574 104.121C265.348 103.797 266.248 103.635 267.274 103.635C267.886 103.635 268.471 103.698 269.029 103.824C269.587 103.95 270.109 104.139 270.595 104.391C271.099 104.625 271.531 104.922 271.891 105.282L271.162 106.821C270.82 106.497 270.433 106.227 270.001 106.011C269.569 105.777 269.119 105.606 268.651 105.498C268.201 105.372 267.742 105.309 267.274 105.309C266.266 105.309 265.501 105.507 264.979 105.903C264.457 106.299 264.196 106.821 264.196 107.469C264.196 107.973 264.358 108.387 264.682 108.711C265.006 109.035 265.51 109.269 266.194 109.413L268.651 109.926C269.821 110.178 270.694 110.583 271.27 111.141C271.864 111.681 272.161 112.419 272.161 113.355C272.161 114.147 271.945 114.84 271.513 115.434C271.081 116.01 270.469 116.46 269.677 116.784C268.903 117.09 267.985 117.243 266.923 117.243Z" fill="#F96287"/>
<path d="M130.778 116.055L131.034 115.625L131.034 115.625L130.778 116.055ZM127.7 112.68L127.249 112.897L127.252 112.901L127.7 112.68ZM127.7 102.285L127.252 102.064L127.251 102.066L127.7 102.285ZM130.778 98.91L131.034 99.3398L131.034 99.3398L130.778 98.91ZM139.229 98.343L139.055 98.8118L139.055 98.8118L139.229 98.343ZM142.037 100.152L142.488 100.367L142.637 100.056L142.399 99.8068L142.037 100.152ZM141.173 101.961L140.832 102.326L141.33 102.792L141.624 102.176L141.173 101.961ZM138.581 100.287L138.392 100.75L138.403 100.754L138.581 100.287ZM130.724 101.772L131.107 102.094L131.107 102.094L130.724 101.772ZM130.724 113.193L130.339 113.512L130.341 113.515L130.724 113.193ZM138.581 114.705L138.762 115.171L138.767 115.169L138.581 114.705ZM141.173 113.004L141.624 112.789L141.33 112.173L140.832 112.639L141.173 113.004ZM142.037 114.813L142.395 115.162L142.639 114.913L142.488 114.598L142.037 114.813ZM139.229 116.622L139.403 117.091L139.409 117.088L139.229 116.622ZM135.584 116.743C133.783 116.743 132.274 116.363 131.034 115.625L130.522 116.485C131.946 117.331 133.641 117.743 135.584 117.743V116.743ZM131.034 115.625C129.789 114.885 128.828 113.834 128.148 112.459L127.252 112.901C128.012 114.442 129.103 115.641 130.522 116.485L131.034 115.625ZM128.151 112.463C127.488 111.087 127.147 109.428 127.147 107.469H126.147C126.147 109.542 126.508 111.357 127.249 112.897L128.151 112.463ZM127.147 107.469C127.147 105.51 127.488 103.861 128.149 102.504L127.251 102.066C126.508 103.589 126.147 105.396 126.147 107.469H127.147ZM128.148 102.506C128.828 101.131 129.789 100.08 131.034 99.3398L130.522 98.4802C129.103 99.3241 128.012 100.523 127.252 102.064L128.148 102.506ZM131.034 99.3398C132.274 98.6025 133.783 98.222 135.584 98.222V97.222C133.641 97.222 131.946 97.6335 130.522 98.4802L131.034 99.3398ZM135.584 98.222C136.845 98.222 138 98.4205 139.055 98.8118L139.403 97.8742C138.226 97.4375 136.951 97.222 135.584 97.222V98.222ZM139.055 98.8118C140.106 99.2017 140.976 99.7648 141.675 100.497L142.399 99.8068C141.586 98.9552 140.584 98.3123 139.403 97.8742L139.055 98.8118ZM141.586 99.9365L140.722 101.746L141.624 102.176L142.488 100.367L141.586 99.9365ZM141.514 101.596C140.647 100.785 139.729 100.188 138.759 99.8196L138.403 100.754C139.233 101.07 140.043 101.589 140.832 102.326L141.514 101.596ZM138.77 99.8241C137.82 99.4365 136.774 99.247 135.638 99.247V100.247C136.662 100.247 137.578 100.417 138.392 100.75L138.77 99.8241ZM135.638 99.247C133.383 99.247 131.59 99.9631 130.341 101.45L131.107 102.094C132.126 100.881 133.609 100.247 135.638 100.247V99.247ZM130.341 101.45C129.107 102.92 128.523 104.949 128.523 107.469H129.523C129.523 105.093 130.073 103.324 131.107 102.094L130.341 101.45ZM128.523 107.469C128.523 109.99 129.107 112.026 130.339 113.512L131.109 112.874C130.073 111.624 129.523 109.844 129.523 107.469H128.523ZM130.341 113.515C131.59 115.002 133.383 115.718 135.638 115.718V114.718C133.609 114.718 132.126 114.084 131.107 112.871L130.341 113.515ZM135.638 115.718C136.771 115.718 137.815 115.538 138.762 115.171L138.4 114.239C137.583 114.556 136.665 114.718 135.638 114.718V115.718ZM138.767 115.169C139.733 114.783 140.649 114.179 141.514 113.369L140.832 112.639C140.041 113.377 139.229 113.907 138.395 114.241L138.767 115.169ZM140.722 113.219L141.586 115.028L142.488 114.598L141.624 112.789L140.722 113.219ZM141.679 114.464C140.978 115.181 140.105 115.747 139.049 116.156L139.409 117.088C140.585 116.633 141.584 115.993 142.395 115.162L141.679 114.464ZM139.055 116.153C138 116.545 136.845 116.743 135.584 116.743V117.743C136.951 117.743 138.226 117.527 139.403 117.091L139.055 116.153ZM146.758 116.055L146.375 116.377L146.38 116.382L146.758 116.055ZM145.759 97.965V97.465H145.259V97.965H145.759ZM147.946 97.965H148.446V97.465H147.946V97.965ZM148.189 114.084L147.721 114.26L147.724 114.268L147.727 114.276L148.189 114.084ZM148.972 115.056L148.705 115.479L148.705 115.479L148.972 115.056ZM150.862 115.353L150.907 115.851L150.926 115.849L150.944 115.846L150.862 115.353ZM151.456 115.218L151.956 115.233L151.976 114.54L151.312 114.739L151.456 115.218ZM151.402 117.054L151.494 117.545L151.89 117.471L151.902 117.069L151.402 117.054ZM150.565 117.189L150.499 116.693L150.494 116.694L150.565 117.189ZM149.782 116.743C148.553 116.743 147.701 116.382 147.136 115.728L146.38 116.382C147.183 117.312 148.347 117.743 149.782 117.743V116.743ZM147.141 115.733C146.577 115.063 146.259 114.061 146.259 112.653H145.259C145.259 114.197 145.607 115.463 146.375 116.377L147.141 115.733ZM146.259 112.653V97.965H145.259V112.653H146.259ZM145.759 98.465H147.946V97.465H145.759V98.465ZM147.446 97.965V112.491H148.446V97.965H147.446ZM147.446 112.491C147.446 113.161 147.532 113.755 147.721 114.26L148.657 113.908C148.522 113.549 148.446 113.081 148.446 112.491H147.446ZM147.727 114.276C147.941 114.788 148.263 115.2 148.705 115.479L149.239 114.633C148.997 114.48 148.797 114.244 148.651 113.892L147.727 114.276ZM148.705 115.479C149.144 115.756 149.666 115.88 150.241 115.88V114.88C149.808 114.88 149.484 114.788 149.239 114.633L148.705 115.479ZM150.241 115.88C150.471 115.88 150.693 115.87 150.907 115.851L150.817 114.855C150.635 114.872 150.443 114.88 150.241 114.88V115.88ZM150.944 115.846C151.178 115.807 151.397 115.758 151.6 115.697L151.312 114.739C151.155 114.786 150.978 114.827 150.78 114.86L150.944 115.846ZM150.956 115.203L150.902 117.039L151.902 117.069L151.956 115.233L150.956 115.203ZM151.31 116.563C151.03 116.615 150.76 116.659 150.499 116.693L150.631 117.685C150.91 117.647 151.198 117.601 151.494 117.545L151.31 116.563ZM150.494 116.694C150.267 116.726 150.03 116.743 149.782 116.743V117.743C150.074 117.743 150.359 117.724 150.636 117.684L150.494 116.694ZM156.478 116.433L156.233 116.869L156.242 116.874L156.478 116.433ZM154.156 114.084L153.716 114.32L153.719 114.326L154.156 114.084ZM154.156 106.902L154.597 107.138L154.599 107.135L154.156 106.902ZM156.37 104.499L156.112 104.071L156.108 104.073L156.37 104.499ZM162.715 104.418L162.453 104.844L162.453 104.844L162.715 104.418ZM164.659 106.632L164.207 106.845L164.211 106.852L164.659 106.632ZM165.361 110.898V111.398H165.861V110.898H165.361ZM155.02 110.898H154.52V111.398H155.02V110.898ZM155.02 109.467V108.967H154.52V109.467H155.02ZM163.903 109.467L164.219 109.855L165.312 108.967H163.903V109.467ZM163.471 109.818H162.971V110.868L163.787 110.206L163.471 109.818ZM162.499 106.47L162.105 106.777L162.112 106.787L162.499 106.47ZM157.369 105.903L157.644 106.321L157.647 106.319L157.369 105.903ZM155.938 107.658L156.396 107.859L156.398 107.855L155.938 107.658ZM155.965 113.193L155.51 113.399L155.514 113.408L155.965 113.193ZM157.558 114.921L157.313 115.357L157.321 115.361L157.558 114.921ZM162.31 115.137L162.465 115.613L162.472 115.61L162.31 115.137ZM164.389 113.922L164.838 113.702L164.553 113.121L164.063 113.543L164.389 113.922ZM165.145 115.461L165.482 115.831L165.76 115.578L165.594 115.241L165.145 115.461ZM162.877 116.757L162.711 116.286L162.711 116.286L162.877 116.757ZM160.069 116.743C158.748 116.743 157.636 116.486 156.715 115.992L156.242 116.874C157.337 117.46 158.618 117.743 160.069 117.743V116.743ZM156.724 115.997C155.816 115.486 155.108 114.77 154.594 113.842L153.719 114.326C154.321 115.414 155.161 116.264 156.233 116.869L156.724 115.997ZM154.597 113.848C154.104 112.927 153.846 111.806 153.846 110.466H152.846C152.846 111.934 153.129 113.225 153.716 114.32L154.597 113.848ZM153.846 110.466C153.846 109.164 154.103 108.061 154.597 107.138L153.716 106.666C153.13 107.759 152.846 109.032 152.846 110.466H153.846ZM154.599 107.135C155.1 106.184 155.777 105.451 156.632 104.925L156.108 104.073C155.092 104.699 154.293 105.568 153.714 106.669L154.599 107.135ZM156.629 104.927C157.496 104.403 158.503 104.135 159.664 104.135V103.135C158.342 103.135 157.153 103.443 156.112 104.071L156.629 104.927ZM159.664 104.135C160.778 104.135 161.7 104.379 162.453 104.844L162.978 103.992C162.039 103.413 160.927 103.135 159.664 103.135V104.135ZM162.453 104.844C163.211 105.311 163.796 105.973 164.207 106.845L165.112 106.419C164.623 105.383 163.912 104.569 162.978 103.992L162.453 104.844ZM164.211 106.852C164.637 107.723 164.861 108.786 164.861 110.061H165.861C165.861 108.672 165.617 107.449 165.108 106.412L164.211 106.852ZM164.861 110.061V110.898H165.861V110.061H164.861ZM165.361 110.398H155.02V111.398H165.361V110.398ZM155.52 110.898V109.467H154.52V110.898H155.52ZM155.02 109.967H163.903V108.967H155.02V109.967ZM163.588 109.079L163.156 109.43L163.787 110.206L164.219 109.855L163.588 109.079ZM163.971 109.818C163.971 108.309 163.632 107.065 162.886 106.153L162.112 106.787C162.663 107.459 162.971 108.447 162.971 109.818H163.971ZM162.894 106.163C162.151 105.207 161.063 104.755 159.718 104.755V105.755C160.821 105.755 161.588 106.113 162.105 106.777L162.894 106.163ZM159.718 104.755C158.72 104.755 157.836 104.991 157.092 105.487L157.647 106.319C158.199 105.951 158.881 105.755 159.718 105.755V104.755ZM157.095 105.485C156.375 105.958 155.838 106.623 155.479 107.461L156.398 107.855C156.687 107.181 157.103 106.676 157.644 106.321L157.095 105.485ZM155.481 107.457C155.123 108.271 154.952 109.206 154.952 110.25H155.952C155.952 109.314 156.106 108.521 156.396 107.859L155.481 107.457ZM154.952 110.25V110.412H155.952V110.25H154.952ZM154.952 110.412C154.952 111.559 155.131 112.561 155.51 113.399L156.421 112.987C156.116 112.313 155.952 111.461 155.952 110.412H154.952ZM155.514 113.408C155.916 114.253 156.517 114.908 157.313 115.356L157.804 114.486C157.195 114.142 156.734 113.645 156.417 112.978L155.514 113.408ZM157.321 115.361C158.111 115.786 159.033 115.988 160.069 115.988V114.988C159.162 114.988 158.41 114.812 157.795 114.481L157.321 115.361ZM160.069 115.988C160.895 115.988 161.694 115.863 162.465 115.613L162.156 114.661C161.487 114.879 160.792 114.988 160.069 114.988V115.988ZM162.472 115.61C163.276 115.336 164.024 114.897 164.716 114.301L164.063 113.543C163.459 114.063 162.821 114.434 162.149 114.664L162.472 115.61ZM163.941 114.142L164.697 115.681L165.594 115.241L164.838 113.702L163.941 114.142ZM164.809 115.091C164.274 115.578 163.579 115.979 162.711 116.286L163.044 117.228C164.012 116.887 164.829 116.424 165.482 115.831L164.809 115.091ZM162.711 116.286C161.845 116.591 160.966 116.743 160.069 116.743V117.743C161.081 117.743 162.073 117.571 163.044 117.228L162.711 116.286ZM170.768 116.73L170.539 117.175L170.546 117.178L170.553 117.182L170.768 116.73ZM169.094 115.272L169.508 114.992L169.508 114.992L169.094 115.272ZM169.202 110.925L168.83 110.59L168.824 110.597L169.202 110.925ZM171.659 109.737L171.559 109.247L171.557 109.247L171.659 109.737ZM177.572 109.386H178.072V108.886H177.572V109.386ZM177.572 110.817V111.317H178.072V110.817H177.572ZM173.63 110.925L173.678 111.423L173.678 111.423L173.63 110.925ZM170.957 112.005L171.381 112.27L171.381 112.27L170.957 112.005ZM171.443 114.894L171.102 115.26L171.109 115.266L171.443 114.894ZM175.439 115.083L175.177 114.657L175.171 114.661L175.439 115.083ZM176.735 113.679L176.295 113.44L176.29 113.45L176.735 113.679ZM176.546 106.146L176.173 106.479L176.179 106.486L176.546 106.146ZM172.037 105.741L172.177 106.221L172.188 106.218L172.037 105.741ZM169.769 106.821L169.317 107.035L169.562 107.552L170.041 107.24L169.769 106.821ZM169.013 105.228L168.728 104.817L168.379 105.059L168.561 105.442L169.013 105.228ZM170.606 104.391L170.789 104.856L170.801 104.851L170.606 104.391ZM177.14 104.202L176.912 104.647L176.92 104.651L177.14 104.202ZM178.787 105.876L178.335 106.091L178.337 106.095L178.787 105.876ZM179.327 117V117.5H179.827V117H179.327ZM177.275 117H176.775V117.5H177.275V117ZM177.275 113.949V113.449H176.775V113.949H177.275ZM177.518 113.949L178.007 114.052L178.134 113.449H177.518V113.949ZM176.681 115.704L176.3 115.38L176.293 115.388L176.681 115.704ZM175.196 116.838L174.989 116.383L174.989 116.383L175.196 116.838ZM173.198 116.743C172.362 116.743 171.627 116.585 170.982 116.278L170.553 117.182C171.348 117.559 172.233 117.743 173.198 117.743V116.743ZM170.996 116.285C170.363 115.961 169.871 115.529 169.508 114.992L168.679 115.552C169.144 116.239 169.768 116.779 170.539 117.175L170.996 116.285ZM169.508 114.992C169.151 114.465 168.973 113.879 168.973 113.22H167.973C167.973 114.073 168.208 114.855 168.679 115.552L169.508 114.992ZM168.973 113.22C168.973 112.33 169.194 111.695 169.579 111.253L168.824 110.597C168.237 111.271 167.973 112.166 167.973 113.22H168.973ZM169.573 111.26C169.976 110.813 170.677 110.45 171.76 110.227L171.557 109.247C170.372 109.492 169.435 109.921 168.83 110.59L169.573 111.26ZM171.758 110.227C172.863 110.003 174.391 109.886 176.357 109.886V108.886C174.362 108.886 172.758 109.003 171.559 109.247L171.758 110.227ZM176.357 109.886H177.572V108.886H176.357V109.886ZM177.072 109.386V110.817H178.072V109.386H177.072ZM177.572 110.317H176.384V111.317H177.572V110.317ZM176.384 110.317C175.276 110.317 174.341 110.353 173.581 110.427L173.678 111.423C174.394 111.353 175.295 111.317 176.384 111.317V110.317ZM173.581 110.427C172.819 110.502 172.179 110.635 171.682 110.841L172.067 111.765C172.434 111.611 172.964 111.492 173.678 111.423L173.581 110.427ZM171.682 110.841C171.19 111.047 170.785 111.336 170.533 111.74L171.381 112.27C171.488 112.098 171.695 111.919 172.067 111.765L171.682 110.841ZM170.533 111.74C170.291 112.126 170.187 112.585 170.187 113.085H171.187C171.187 112.721 171.262 112.46 171.381 112.27L170.533 111.74ZM170.187 113.085C170.187 113.951 170.488 114.69 171.102 115.26L171.783 114.528C171.389 114.162 171.187 113.695 171.187 113.085H170.187ZM171.109 115.266C171.744 115.836 172.576 116.096 173.549 116.096V115.096C172.757 115.096 172.185 114.888 171.776 114.522L171.109 115.266ZM173.549 116.096C174.351 116.096 175.076 115.904 175.706 115.505L175.171 114.661C174.721 114.946 174.186 115.096 173.549 115.096V116.096ZM175.7 115.509C176.337 115.118 176.832 114.581 177.179 113.908L176.29 113.45C176.025 113.965 175.656 114.364 175.177 114.657L175.7 115.509ZM177.173 113.918C177.543 113.241 177.721 112.472 177.721 111.627H176.721C176.721 112.33 176.574 112.929 176.296 113.44L177.173 113.918ZM177.721 111.627V108.549H176.721V111.627H177.721ZM177.721 108.549C177.721 107.387 177.49 106.43 176.912 105.806L176.179 106.486C176.501 106.834 176.721 107.479 176.721 108.549H177.721ZM176.918 105.813C176.334 105.158 175.426 104.89 174.332 104.89V105.89C175.289 105.89 175.857 106.126 176.173 106.479L176.918 105.813ZM174.332 104.89C173.489 104.89 172.673 105.015 171.885 105.264L172.188 106.218C172.876 105.999 173.59 105.89 174.332 105.89V104.89ZM171.896 105.261C171.103 105.493 170.303 105.877 169.496 106.402L170.041 107.24C170.782 106.757 171.494 106.421 172.177 106.221L171.896 105.261ZM170.22 106.607L169.464 105.014L168.561 105.442L169.317 107.035L170.22 106.607ZM169.297 105.639C169.73 105.339 170.226 105.078 170.789 104.856L170.422 103.926C169.797 104.172 169.231 104.469 168.728 104.817L169.297 105.639ZM170.801 104.851C171.362 104.613 171.949 104.434 172.564 104.315L172.373 103.333C171.692 103.466 171.037 103.665 170.41 103.931L170.801 104.851ZM172.564 104.315C173.184 104.194 173.773 104.135 174.332 104.135V103.135C173.702 103.135 173.049 103.202 172.373 103.333L172.564 104.315ZM174.332 104.135C175.414 104.135 176.265 104.316 176.912 104.647L177.367 103.757C176.538 103.332 175.517 103.135 174.332 103.135V104.135ZM176.92 104.651C177.554 104.961 178.023 105.435 178.335 106.091L179.238 105.661C178.83 104.805 178.201 104.163 177.359 103.753L176.92 104.651ZM178.337 106.095C178.653 106.742 178.827 107.614 178.827 108.738H179.827C179.827 107.522 179.64 106.486 179.236 105.657L178.337 106.095ZM178.827 108.738V117H179.827V108.738H178.827ZM179.327 116.5H177.275V117.5H179.327V116.5ZM177.775 117V113.949H176.775V117H177.775ZM177.275 114.449H177.518V113.449H177.275V114.449ZM177.028 113.846C176.9 114.456 176.655 114.963 176.3 115.38L177.061 116.028C177.534 115.473 177.847 114.81 178.007 114.052L177.028 113.846ZM176.293 115.388C175.948 115.812 175.515 116.143 174.989 116.383L175.402 117.293C176.064 116.993 176.621 116.568 177.068 116.02L176.293 115.388ZM174.989 116.383C174.468 116.62 173.874 116.743 173.198 116.743V117.743C173.998 117.743 174.735 117.596 175.402 117.293L174.989 116.383ZM183.924 117H183.424V117.5H183.924V117ZM183.924 103.878V103.378H183.424V103.878H183.924ZM186.057 103.878H186.557V103.378H186.057V103.878ZM186.057 106.794V107.294H186.557V106.794H186.057ZM185.76 106.794L185.29 106.624L185.047 107.294H185.76V106.794ZM187.596 104.445L187.858 104.871L187.861 104.869L187.596 104.445ZM193.158 104.202L192.916 104.64L192.923 104.643L192.93 104.647L193.158 104.202ZM194.724 105.903L194.267 106.105L194.267 106.105L194.724 105.903ZM195.237 117V117.5H195.737V117H195.237ZM193.05 117H192.55V117.5H193.05V117ZM192.726 106.956L192.258 107.133L192.261 107.14L192.264 107.147L192.726 106.956ZM191.754 105.795L191.502 106.227L191.51 106.231L191.754 105.795ZM187.974 105.93L188.223 106.363L188.223 106.363L187.974 105.93ZM186.597 107.361L187.039 107.595L187.039 107.595L186.597 107.361ZM186.111 117V117.5H186.611V117H186.111ZM184.424 117V103.878H183.424V117H184.424ZM183.924 104.378H186.057V103.378H183.924V104.378ZM185.557 103.878V106.794H186.557V103.878H185.557ZM186.057 106.294H185.76V107.294H186.057V106.294ZM186.23 106.964C186.574 106.013 187.12 105.326 187.858 104.871L187.333 104.019C186.38 104.608 185.701 105.487 185.29 106.624L186.23 106.964ZM187.861 104.869C188.638 104.383 189.534 104.135 190.566 104.135V103.135C189.365 103.135 188.282 103.427 187.331 104.021L187.861 104.869ZM190.566 104.135C191.553 104.135 192.327 104.314 192.916 104.64L193.4 103.764C192.621 103.334 191.667 103.135 190.566 103.135V104.135ZM192.93 104.647C193.522 104.951 193.967 105.428 194.267 106.105L195.181 105.701C194.797 104.83 194.198 104.173 193.386 103.757L192.93 104.647ZM194.267 106.105C194.572 106.796 194.737 107.694 194.737 108.819H195.737C195.737 107.604 195.56 106.558 195.181 105.701L194.267 106.105ZM194.737 108.819V117H195.737V108.819H194.737ZM195.237 116.5H193.05V117.5H195.237V116.5ZM193.55 117V108.954H192.55V117H193.55ZM193.55 108.954C193.55 108.105 193.437 107.368 193.188 106.765L192.264 107.147C192.446 107.588 192.55 108.183 192.55 108.954H193.55ZM193.193 106.779C192.957 106.157 192.559 105.673 191.998 105.359L191.51 106.231C191.848 106.421 192.098 106.711 192.258 107.133L193.193 106.779ZM192.006 105.363C191.473 105.052 190.809 104.917 190.053 104.917V105.917C190.7 105.917 191.171 106.034 191.502 106.227L192.006 105.363ZM190.053 104.917C189.187 104.917 188.405 105.105 187.724 105.497L188.223 106.363C188.73 106.071 189.335 105.917 190.053 105.917V104.917ZM187.724 105.497C187.048 105.886 186.523 106.433 186.155 107.127L187.039 107.595C187.319 107.065 187.712 106.658 188.223 106.363L187.724 105.497ZM186.155 107.127C185.786 107.824 185.611 108.627 185.611 109.521H186.611C186.611 108.759 186.76 108.122 187.039 107.595L186.155 107.127ZM185.611 109.521V117H186.611V109.521H185.611ZM186.111 116.5H183.924V117.5H186.111V116.5ZM207.986 117H207.486V117.5H207.986V117ZM207.986 105.579H208.486V105.079H207.986V105.579ZM205.394 105.579H204.894V106.079H205.394V105.579ZM205.394 103.878V103.378H204.894V103.878H205.394ZM208.58 103.878L208.925 104.24L209.828 103.378H208.58V103.878ZM207.986 104.445H207.486V105.613L208.331 104.807L207.986 104.445ZM209.282 99.45L208.925 99.1L208.921 99.1037L209.282 99.45ZM213.332 97.938L213.305 97.4387L213.303 97.4389L213.332 97.938ZM214.331 97.884L214.83 97.8444L214.791 97.3584L214.304 97.3847L214.331 97.884ZM214.466 99.585L214.49 100.084L215.005 100.06L214.965 99.5454L214.466 99.585ZM213.332 99.639L213.308 99.1396L213.308 99.1396L213.332 99.639ZM211.523 100.125L211.773 100.558L211.779 100.555L211.785 100.551L211.523 100.125ZM210.497 101.286L210.038 101.089L210.038 101.089L210.497 101.286ZM210.173 103.878V103.378H209.673V103.878H210.173ZM218.273 103.878H218.773V103.378H218.273V103.878ZM218.273 117V117.5H218.773V117H218.273ZM216.086 117H215.586V117.5H216.086V117ZM216.086 105.579H216.586V105.079H216.086V105.579ZM210.173 105.579V105.079H209.673V105.579H210.173ZM210.173 117V117.5H210.673V117H210.173ZM215.843 100.611H215.343V101.111H215.843V100.611ZM215.843 98.154V97.654H215.343V98.154H215.843ZM218.516 98.154H219.016V97.654H218.516V98.154ZM218.516 100.611V101.111H219.016V100.611H218.516ZM208.486 117V105.579H207.486V117H208.486ZM207.986 105.079H205.394V106.079H207.986V105.079ZM205.894 105.579V103.878H204.894V105.579H205.894ZM205.394 104.378H208.58V103.378H205.394V104.378ZM208.235 103.516L207.641 104.083L208.331 104.807L208.925 104.24L208.235 103.516ZM208.486 104.445V103.419H207.486V104.445H208.486ZM208.486 103.419C208.486 101.75 208.899 100.571 209.643 99.7963L208.921 99.1037C207.938 100.129 207.486 101.596 207.486 103.419H208.486ZM209.639 99.8C210.403 99.0211 211.613 98.541 213.362 98.4371L213.303 97.4389C211.415 97.551 209.926 98.0789 208.925 99.1L209.639 99.8ZM213.359 98.4373L214.358 98.3833L214.304 97.3847L213.305 97.4387L213.359 98.4373ZM213.833 97.9236L213.968 99.6246L214.965 99.5454L214.83 97.8444L213.833 97.9236ZM214.442 99.0856L213.308 99.1396L213.356 100.138L214.49 100.084L214.442 99.0856ZM213.308 99.1396C212.514 99.1783 211.821 99.3544 211.261 99.6992L211.785 100.551C212.161 100.32 212.675 100.172 213.357 100.138L213.308 99.1396ZM211.273 99.6919C210.71 100.017 210.295 100.487 210.038 101.089L210.957 101.483C211.131 101.077 211.4 100.773 211.773 100.558L211.273 99.6919ZM210.038 101.089C209.787 101.673 209.673 102.365 209.673 103.149H210.673C210.673 102.457 210.775 101.907 210.957 101.483L210.038 101.089ZM209.673 103.149V104.175H210.673V103.149H209.673ZM210.673 104.175V103.878H209.673V104.175H210.673ZM210.173 104.378H218.273V103.378H210.173V104.378ZM217.773 103.878V117H218.773V103.878H217.773ZM218.273 116.5H216.086V117.5H218.273V116.5ZM216.586 117V105.579H215.586V117H216.586ZM216.086 105.079H210.173V106.079H216.086V105.079ZM209.673 105.579V117H210.673V105.579H209.673ZM210.173 116.5H207.986V117.5H210.173V116.5ZM216.343 100.611V98.154H215.343V100.611H216.343ZM215.843 98.654H218.516V97.654H215.843V98.654ZM218.016 98.154V100.611H219.016V98.154H218.016ZM218.516 100.111H215.843V101.111H218.516V100.111ZM225.228 116.433L224.983 116.869L224.992 116.874L225.228 116.433ZM222.906 114.084L222.465 114.32L222.469 114.326L222.906 114.084ZM222.906 106.902L223.347 107.138L223.349 107.135L222.906 106.902ZM225.12 104.499L224.862 104.071L224.858 104.073L225.12 104.499ZM231.465 104.418L231.203 104.844L231.203 104.844L231.465 104.418ZM233.409 106.632L232.957 106.845L232.96 106.852L233.409 106.632ZM234.111 110.898V111.398H234.611V110.898H234.111ZM223.77 110.898H223.27V111.398H223.77V110.898ZM223.77 109.467V108.967H223.27V109.467H223.77ZM232.653 109.467L232.969 109.855L234.062 108.967H232.653V109.467ZM232.221 109.818H231.721V110.868L232.537 110.206L232.221 109.818ZM231.249 106.47L230.854 106.777L230.862 106.787L231.249 106.47ZM226.119 105.903L226.394 106.321L226.397 106.319L226.119 105.903ZM224.688 107.658L225.146 107.859L225.148 107.855L224.688 107.658ZM224.715 113.193L224.26 113.399L224.264 113.408L224.715 113.193ZM226.308 114.921L226.063 115.357L226.071 115.361L226.308 114.921ZM231.06 115.137L231.215 115.613L231.222 115.61L231.06 115.137ZM233.139 113.922L233.588 113.702L233.303 113.121L232.813 113.543L233.139 113.922ZM233.895 115.461L234.232 115.831L234.51 115.578L234.344 115.241L233.895 115.461ZM231.627 116.757L231.461 116.286L231.461 116.286L231.627 116.757ZM228.819 116.743C227.498 116.743 226.386 116.486 225.464 115.992L224.992 116.874C226.087 117.46 227.368 117.743 228.819 117.743V116.743ZM225.474 115.997C224.566 115.486 223.857 114.77 223.344 113.842L222.469 114.326C223.071 115.414 223.911 116.264 224.983 116.869L225.474 115.997ZM223.347 113.848C222.854 112.927 222.596 111.806 222.596 110.466H221.596C221.596 111.934 221.879 113.225 222.465 114.32L223.347 113.848ZM222.596 110.466C222.596 109.164 222.853 108.061 223.347 107.138L222.465 106.666C221.88 107.759 221.596 109.032 221.596 110.466H222.596ZM223.349 107.135C223.849 106.184 224.527 105.451 225.382 104.925L224.858 104.073C223.842 104.699 223.043 105.568 222.464 106.669L223.349 107.135ZM225.379 104.927C226.246 104.403 227.253 104.135 228.414 104.135V103.135C227.092 103.135 225.902 103.443 224.862 104.071L225.379 104.927ZM228.414 104.135C229.528 104.135 230.45 104.379 231.203 104.844L231.728 103.992C230.789 103.413 229.677 103.135 228.414 103.135V104.135ZM231.203 104.844C231.961 105.311 232.546 105.973 232.957 106.845L233.861 106.419C233.373 105.383 232.661 104.569 231.728 103.992L231.203 104.844ZM232.96 106.852C233.387 107.723 233.611 108.786 233.611 110.061H234.611C234.611 108.672 234.367 107.449 233.858 106.412L232.96 106.852ZM233.611 110.061V110.898H234.611V110.061H233.611ZM234.111 110.398H223.77V111.398H234.111V110.398ZM224.27 110.898V109.467H223.27V110.898H224.27ZM223.77 109.967H232.653V108.967H223.77V109.967ZM232.338 109.079L231.906 109.43L232.537 110.206L232.969 109.855L232.338 109.079ZM232.721 109.818C232.721 108.309 232.382 107.065 231.636 106.153L230.862 106.787C231.412 107.459 231.721 108.447 231.721 109.818H232.721ZM231.644 106.163C230.9 105.207 229.813 104.755 228.468 104.755V105.755C229.571 105.755 230.338 106.113 230.855 106.777L231.644 106.163ZM228.468 104.755C227.47 104.755 226.586 104.991 225.842 105.487L226.397 106.319C226.949 105.951 227.631 105.755 228.468 105.755V104.755ZM225.845 105.485C225.125 105.958 224.588 106.623 224.229 107.461L225.148 107.855C225.437 107.181 225.853 106.676 226.394 106.321L225.845 105.485ZM224.23 107.457C223.873 108.271 223.702 109.206 223.702 110.25H224.702C224.702 109.314 224.855 108.521 225.146 107.859L224.23 107.457ZM223.702 110.25V110.412H224.702V110.25H223.702ZM223.702 110.412C223.702 111.559 223.881 112.561 224.26 113.399L225.171 112.987C224.866 112.313 224.702 111.461 224.702 110.412H223.702ZM224.264 113.408C224.666 114.253 225.267 114.908 226.063 115.356L226.554 114.486C225.945 114.142 225.484 113.645 225.167 112.978L224.264 113.408ZM226.071 115.361C226.86 115.786 227.782 115.988 228.819 115.988V114.988C227.912 114.988 227.16 114.812 226.545 114.481L226.071 115.361ZM228.819 115.988C229.645 115.988 230.444 115.863 231.215 115.613L230.906 114.661C230.237 114.879 229.542 114.988 228.819 114.988V115.988ZM231.222 115.61C232.026 115.336 232.774 114.897 233.465 114.301L232.813 113.543C232.209 114.063 231.571 114.434 230.899 114.664L231.222 115.61ZM232.69 114.142L233.446 115.681L234.344 115.241L233.588 113.702L232.69 114.142ZM233.559 115.091C233.023 115.578 232.329 115.979 231.461 116.286L231.794 117.228C232.761 116.887 233.579 116.424 234.232 115.831L233.559 115.091ZM231.461 116.286C230.595 116.591 229.715 116.743 228.819 116.743V117.743C229.831 117.743 230.823 117.571 231.794 117.228L231.461 116.286ZM238.815 116.055L238.433 116.377L238.437 116.382L238.815 116.055ZM237.816 97.965V97.465H237.316V97.965H237.816ZM240.003 97.965H240.503V97.465H240.003V97.965ZM240.246 114.084L239.778 114.26L239.781 114.268L239.785 114.276L240.246 114.084ZM241.029 115.056L240.762 115.479L240.762 115.479L241.029 115.056ZM242.919 115.353L242.965 115.851L242.983 115.849L243.002 115.846L242.919 115.353ZM243.513 115.218L244.013 115.233L244.033 114.54L243.37 114.739L243.513 115.218ZM243.459 117.054L243.551 117.545L243.947 117.471L243.959 117.069L243.459 117.054ZM242.622 117.189L242.556 116.693L242.552 116.694L242.622 117.189ZM241.839 116.743C240.61 116.743 239.758 116.382 239.194 115.728L238.437 116.382C239.241 117.312 240.405 117.743 241.839 117.743V116.743ZM239.198 115.733C238.634 115.063 238.316 114.061 238.316 112.653H237.316C237.316 114.197 237.664 115.463 238.433 116.377L239.198 115.733ZM238.316 112.653V97.965H237.316V112.653H238.316ZM237.816 98.465H240.003V97.465H237.816V98.465ZM239.503 97.965V112.491H240.503V97.965H239.503ZM239.503 112.491C239.503 113.161 239.589 113.755 239.778 114.26L240.715 113.908C240.58 113.549 240.503 113.081 240.503 112.491H239.503ZM239.785 114.276C239.998 114.788 240.32 115.2 240.762 115.479L241.296 114.633C241.054 114.48 240.855 114.244 240.708 113.892L239.785 114.276ZM240.762 115.479C241.202 115.756 241.723 115.88 242.298 115.88V114.88C241.866 114.88 241.541 114.788 241.296 114.633L240.762 115.479ZM242.298 115.88C242.528 115.88 242.75 115.87 242.965 115.851L242.874 114.855C242.692 114.872 242.501 114.88 242.298 114.88V115.88ZM243.002 115.846C243.235 115.807 243.454 115.758 243.657 115.697L243.37 114.739C243.213 114.786 243.036 114.827 242.837 114.86L243.002 115.846ZM243.014 115.203L242.96 117.039L243.959 117.069L244.013 115.233L243.014 115.203ZM243.367 116.563C243.087 116.615 242.817 116.659 242.556 116.693L242.688 117.685C242.968 117.647 243.255 117.601 243.551 117.545L243.367 116.563ZM242.552 116.694C242.324 116.726 242.087 116.743 241.839 116.743V117.743C242.132 117.743 242.416 117.724 242.693 117.684L242.552 116.694ZM248.131 116.406L247.859 116.826L247.863 116.829L248.131 116.406ZM246.106 114.057L245.651 114.265L245.655 114.274L246.106 114.057ZM246.106 106.821L245.654 106.607L245.652 106.61L246.106 106.821ZM248.131 104.472L248.396 104.896L248.398 104.895L248.131 104.472ZM254.26 104.526L253.972 104.935L253.972 104.935L254.26 104.526ZM255.961 106.929V107.429H256.624L256.442 106.792L255.961 106.929ZM255.664 106.929H255.164V107.429H255.664V106.929ZM255.664 97.965V97.465H255.164V97.965H255.664ZM257.851 97.965H258.351V97.465H257.851V97.965ZM257.851 117V117.5H258.351V117H257.851ZM255.718 117H255.218V117.5H255.718V117ZM255.718 113.868V113.368H255.218V113.868H255.718ZM255.988 113.868L256.469 114.003L256.647 113.368H255.988V113.868ZM254.26 116.325L253.971 115.917L253.967 115.92L254.26 116.325ZM254.611 114.192L254.227 113.871L254.227 113.872L254.611 114.192ZM254.611 106.686L254.227 107.006L254.231 107.011L254.611 106.686ZM248.725 106.686L248.345 106.361L248.345 106.361L248.725 106.686ZM248.725 114.192L248.341 114.513L248.345 114.517L248.725 114.192ZM251.209 116.743C250.122 116.743 249.191 116.485 248.398 115.983L247.863 116.829C248.835 117.443 249.956 117.743 251.209 117.743V116.743ZM248.402 115.986C247.622 115.482 247.006 114.773 246.556 113.84L245.655 114.274C246.178 115.357 246.912 116.214 247.859 116.826L248.402 115.986ZM246.561 113.849C246.128 112.902 245.904 111.769 245.904 110.439H244.904C244.904 111.881 245.147 113.16 245.651 114.265L246.561 113.849ZM245.904 110.439C245.904 109.089 246.129 107.959 246.559 107.032L245.652 106.61C245.147 107.699 244.904 108.981 244.904 110.439H245.904ZM246.558 107.035C247.008 106.085 247.622 105.38 248.396 104.896L247.866 104.048C246.912 104.644 246.176 105.505 245.654 106.607L246.558 107.035ZM248.398 104.895C249.191 104.393 250.122 104.135 251.209 104.135V103.135C249.956 103.135 248.835 103.435 247.863 104.049L248.398 104.895ZM251.209 104.135C252.31 104.135 253.223 104.409 253.972 104.935L254.547 104.117C253.605 103.455 252.484 103.135 251.209 103.135V104.135ZM253.972 104.935C254.723 105.462 255.223 106.167 255.48 107.066L256.442 106.792C256.123 105.675 255.488 104.778 254.547 104.117L253.972 104.935ZM255.961 106.429H255.664V107.429H255.961V106.429ZM256.164 106.929V97.965H255.164V106.929H256.164ZM255.664 98.465H257.851V97.465H255.664V98.465ZM257.351 97.965V117H258.351V97.965H257.351ZM257.851 116.5H255.718V117.5H257.851V116.5ZM256.218 117V113.868H255.218V117H256.218ZM255.718 114.368H255.988V113.368H255.718V114.368ZM255.506 113.733C255.249 114.649 254.741 115.372 253.971 115.917L254.549 116.733C255.507 116.054 256.15 115.139 256.469 114.003L255.506 113.733ZM253.967 115.92C253.217 116.462 252.307 116.743 251.209 116.743V117.743C252.487 117.743 253.61 117.412 254.553 116.73L253.967 115.92ZM251.668 115.988C253.041 115.988 254.169 115.503 254.995 114.512L254.227 113.872C253.612 114.609 252.779 114.988 251.668 114.988V115.988ZM254.994 114.513C255.833 113.51 256.218 112.129 256.218 110.439H255.218C255.218 111.989 254.864 113.11 254.227 113.871L254.994 114.513ZM256.218 110.439C256.218 108.734 255.834 107.349 254.991 106.361L254.231 107.011C254.863 107.751 255.218 108.868 255.218 110.439H256.218ZM254.995 106.366C254.169 105.375 253.041 104.89 251.668 104.89V105.89C252.779 105.89 253.612 106.269 254.227 107.006L254.995 106.366ZM251.668 104.89C250.31 104.89 249.186 105.377 248.345 106.361L249.105 107.011C249.74 106.267 250.577 105.89 251.668 105.89V104.89ZM248.345 106.361C247.501 107.349 247.118 108.734 247.118 110.439H248.118C248.118 108.868 248.472 107.751 249.105 107.011L248.345 106.361ZM247.118 110.439C247.118 112.129 247.502 113.51 248.341 114.513L249.108 113.871C248.471 113.11 248.118 111.989 248.118 110.439H247.118ZM248.345 114.517C249.186 115.501 250.31 115.988 251.668 115.988V114.988C250.577 114.988 249.74 114.611 249.105 113.867L248.345 114.517ZM264.925 117.027L265.033 116.539L265.023 116.537L264.925 117.027ZM263.143 116.487L262.932 116.94L262.94 116.944L262.95 116.948L263.143 116.487ZM261.739 115.596L261.284 115.388L261.129 115.729L261.412 115.974L261.739 115.596ZM262.441 114.057L262.751 113.665L262.251 113.269L261.986 113.849L262.441 114.057ZM263.845 114.921L263.634 115.375L263.641 115.378L263.648 115.381L263.845 114.921ZM269.299 115.002L269.006 114.597L269.006 114.597L269.299 115.002ZM269.569 112.275L269.236 112.648L269.241 112.653L269.247 112.657L269.569 112.275ZM267.949 111.573L267.842 112.061L267.842 112.061L267.949 111.573ZM265.492 111.033L265.599 110.545L265.593 110.543L265.492 111.033ZM262.954 109.818L262.589 110.16L262.595 110.166L262.954 109.818ZM262.765 105.498L262.361 105.204L262.359 105.206L262.765 105.498ZM264.574 104.121L264.767 104.582L264.767 104.582L264.574 104.121ZM269.029 103.824L269.139 103.336L269.139 103.336L269.029 103.824ZM270.595 104.391L270.365 104.835L270.375 104.84L270.384 104.845L270.595 104.391ZM271.891 105.282L272.343 105.496L272.494 105.178L272.245 104.928L271.891 105.282ZM271.162 106.821L270.818 107.184L271.319 107.658L271.614 107.035L271.162 106.821ZM270.001 106.011L269.763 106.451L269.77 106.455L269.777 106.458L270.001 106.011ZM268.651 105.498L268.516 105.979L268.527 105.983L268.539 105.985L268.651 105.498ZM264.979 105.903L265.281 106.301L265.281 106.301L264.979 105.903ZM264.682 108.711L264.328 109.065L264.328 109.065L264.682 108.711ZM266.194 109.413L266.091 109.902L266.092 109.902L266.194 109.413ZM268.651 109.926L268.756 109.437L268.753 109.437L268.651 109.926ZM271.27 111.141L270.922 111.5L270.928 111.506L270.934 111.511L271.27 111.141ZM271.513 115.434L271.913 115.734L271.917 115.728L271.513 115.434ZM269.677 116.784L269.861 117.249L269.866 117.247L269.677 116.784ZM266.923 116.743C266.274 116.743 265.645 116.675 265.033 116.539L264.816 117.515C265.501 117.667 266.204 117.743 266.923 117.743V116.743ZM265.023 116.537C264.424 116.417 263.862 116.246 263.336 116.026L262.95 116.948C263.54 117.196 264.166 117.385 264.827 117.517L265.023 116.537ZM263.354 116.034C262.85 115.799 262.422 115.526 262.066 115.218L261.412 115.974C261.847 116.35 262.355 116.671 262.932 116.94L263.354 116.034ZM262.194 115.804L262.896 114.265L261.986 113.849L261.284 115.388L262.194 115.804ZM262.131 114.449C262.594 114.816 263.095 115.124 263.634 115.375L264.056 114.467C263.587 114.25 263.152 113.982 262.751 113.665L262.131 114.449ZM263.648 115.381C264.182 115.609 264.727 115.782 265.283 115.897L265.485 114.917C264.997 114.816 264.516 114.665 264.042 114.461L263.648 115.381ZM265.283 115.897C265.838 116.012 266.403 116.069 266.977 116.069V115.069C266.471 115.069 265.974 115.018 265.485 114.917L265.283 115.897ZM266.977 116.069C268.051 116.069 268.948 115.874 269.592 115.407L269.006 114.597C268.606 114.886 267.955 115.069 266.977 115.069V116.069ZM269.592 115.407C270.245 114.934 270.582 114.27 270.582 113.463H269.582C269.582 113.952 269.397 114.314 269.006 114.597L269.592 115.407ZM270.582 113.463C270.582 112.833 270.361 112.288 269.891 111.893L269.247 112.657C269.461 112.838 269.582 113.085 269.582 113.463H270.582ZM269.902 111.902C269.467 111.513 268.83 111.254 268.056 111.085L267.842 112.061C268.544 112.216 268.987 112.425 269.236 112.648L269.902 111.902ZM268.056 111.085L265.599 110.545L265.385 111.521L267.842 112.061L268.056 111.085ZM265.593 110.543C264.516 110.321 263.777 109.949 263.313 109.47L262.595 110.166C263.247 110.839 264.2 111.277 265.391 111.523L265.593 110.543ZM263.319 109.476C262.88 109.008 262.644 108.39 262.644 107.577H261.644C261.644 108.6 261.948 109.476 262.589 110.16L263.319 109.476ZM262.644 107.577C262.644 106.856 262.827 106.269 263.171 105.79L262.359 105.206C261.875 105.879 261.644 106.678 261.644 107.577H262.644ZM263.169 105.792C263.54 105.282 264.065 104.876 264.767 104.582L264.381 103.66C263.535 104.014 262.854 104.526 262.361 105.204L263.169 105.792ZM264.767 104.582C265.468 104.289 266.3 104.135 267.274 104.135V103.135C266.196 103.135 265.228 103.305 264.381 103.66L264.767 104.582ZM267.274 104.135C267.851 104.135 268.399 104.194 268.919 104.312L269.139 103.336C268.543 103.202 267.92 103.135 267.274 103.135V104.135ZM268.919 104.312C269.437 104.429 269.918 104.603 270.365 104.835L270.825 103.947C270.299 103.675 269.737 103.471 269.139 103.336L268.919 104.312ZM270.384 104.845C270.84 105.056 271.222 105.321 271.537 105.636L272.245 104.928C271.839 104.523 271.358 104.194 270.806 103.937L270.384 104.845ZM271.439 105.068L270.71 106.607L271.614 107.035L272.343 105.496L271.439 105.068ZM271.506 106.458C271.127 106.099 270.699 105.801 270.225 105.564L269.777 106.458C270.166 106.653 270.513 106.895 270.818 107.184L271.506 106.458ZM270.239 105.571C269.768 105.316 269.276 105.129 268.763 105.011L268.539 105.985C268.962 106.083 269.369 106.238 269.763 106.451L270.239 105.571ZM268.786 105.017C268.292 104.878 267.787 104.809 267.274 104.809V105.809C267.696 105.809 268.11 105.866 268.516 105.979L268.786 105.017ZM267.274 104.809C266.212 104.809 265.321 105.016 264.677 105.505L265.281 106.301C265.681 105.998 266.32 105.809 267.274 105.809V104.809ZM264.677 105.505C264.032 105.994 263.696 106.663 263.696 107.469H264.696C264.696 106.979 264.882 106.604 265.281 106.301L264.677 105.505ZM263.696 107.469C263.696 108.091 263.901 108.637 264.328 109.065L265.036 108.357C264.815 108.137 264.696 107.855 264.696 107.469H263.696ZM264.328 109.065C264.748 109.484 265.358 109.748 266.091 109.902L266.297 108.924C265.661 108.79 265.264 108.586 265.036 108.357L264.328 109.065ZM266.092 109.902L268.549 110.415L268.753 109.437L266.296 108.924L266.092 109.902ZM268.546 110.415C269.666 110.656 270.439 111.032 270.922 111.5L271.618 110.782C270.949 110.134 269.976 109.7 268.756 109.437L268.546 110.415ZM270.934 111.511C271.406 111.94 271.661 112.534 271.661 113.355H272.661C272.661 112.304 272.322 111.422 271.606 110.771L270.934 111.511ZM271.661 113.355C271.661 114.05 271.473 114.638 271.109 115.14L271.917 115.728C272.416 115.042 272.661 114.244 272.661 113.355H271.661ZM271.113 115.134C270.745 115.625 270.212 116.025 269.488 116.321L269.866 117.247C270.726 116.895 271.417 116.395 271.913 115.734L271.113 115.134ZM269.493 116.319C268.791 116.596 267.939 116.743 266.923 116.743V117.743C268.031 117.743 269.015 117.584 269.861 117.249L269.493 116.319Z" fill="#F96287"/>
</g>
</g>
</g>
</svg>
