<svg width="400" height="200" viewBox="0 0 400 200" fill="none" xmlns="http://www.w3.org/2000/svg">
<g id="cleanButton">
<g id="button_1">
<path id="back" d="M33 115.174C33 115.174 144 54.6745 167.5 34.6745C205.906 1.98853 46 199.174 102.5 160.174C159 121.174 270 38.6744 278.5 34.6744C287 30.6744 142.5 208.675 215.5 160.174C288.5 111.674 368 90.1744 368 90.1744" stroke="#FFD5E3" stroke-opacity="0.8" stroke-width="50" stroke-linecap="round"/>
<rect id="button_1_2" x="60" y="65" width="280" height="80" rx="12" stroke="#FA91A5" stroke-width="5"/>
<g id="Clean fields">
<path d="M136.8 112.225C135.067 112.225 133.583 111.858 132.35 111.125C131.117 110.392 130.167 109.35 129.5 108C128.85 106.65 128.525 105.042 128.525 103.175C128.525 101.308 128.85 99.7083 129.5 98.375C130.167 97.025 131.117 95.9833 132.35 95.25C133.583 94.5167 135.067 94.15 136.8 94.15C138.017 94.15 139.142 94.3417 140.175 94.725C141.208 95.1083 142.075 95.6667 142.775 96.4L141.975 98.075C141.208 97.3583 140.408 96.8417 139.575 96.525C138.758 96.1917 137.85 96.025 136.85 96.025C134.867 96.025 133.35 96.65 132.3 97.9C131.25 99.15 130.725 100.908 130.725 103.175C130.725 105.442 131.25 107.208 132.3 108.475C133.35 109.725 134.867 110.35 136.85 110.35C137.85 110.35 138.758 110.192 139.575 109.875C140.408 109.542 141.208 109.017 141.975 108.3L142.775 109.975C142.075 110.692 141.208 111.25 140.175 111.65C139.142 112.033 138.017 112.225 136.8 112.225ZM149.946 112.225C148.713 112.225 147.78 111.858 147.146 111.125C146.53 110.392 146.221 109.342 146.221 107.975V94.375H148.246V107.825C148.246 108.408 148.321 108.9 148.471 109.3C148.638 109.7 148.88 110 149.196 110.2C149.513 110.4 149.905 110.5 150.371 110.5C150.571 110.5 150.763 110.492 150.946 110.475C151.146 110.442 151.33 110.4 151.496 110.35L151.446 112.05C151.18 112.1 150.921 112.142 150.671 112.175C150.438 112.208 150.196 112.225 149.946 112.225ZM159.472 112.225C158.188 112.225 157.08 111.975 156.147 111.475C155.23 110.958 154.513 110.233 153.997 109.3C153.497 108.367 153.247 107.25 153.247 105.95C153.247 104.683 153.497 103.583 153.997 102.65C154.497 101.7 155.18 100.958 156.047 100.425C156.93 99.8917 157.947 99.625 159.097 99.625C160.197 99.625 161.138 99.8667 161.922 100.35C162.705 100.833 163.305 101.517 163.722 102.4C164.155 103.283 164.372 104.342 164.372 105.575V106.35H154.797V105.025H163.022L162.622 105.35C162.622 104.017 162.322 102.983 161.722 102.25C161.138 101.5 160.28 101.125 159.147 101.125C158.297 101.125 157.572 101.325 156.972 101.725C156.388 102.108 155.947 102.65 155.647 103.35C155.347 104.033 155.197 104.833 155.197 105.75V105.9C155.197 106.917 155.355 107.775 155.672 108.475C156.005 109.175 156.497 109.708 157.147 110.075C157.797 110.425 158.572 110.6 159.472 110.6C160.188 110.6 160.88 110.492 161.547 110.275C162.23 110.042 162.872 109.667 163.472 109.15L164.172 110.575C163.622 111.075 162.922 111.475 162.072 111.775C161.222 112.075 160.355 112.225 159.472 112.225ZM171.627 112.225C170.794 112.225 170.044 112.067 169.377 111.75C168.727 111.417 168.211 110.967 167.827 110.4C167.444 109.833 167.252 109.2 167.252 108.5C167.252 107.6 167.477 106.892 167.927 106.375C168.394 105.858 169.152 105.492 170.202 105.275C171.269 105.058 172.719 104.95 174.552 104.95H175.677V106.275H174.577C173.561 106.275 172.711 106.308 172.027 106.375C171.344 106.442 170.802 106.558 170.402 106.725C170.002 106.892 169.719 107.108 169.552 107.375C169.386 107.642 169.302 107.975 169.302 108.375C169.302 109.058 169.536 109.617 170.002 110.05C170.486 110.483 171.136 110.7 171.952 110.7C172.619 110.7 173.202 110.542 173.702 110.225C174.219 109.908 174.619 109.475 174.902 108.925C175.202 108.375 175.352 107.742 175.352 107.025V104.175C175.352 103.142 175.144 102.4 174.727 101.95C174.311 101.483 173.627 101.25 172.677 101.25C171.944 101.25 171.236 101.358 170.552 101.575C169.869 101.775 169.169 102.108 168.452 102.575L167.752 101.1C168.186 100.8 168.677 100.542 169.227 100.325C169.777 100.092 170.352 99.9167 170.952 99.8C171.552 99.6833 172.127 99.625 172.677 99.625C173.727 99.625 174.594 99.8 175.277 100.15C175.961 100.483 176.469 101 176.802 101.7C177.136 102.383 177.302 103.267 177.302 104.35V112H175.402V109.175H175.627C175.494 109.808 175.236 110.35 174.852 110.8C174.486 111.25 174.027 111.6 173.477 111.85C172.927 112.1 172.311 112.225 171.627 112.225ZM181.559 112V99.85H183.534V102.55H183.259C183.609 101.583 184.176 100.858 184.959 100.375C185.759 99.875 186.676 99.625 187.709 99.625C188.676 99.625 189.476 99.8 190.109 100.15C190.759 100.483 191.243 101.008 191.559 101.725C191.876 102.442 192.034 103.342 192.034 104.425V112H190.009V104.55C190.009 103.8 189.909 103.183 189.709 102.7C189.526 102.217 189.226 101.858 188.809 101.625C188.409 101.392 187.884 101.275 187.234 101.275C186.501 101.275 185.859 101.433 185.309 101.75C184.759 102.067 184.334 102.508 184.034 103.075C183.734 103.642 183.584 104.308 183.584 105.075V112H181.559ZM203.839 112V101.425H201.439V99.85H204.389L203.839 100.375V99.425C203.839 97.8083 204.239 96.5833 205.039 95.75C205.856 94.9167 207.106 94.45 208.789 94.35L209.714 94.3L209.839 95.875L208.789 95.925C208.106 95.9583 207.547 96.1083 207.114 96.375C206.681 96.625 206.364 96.9833 206.164 97.45C205.964 97.9167 205.864 98.4917 205.864 99.175V100.125V99.85H213.364V112H211.339V101.425H205.864V112H203.839ZM211.114 96.825V94.55H213.589V96.825H211.114ZM223.129 112.225C221.846 112.225 220.737 111.975 219.804 111.475C218.887 110.958 218.171 110.233 217.654 109.3C217.154 108.367 216.904 107.25 216.904 105.95C216.904 104.683 217.154 103.583 217.654 102.65C218.154 101.7 218.837 100.958 219.704 100.425C220.587 99.8917 221.604 99.625 222.754 99.625C223.854 99.625 224.796 99.8667 225.579 100.35C226.362 100.833 226.962 101.517 227.379 102.4C227.812 103.283 228.029 104.342 228.029 105.575V106.35H218.454V105.025H226.679L226.279 105.35C226.279 104.017 225.979 102.983 225.379 102.25C224.796 101.5 223.937 101.125 222.804 101.125C221.954 101.125 221.229 101.325 220.629 101.725C220.046 102.108 219.604 102.65 219.304 103.35C219.004 104.033 218.854 104.833 218.854 105.75V105.9C218.854 106.917 219.012 107.775 219.329 108.475C219.662 109.175 220.154 109.708 220.804 110.075C221.454 110.425 222.229 110.6 223.129 110.6C223.846 110.6 224.537 110.492 225.204 110.275C225.887 110.042 226.529 109.667 227.129 109.15L227.829 110.575C227.279 111.075 226.579 111.475 225.729 111.775C224.879 112.075 224.012 112.225 223.129 112.225ZM235.185 112.225C233.951 112.225 233.018 111.858 232.385 111.125C231.768 110.392 231.46 109.342 231.46 107.975V94.375H233.485V107.825C233.485 108.408 233.56 108.9 233.71 109.3C233.876 109.7 234.118 110 234.435 110.2C234.751 110.4 235.143 110.5 235.61 110.5C235.81 110.5 236.001 110.492 236.185 110.475C236.385 110.442 236.568 110.4 236.735 110.35L236.685 112.05C236.418 112.1 236.16 112.142 235.91 112.175C235.676 112.208 235.435 112.225 235.185 112.225ZM243.86 112.225C242.777 112.225 241.827 111.967 241.01 111.45C240.21 110.933 239.585 110.208 239.135 109.275C238.702 108.325 238.485 107.208 238.485 105.925C238.485 104.625 238.702 103.508 239.135 102.575C239.585 101.625 240.21 100.9 241.01 100.4C241.827 99.8833 242.777 99.625 243.86 99.625C244.96 99.625 245.902 99.9 246.685 100.45C247.468 101 247.993 101.742 248.26 102.675H247.985V94.375H250.01V112H248.035V109.1H248.285C248.018 110.05 247.485 110.808 246.685 111.375C245.902 111.942 244.96 112.225 243.86 112.225ZM244.285 110.6C245.435 110.6 246.343 110.2 247.01 109.4C247.693 108.583 248.035 107.425 248.035 105.925C248.035 104.408 247.693 103.25 247.01 102.45C246.343 101.65 245.435 101.25 244.285 101.25C243.152 101.25 242.243 101.65 241.56 102.45C240.877 103.25 240.535 104.408 240.535 105.925C240.535 107.425 240.877 108.583 241.56 109.4C242.243 110.2 243.152 110.6 244.285 110.6ZM258.41 112.225C257.777 112.225 257.16 112.158 256.56 112.025C255.977 111.908 255.427 111.742 254.91 111.525C254.41 111.292 253.977 111.017 253.61 110.7L254.26 109.275C254.66 109.592 255.093 109.858 255.56 110.075C256.027 110.275 256.502 110.425 256.985 110.525C257.468 110.625 257.96 110.675 258.46 110.675C259.41 110.675 260.127 110.5 260.61 110.15C261.093 109.8 261.335 109.325 261.335 108.725C261.335 108.258 261.177 107.892 260.86 107.625C260.543 107.342 260.043 107.125 259.36 106.975L257.085 106.475C256.035 106.258 255.252 105.883 254.735 105.35C254.235 104.817 253.985 104.125 253.985 103.275C253.985 102.525 254.177 101.883 254.56 101.35C254.96 100.8 255.518 100.375 256.235 100.075C256.952 99.775 257.785 99.625 258.735 99.625C259.302 99.625 259.843 99.6833 260.36 99.8C260.877 99.9167 261.36 100.092 261.81 100.325C262.277 100.542 262.677 100.817 263.01 101.15L262.335 102.575C262.018 102.275 261.66 102.025 261.26 101.825C260.86 101.608 260.443 101.45 260.01 101.35C259.593 101.233 259.168 101.175 258.735 101.175C257.802 101.175 257.093 101.358 256.61 101.725C256.127 102.092 255.885 102.575 255.885 103.175C255.885 103.642 256.035 104.025 256.335 104.325C256.635 104.625 257.102 104.842 257.735 104.975L260.01 105.45C261.093 105.683 261.902 106.058 262.435 106.575C262.985 107.075 263.26 107.758 263.26 108.625C263.26 109.358 263.06 110 262.66 110.55C262.26 111.083 261.693 111.5 260.96 111.8C260.243 112.083 259.393 112.225 258.41 112.225Z" fill="#FA91A5"/>
<path d="M132.35 111.125L132.606 110.695L132.606 110.695L132.35 111.125ZM129.5 108L129.049 108.217L129.052 108.221L129.5 108ZM129.5 98.375L129.052 98.1536L129.051 98.1559L129.5 98.375ZM132.35 95.25L132.606 95.6798L132.606 95.6798L132.35 95.25ZM140.175 94.725L140.001 95.1938L140.001 95.1938L140.175 94.725ZM142.775 96.4L143.226 96.6155L143.375 96.3043L143.137 96.0548L142.775 96.4ZM141.975 98.075L141.634 98.4403L142.132 98.9063L142.426 98.2905L141.975 98.075ZM139.575 96.525L139.386 96.9881L139.397 96.9924L139.575 96.525ZM132.3 97.9L132.683 98.2216L132.683 98.2216L132.3 97.9ZM132.3 108.475L131.915 108.794L131.917 108.797L132.3 108.475ZM139.575 109.875L139.756 110.341L139.761 110.339L139.575 109.875ZM141.975 108.3L142.426 108.085L142.132 107.469L141.634 107.935L141.975 108.3ZM142.775 109.975L143.133 110.324L143.377 110.075L143.226 109.76L142.775 109.975ZM140.175 111.65L140.349 112.119L140.355 112.116L140.175 111.65ZM136.8 111.725C135.138 111.725 133.747 111.374 132.606 110.695L132.094 111.555C133.42 112.343 134.995 112.725 136.8 112.725V111.725ZM132.606 110.695C131.459 110.014 130.574 109.046 129.948 107.779L129.052 108.221C129.759 109.654 130.774 110.77 132.094 111.555L132.606 110.695ZM129.951 107.783C129.34 106.515 129.025 104.985 129.025 103.175H128.025C128.025 105.099 128.36 106.785 129.049 108.217L129.951 107.783ZM129.025 103.175C129.025 101.365 129.34 99.8439 129.949 98.5941L129.051 98.1559C128.36 99.5728 128.025 101.252 128.025 103.175H129.025ZM129.948 98.5964C130.574 97.3285 131.459 96.3612 132.606 95.6798L132.094 94.8202C130.774 95.6054 129.759 96.7215 129.052 98.1536L129.948 98.5964ZM132.606 95.6798C133.747 95.0011 135.138 94.65 136.8 94.65V93.65C134.995 93.65 133.42 94.0322 132.094 94.8202L132.606 95.6798ZM136.8 94.65C137.963 94.65 139.029 94.8331 140.001 95.1938L140.349 94.2562C139.254 93.8502 138.07 93.65 136.8 93.65V94.65ZM140.001 95.1938C140.97 95.5531 141.77 96.0715 142.413 96.7452L143.137 96.0548C142.38 95.2619 141.447 94.6636 140.349 94.2562L140.001 95.1938ZM142.324 96.1845L141.524 97.8595L142.426 98.2905L143.226 96.6155L142.324 96.1845ZM142.316 97.7097C141.511 96.9564 140.656 96.4011 139.753 96.0576L139.397 96.9924C140.16 97.2823 140.906 97.7602 141.634 98.4403L142.316 97.7097ZM139.764 96.0621C138.88 95.7012 137.906 95.525 136.85 95.525V96.525C137.794 96.525 138.637 96.6821 139.386 96.9879L139.764 96.0621ZM136.85 95.525C134.754 95.525 133.082 96.1911 131.917 97.5784L132.683 98.2216C133.618 97.1089 134.98 96.525 136.85 96.525V95.525ZM131.917 97.5784C130.767 98.948 130.225 100.836 130.225 103.175H131.225C131.225 100.981 131.733 99.352 132.683 98.2216L131.917 97.5784ZM130.225 103.175C130.225 105.514 130.767 107.409 131.915 108.794L132.685 108.156C131.733 107.008 131.225 105.369 131.225 103.175H130.225ZM131.917 108.797C133.082 110.184 134.754 110.85 136.85 110.85V109.85C134.98 109.85 133.618 109.266 132.683 108.153L131.917 108.797ZM136.85 110.85C137.903 110.85 138.874 110.683 139.756 110.341L139.394 109.409C138.643 109.7 137.797 109.85 136.85 109.85V110.85ZM139.761 110.339C140.661 109.979 141.512 109.417 142.316 108.665L141.634 107.935C140.905 108.616 140.156 109.104 139.389 109.411L139.761 110.339ZM141.524 108.515L142.324 110.19L143.226 109.76L142.426 108.085L141.524 108.515ZM142.417 109.626C141.772 110.286 140.968 110.807 139.995 111.184L140.355 112.116C141.448 111.693 142.378 111.097 143.133 110.324L142.417 109.626ZM140.001 111.181C139.029 111.542 137.963 111.725 136.8 111.725V112.725C138.07 112.725 139.254 112.525 140.349 112.119L140.001 111.181ZM147.146 111.125L146.764 111.447L146.768 111.452L147.146 111.125ZM146.221 94.375V93.875H145.721V94.375H146.221ZM148.246 94.375H148.746V93.875H148.246V94.375ZM148.471 109.3L148.003 109.476L148.006 109.484L148.01 109.492L148.471 109.3ZM149.196 110.2L148.929 110.623L148.929 110.623L149.196 110.2ZM150.946 110.475L150.992 110.973L151.01 110.971L151.028 110.968L150.946 110.475ZM151.496 110.35L151.996 110.365L152.016 109.672L151.353 109.871L151.496 110.35ZM151.446 112.05L151.538 112.541L151.934 112.467L151.946 112.065L151.446 112.05ZM150.671 112.175L150.605 111.679L150.601 111.68L150.671 112.175ZM149.946 111.725C148.816 111.725 148.038 111.393 147.525 110.798L146.768 111.452C147.521 112.324 148.61 112.725 149.946 112.725V111.725ZM147.529 110.803C147.015 110.192 146.721 109.273 146.721 107.975H145.721C145.721 109.41 146.045 110.592 146.764 111.447L147.529 110.803ZM146.721 107.975V94.375H145.721V107.975H146.721ZM146.221 94.875H148.246V93.875H146.221V94.875ZM147.746 94.375V107.825H148.746V94.375H147.746ZM147.746 107.825C147.746 108.448 147.826 109.003 148.003 109.476L148.939 109.124C148.817 108.797 148.746 108.369 148.746 107.825H147.746ZM148.01 109.492C148.21 109.972 148.512 110.36 148.929 110.623L149.463 109.777C149.247 109.64 149.066 109.428 148.933 109.108L148.01 109.492ZM148.929 110.623C149.343 110.884 149.833 111 150.371 111V110C149.976 110 149.682 109.916 149.463 109.777L148.929 110.623ZM150.371 111C150.585 111 150.792 110.991 150.992 110.973L150.901 109.977C150.734 109.992 150.557 110 150.371 110V111ZM151.028 110.968C151.246 110.932 151.45 110.886 151.64 110.829L151.353 109.871C151.209 109.914 151.047 109.951 150.864 109.982L151.028 110.968ZM150.997 110.335L150.947 112.035L151.946 112.065L151.996 110.365L150.997 110.335ZM151.354 111.559C151.095 111.607 150.846 111.647 150.605 111.679L150.737 112.671C150.997 112.636 151.264 112.593 151.538 112.541L151.354 111.559ZM150.601 111.68C150.392 111.71 150.174 111.725 149.946 111.725V112.725C150.219 112.725 150.484 112.707 150.742 112.67L150.601 111.68ZM156.147 111.475L155.901 111.911L155.911 111.916L156.147 111.475ZM153.997 109.3L153.556 109.536L153.559 109.542L153.997 109.3ZM153.997 102.65L154.437 102.886L154.439 102.883L153.997 102.65ZM156.047 100.425L155.788 99.997L155.785 99.9992L156.047 100.425ZM161.922 100.35L161.659 100.776L161.659 100.776L161.922 100.35ZM163.722 102.4L163.269 102.613L163.273 102.62L163.722 102.4ZM164.372 106.35V106.85H164.872V106.35H164.372ZM154.797 106.35H154.297V106.85H154.797V106.35ZM154.797 105.025V104.525H154.297V105.025H154.797ZM163.022 105.025L163.337 105.413L164.43 104.525H163.022V105.025ZM162.622 105.35H162.122V106.4L162.937 105.738L162.622 105.35ZM161.722 102.25L161.327 102.557L161.335 102.567L161.722 102.25ZM156.972 101.725L157.246 102.143L157.249 102.141L156.972 101.725ZM155.647 103.35L156.105 103.551L156.106 103.547L155.647 103.35ZM155.672 108.475L155.216 108.681L155.22 108.69L155.672 108.475ZM157.147 110.075L156.901 110.511L156.91 110.515L157.147 110.075ZM161.547 110.275L161.701 110.751L161.708 110.748L161.547 110.275ZM163.472 109.15L163.92 108.93L163.635 108.349L163.145 108.771L163.472 109.15ZM164.172 110.575L164.508 110.945L164.786 110.692L164.62 110.355L164.172 110.575ZM162.072 111.775L161.905 111.304L161.905 111.304L162.072 111.775ZM159.472 111.725C158.253 111.725 157.23 111.488 156.383 111.034L155.911 111.916C156.93 112.462 158.123 112.725 159.472 112.725V111.725ZM156.392 111.039C155.557 110.569 154.907 109.911 154.434 109.058L153.559 109.542C154.12 110.555 154.903 111.348 155.901 111.911L156.392 111.039ZM154.437 109.064C153.984 108.218 153.747 107.186 153.747 105.95H152.747C152.747 107.314 153.009 108.515 153.556 109.536L154.437 109.064ZM153.747 105.95C153.747 104.75 153.983 103.734 154.437 102.886L153.556 102.414C153.01 103.433 152.747 104.617 152.747 105.95H153.747ZM154.439 102.883C154.9 102.008 155.523 101.335 156.309 100.851L155.785 99.9992C154.837 100.582 154.094 101.392 153.554 102.417L154.439 102.883ZM156.305 100.853C157.102 100.372 158.027 100.125 159.097 100.125V99.125C157.866 99.125 156.758 99.4113 155.788 99.997L156.305 100.853ZM159.097 100.125C160.122 100.125 160.969 100.35 161.659 100.776L162.184 99.9245C161.308 99.3837 160.271 99.125 159.097 99.125V100.125ZM161.659 100.776C162.355 101.205 162.891 101.812 163.269 102.613L164.174 102.187C163.719 101.221 163.055 100.462 162.184 99.9245L161.659 100.776ZM163.273 102.62C163.665 103.42 163.872 104.399 163.872 105.575H164.872C164.872 104.284 164.645 103.147 164.171 102.18L163.273 102.62ZM163.872 105.575V106.35H164.872V105.575H163.872ZM164.372 105.85H154.797V106.85H164.372V105.85ZM155.297 106.35V105.025H154.297V106.35H155.297ZM154.797 105.525H163.022V104.525H154.797V105.525ZM162.706 104.637L162.306 104.962L162.937 105.738L163.337 105.413L162.706 104.637ZM163.122 105.35C163.122 103.948 162.806 102.786 162.109 101.933L161.335 102.567C161.837 103.18 162.122 104.086 162.122 105.35H163.122ZM162.116 101.943C161.42 101.047 160.401 100.625 159.147 100.625V101.625C160.159 101.625 160.857 101.953 161.327 102.557L162.116 101.943ZM159.147 100.625C158.216 100.625 157.39 100.845 156.694 101.309L157.249 102.141C157.753 101.805 158.377 101.625 159.147 101.625V100.625ZM156.697 101.307C156.024 101.749 155.522 102.371 155.187 103.153L156.106 103.547C156.371 102.929 156.752 102.467 157.246 102.143L156.697 101.307ZM155.189 103.149C154.855 103.908 154.697 104.78 154.697 105.75H155.697C155.697 104.887 155.838 104.158 156.105 103.551L155.189 103.149ZM154.697 105.75V105.9H155.697V105.75H154.697ZM154.697 105.9C154.697 106.966 154.862 107.899 155.216 108.681L156.127 108.269C155.848 107.651 155.697 106.867 155.697 105.9H154.697ZM155.22 108.69C155.596 109.479 156.158 110.091 156.901 110.51L157.392 109.64C156.836 109.325 156.414 108.871 156.123 108.26L155.22 108.69ZM156.91 110.515C157.647 110.912 158.507 111.1 159.472 111.1V110.1C158.636 110.1 157.947 109.938 157.384 109.635L156.91 110.515ZM159.472 111.1C160.24 111.1 160.984 110.984 161.701 110.751L161.392 109.799C160.776 110 160.137 110.1 159.472 110.1V111.1ZM161.708 110.748C162.458 110.492 163.154 110.083 163.798 109.529L163.145 108.771C162.589 109.25 162.002 109.591 161.385 109.802L161.708 110.748ZM163.023 109.37L163.723 110.795L164.62 110.355L163.92 108.93L163.023 109.37ZM163.835 110.205C163.344 110.652 162.705 111.021 161.905 111.304L162.238 112.246C163.138 111.929 163.899 111.498 164.508 110.945L163.835 110.205ZM161.905 111.304C161.108 111.585 160.297 111.725 159.472 111.725V112.725C160.413 112.725 161.336 112.565 162.238 112.246L161.905 111.304ZM169.377 111.75L169.149 112.195L169.156 112.198L169.163 112.202L169.377 111.75ZM167.827 110.4L168.241 110.12L168.241 110.12L167.827 110.4ZM167.927 106.375L167.556 106.04L167.55 106.047L167.927 106.375ZM170.202 105.275L170.103 104.785L170.101 104.785L170.202 105.275ZM175.677 104.95H176.177V104.45H175.677V104.95ZM175.677 106.275V106.775H176.177V106.275H175.677ZM172.027 106.375L172.076 106.873L172.076 106.873L172.027 106.375ZM169.552 107.375L169.976 107.64L169.976 107.64L169.552 107.375ZM170.002 110.05L169.662 110.416L169.669 110.422L170.002 110.05ZM173.702 110.225L173.441 109.799L173.435 109.803L173.702 110.225ZM174.902 108.925L174.463 108.686L174.458 108.696L174.902 108.925ZM174.727 101.95L174.354 102.283L174.36 102.29L174.727 101.95ZM170.552 101.575L170.693 102.055L170.703 102.052L170.552 101.575ZM168.452 102.575L168.001 102.789L168.246 103.306L168.725 102.994L168.452 102.575ZM167.752 101.1L167.468 100.689L167.119 100.931L167.301 101.314L167.752 101.1ZM169.227 100.325L169.411 100.79L169.423 100.785L169.227 100.325ZM175.277 100.15L175.049 100.595L175.058 100.599L175.277 100.15ZM176.802 101.7L176.351 101.915L176.353 101.919L176.802 101.7ZM177.302 112V112.5H177.802V112H177.302ZM175.402 112H174.902V112.5H175.402V112ZM175.402 109.175V108.675H174.902V109.175H175.402ZM175.627 109.175L176.117 109.278L176.244 108.675H175.627V109.175ZM174.852 110.8L174.472 110.476L174.465 110.484L174.852 110.8ZM173.477 111.85L173.27 111.395L173.27 111.395L173.477 111.85ZM171.627 111.725C170.859 111.725 170.183 111.579 169.592 111.298L169.163 112.202C169.905 112.554 170.729 112.725 171.627 112.725V111.725ZM169.606 111.305C169.025 111.007 168.574 110.612 168.241 110.12L167.413 110.68C167.847 111.321 168.43 111.826 169.149 112.195L169.606 111.305ZM168.241 110.12C167.915 109.638 167.752 109.103 167.752 108.5H166.752C166.752 109.297 166.973 110.029 167.413 110.68L168.241 110.12ZM167.752 108.5C167.752 107.682 167.956 107.104 168.304 106.703L167.55 106.047C166.999 106.68 166.752 107.518 166.752 108.5H167.752ZM168.298 106.71C168.665 106.305 169.305 105.971 170.303 105.765L170.101 104.785C169 105.013 168.123 105.412 167.556 106.04L168.298 106.71ZM170.302 105.765C171.321 105.558 172.733 105.45 174.552 105.45V104.45C172.705 104.45 171.217 104.559 170.103 104.785L170.302 105.765ZM174.552 105.45H175.677V104.45H174.552V105.45ZM175.177 104.95V106.275H176.177V104.95H175.177ZM175.677 105.775H174.577V106.775H175.677V105.775ZM174.577 105.775C173.551 105.775 172.684 105.809 171.979 105.877L172.076 106.873C172.737 106.808 173.57 106.775 174.577 106.775V105.775ZM171.979 105.877C171.271 105.946 170.675 106.07 170.21 106.263L170.595 107.187C170.93 107.047 171.417 106.937 172.076 106.873L171.979 105.877ZM170.21 106.263C169.75 106.455 169.367 106.728 169.128 107.11L169.976 107.64C170.071 107.489 170.255 107.328 170.595 107.187L170.21 106.263ZM169.128 107.11C168.9 107.475 168.802 107.907 168.802 108.375H169.802C169.802 108.043 169.871 107.808 169.976 107.64L169.128 107.11ZM168.802 108.375C168.802 109.186 169.086 109.881 169.662 110.416L170.343 109.684C169.986 109.352 169.802 108.931 169.802 108.375H168.802ZM169.669 110.422C170.266 110.957 171.045 111.2 171.952 111.2V110.2C171.226 110.2 170.706 110.009 170.336 109.678L169.669 110.422ZM171.952 111.2C172.701 111.2 173.38 111.021 173.97 110.647L173.435 109.803C173.025 110.062 172.537 110.2 171.952 110.2V111.2ZM173.964 110.651C174.56 110.286 175.023 109.783 175.347 109.154L174.458 108.696C174.215 109.167 173.878 109.531 173.441 109.799L173.964 110.651ZM175.341 109.164C175.687 108.531 175.852 107.813 175.852 107.025H174.852C174.852 107.67 174.718 108.219 174.463 108.686L175.341 109.164ZM175.852 107.025V104.175H174.852V107.025H175.852ZM175.852 104.175C175.852 103.096 175.639 102.198 175.094 101.61L174.36 102.29C174.649 102.602 174.852 103.187 174.852 104.175H175.852ZM175.1 101.617C174.549 100.999 173.696 100.75 172.677 100.75V101.75C173.559 101.75 174.073 101.967 174.354 102.283L175.1 101.617ZM172.677 100.75C171.894 100.75 171.135 100.866 170.401 101.098L170.703 102.052C171.337 101.851 171.994 101.75 172.677 101.75V100.75ZM170.412 101.095C169.673 101.311 168.929 101.668 168.18 102.156L168.725 102.994C169.409 102.549 170.065 102.239 170.693 102.055L170.412 101.095ZM168.904 102.361L168.204 100.886L167.301 101.314L168.001 102.789L168.904 102.361ZM168.037 101.511C168.435 101.235 168.892 100.994 169.411 100.79L169.044 99.8598C168.463 100.089 167.936 100.365 167.468 100.689L168.037 101.511ZM169.423 100.785C169.94 100.566 170.481 100.401 171.048 100.291L170.857 99.3092C170.223 99.4324 169.615 99.6174 169.032 99.8647L169.423 100.785ZM171.048 100.291C171.62 100.18 172.163 100.125 172.677 100.125V99.125C172.092 99.125 171.485 99.1871 170.857 99.3092L171.048 100.291ZM172.677 100.125C173.676 100.125 174.458 100.292 175.049 100.595L175.505 99.705C174.73 99.3081 173.779 99.125 172.677 99.125V100.125ZM175.058 100.599C175.638 100.882 176.065 101.315 176.351 101.915L177.254 101.485C176.873 100.685 176.284 100.085 175.497 99.7006L175.058 100.599ZM176.353 101.919C176.642 102.512 176.802 103.313 176.802 104.35H177.802C177.802 103.221 177.629 102.255 177.252 101.481L176.353 101.919ZM176.802 104.35V112H177.802V104.35H176.802ZM177.302 111.5H175.402V112.5H177.302V111.5ZM175.902 112V109.175H174.902V112H175.902ZM175.402 109.675H175.627V108.675H175.402V109.675ZM175.138 109.072C175.02 109.632 174.796 110.095 174.472 110.476L175.233 111.124C175.675 110.605 175.968 109.985 176.117 109.278L175.138 109.072ZM174.465 110.484C174.149 110.872 173.753 111.175 173.27 111.395L173.684 112.305C174.301 112.025 174.823 111.628 175.24 111.116L174.465 110.484ZM173.27 111.395C172.793 111.612 172.249 111.725 171.627 111.725V112.725C172.373 112.725 173.061 112.588 173.684 112.305L173.27 111.395ZM181.559 112H181.059V112.5H181.559V112ZM181.559 99.85V99.35H181.059V99.85H181.559ZM183.534 99.85H184.034V99.35H183.534V99.85ZM183.534 102.55V103.05H184.034V102.55H183.534ZM183.259 102.55L182.789 102.38L182.546 103.05H183.259V102.55ZM184.959 100.375L185.222 100.801L185.224 100.799L184.959 100.375ZM190.109 100.15L189.867 100.588L189.874 100.591L189.881 100.595L190.109 100.15ZM191.559 101.725L191.102 101.927L191.102 101.927L191.559 101.725ZM192.034 112V112.5H192.534V112H192.034ZM190.009 112H189.509V112.5H190.009V112ZM189.709 102.7L189.242 102.877L189.244 102.884L189.247 102.891L189.709 102.7ZM188.809 101.625L188.557 102.057L188.565 102.061L188.809 101.625ZM185.309 101.75L185.559 102.183L185.559 102.183L185.309 101.75ZM184.034 103.075L184.476 103.309L184.476 103.309L184.034 103.075ZM183.584 112V112.5H184.084V112H183.584ZM182.059 112V99.85H181.059V112H182.059ZM181.559 100.35H183.534V99.35H181.559V100.35ZM183.034 99.85V102.55H184.034V99.85H183.034ZM183.534 102.05H183.259V103.05H183.534V102.05ZM183.729 102.72C184.046 101.847 184.546 101.218 185.222 100.801L184.697 99.9495C183.806 100.499 183.173 101.32 182.789 102.38L183.729 102.72ZM185.224 100.799C185.937 100.353 186.76 100.125 187.709 100.125V99.125C186.591 99.125 185.581 99.3966 184.694 99.951L185.224 100.799ZM187.709 100.125C188.619 100.125 189.329 100.29 189.867 100.588L190.351 99.7124C189.623 99.31 188.733 99.125 187.709 99.125V100.125ZM189.881 100.595C190.421 100.872 190.828 101.307 191.102 101.927L192.017 101.523C191.657 100.71 191.097 100.095 190.337 99.7051L189.881 100.595ZM191.102 101.927C191.382 102.561 191.534 103.386 191.534 104.425H192.534C192.534 103.297 192.37 102.323 192.017 101.523L191.102 101.927ZM191.534 104.425V112H192.534V104.425H191.534ZM192.034 111.5H190.009V112.5H192.034V111.5ZM190.509 112V104.55H189.509V112H190.509ZM190.509 104.55C190.509 103.761 190.405 103.073 190.171 102.509L189.247 102.891C189.414 103.294 189.509 103.839 189.509 104.55H190.509ZM190.177 102.523C189.955 101.939 189.581 101.484 189.053 101.189L188.565 102.061C188.87 102.232 189.096 102.494 189.242 102.877L190.177 102.523ZM189.061 101.193C188.56 100.901 187.939 100.775 187.234 100.775V101.775C187.83 101.775 188.258 101.883 188.557 102.057L189.061 101.193ZM187.234 100.775C186.427 100.775 185.697 100.95 185.06 101.317L185.559 102.183C186.022 101.917 186.575 101.775 187.234 101.775V100.775ZM185.06 101.317C184.427 101.681 183.936 102.192 183.592 102.841L184.476 103.309C184.732 102.825 185.091 102.452 185.559 102.183L185.06 101.317ZM183.592 102.841C183.247 103.493 183.084 104.243 183.084 105.075H184.084C184.084 104.374 184.221 103.791 184.476 103.309L183.592 102.841ZM183.084 105.075V112H184.084V105.075H183.084ZM183.584 111.5H181.559V112.5H183.584V111.5ZM203.839 112H203.339V112.5H203.839V112ZM203.839 101.425H204.339V100.925H203.839V101.425ZM201.439 101.425H200.939V101.925H201.439V101.425ZM201.439 99.85V99.35H200.939V99.85H201.439ZM204.389 99.85L204.734 100.212L205.637 99.35H204.389V99.85ZM203.839 100.375H203.339V101.543L204.184 100.737L203.839 100.375ZM205.039 95.75L204.682 95.4L204.678 95.4037L205.039 95.75ZM208.789 94.35L208.762 93.8507L208.759 93.8509L208.789 94.35ZM209.714 94.3L210.212 94.2604L210.174 93.7744L209.687 93.8007L209.714 94.3ZM209.839 95.875L209.863 96.3744L210.378 96.3499L210.337 95.8354L209.839 95.875ZM208.789 95.925L208.765 95.4256L208.765 95.4256L208.789 95.925ZM207.114 96.375L207.364 96.8081L207.37 96.8045L207.376 96.8008L207.114 96.375ZM206.164 97.45L205.704 97.253L205.704 97.253L206.164 97.45ZM205.864 99.85V99.35H205.364V99.85H205.864ZM213.364 99.85H213.864V99.35H213.364V99.85ZM213.364 112V112.5H213.864V112H213.364ZM211.339 112H210.839V112.5H211.339V112ZM211.339 101.425H211.839V100.925H211.339V101.425ZM205.864 101.425V100.925H205.364V101.425H205.864ZM205.864 112V112.5H206.364V112H205.864ZM211.114 96.825H210.614V97.325H211.114V96.825ZM211.114 94.55V94.05H210.614V94.55H211.114ZM213.589 94.55H214.089V94.05H213.589V94.55ZM213.589 96.825V97.325H214.089V96.825H213.589ZM204.339 112V101.425H203.339V112H204.339ZM203.839 100.925H201.439V101.925H203.839V100.925ZM201.939 101.425V99.85H200.939V101.425H201.939ZM201.439 100.35H204.389V99.35H201.439V100.35ZM204.044 99.4883L203.494 100.013L204.184 100.737L204.734 100.212L204.044 99.4883ZM204.339 100.375V99.425H203.339V100.375H204.339ZM204.339 99.425C204.339 97.8854 204.72 96.8047 205.4 96.0963L204.678 95.4037C203.758 96.3619 203.339 97.7313 203.339 99.425H204.339ZM205.396 96.1C206.094 95.3878 207.205 94.945 208.819 94.8491L208.759 93.8509C207.007 93.955 205.617 94.4456 204.682 95.4L205.396 96.1ZM208.816 94.8493L209.741 94.7993L209.687 93.8007L208.762 93.8507L208.816 94.8493ZM209.216 94.3396L209.341 95.9146L210.337 95.8354L210.212 94.2604L209.216 94.3396ZM209.815 95.3756L208.765 95.4256L208.813 96.4244L209.863 96.3744L209.815 95.3756ZM208.765 95.4256C208.025 95.4617 207.378 95.6257 206.852 95.9492L207.376 96.8008C207.717 96.5909 208.186 96.455 208.813 96.4244L208.765 95.4256ZM206.864 95.9419C206.336 96.2468 205.946 96.6887 205.704 97.253L206.624 97.647C206.782 97.278 207.026 97.0032 207.364 96.8081L206.864 95.9419ZM205.704 97.253C205.47 97.7995 205.364 98.4461 205.364 99.175H206.364C206.364 98.5373 206.458 98.0339 206.624 97.647L205.704 97.253ZM205.364 99.175V100.125H206.364V99.175H205.364ZM206.364 100.125V99.85H205.364V100.125H206.364ZM205.864 100.35H213.364V99.35H205.864V100.35ZM212.864 99.85V112H213.864V99.85H212.864ZM213.364 111.5H211.339V112.5H213.364V111.5ZM211.839 112V101.425H210.839V112H211.839ZM211.339 100.925H205.864V101.925H211.339V100.925ZM205.364 101.425V112H206.364V101.425H205.364ZM205.864 111.5H203.839V112.5H205.864V111.5ZM211.614 96.825V94.55H210.614V96.825H211.614ZM211.114 95.05H213.589V94.05H211.114V95.05ZM213.089 94.55V96.825H214.089V94.55H213.089ZM213.589 96.325H211.114V97.325H213.589V96.325ZM219.804 111.475L219.558 111.911L219.568 111.916L219.804 111.475ZM217.654 109.3L217.213 109.536L217.216 109.542L217.654 109.3ZM217.654 102.65L218.095 102.886L218.096 102.883L217.654 102.65ZM219.704 100.425L219.445 99.997L219.442 99.9992L219.704 100.425ZM225.579 100.35L225.316 100.776L225.316 100.776L225.579 100.35ZM227.379 102.4L226.927 102.613L226.93 102.62L227.379 102.4ZM228.029 106.35V106.85H228.529V106.35H228.029ZM218.454 106.35H217.954V106.85H218.454V106.35ZM218.454 105.025V104.525H217.954V105.025H218.454ZM226.679 105.025L226.994 105.413L228.087 104.525H226.679V105.025ZM226.279 105.35H225.779V106.4L226.594 105.738L226.279 105.35ZM225.379 102.25L224.984 102.557L224.992 102.567L225.379 102.25ZM220.629 101.725L220.904 102.143L220.906 102.141L220.629 101.725ZM219.304 103.35L219.762 103.551L219.763 103.547L219.304 103.35ZM219.329 108.475L218.873 108.681L218.877 108.69L219.329 108.475ZM220.804 110.075L220.558 110.511L220.567 110.515L220.804 110.075ZM225.204 110.275L225.358 110.751L225.365 110.748L225.204 110.275ZM227.129 109.15L227.578 108.93L227.293 108.349L226.803 108.771L227.129 109.15ZM227.829 110.575L228.165 110.945L228.443 110.692L228.278 110.355L227.829 110.575ZM225.729 111.775L225.562 111.304L225.562 111.304L225.729 111.775ZM223.129 111.725C221.911 111.725 220.887 111.488 220.04 111.034L219.568 111.916C220.588 112.462 221.781 112.725 223.129 112.725V111.725ZM220.049 111.039C219.215 110.569 218.564 109.911 218.091 109.058L217.216 109.542C217.777 110.555 218.56 111.348 219.558 111.911L220.049 111.039ZM218.095 109.064C217.641 108.218 217.404 107.186 217.404 105.95H216.404C216.404 107.314 216.666 108.515 217.213 109.536L218.095 109.064ZM217.404 105.95C217.404 104.75 217.641 103.734 218.095 102.886L217.213 102.414C216.667 103.433 216.404 104.617 216.404 105.95H217.404ZM218.096 102.883C218.557 102.008 219.18 101.335 219.966 100.851L219.442 99.9992C218.495 100.582 217.751 101.392 217.211 102.417L218.096 102.883ZM219.962 100.853C220.759 100.372 221.684 100.125 222.754 100.125V99.125C221.524 99.125 220.415 99.4113 219.445 99.997L219.962 100.853ZM222.754 100.125C223.779 100.125 224.626 100.35 225.316 100.776L225.841 99.9245C224.965 99.3837 223.928 99.125 222.754 99.125V100.125ZM225.316 100.776C226.012 101.205 226.549 101.812 226.927 102.613L227.831 102.187C227.376 101.221 226.712 100.462 225.841 99.9245L225.316 100.776ZM226.93 102.62C227.322 103.42 227.529 104.399 227.529 105.575H228.529C228.529 104.284 228.302 103.147 227.828 102.18L226.93 102.62ZM227.529 105.575V106.35H228.529V105.575H227.529ZM228.029 105.85H218.454V106.85H228.029V105.85ZM218.954 106.35V105.025H217.954V106.35H218.954ZM218.454 105.525H226.679V104.525H218.454V105.525ZM226.364 104.637L225.964 104.962L226.594 105.738L226.994 105.413L226.364 104.637ZM226.779 105.35C226.779 103.948 226.464 102.786 225.766 101.933L224.992 102.567C225.494 103.18 225.779 104.086 225.779 105.35H226.779ZM225.774 101.943C225.077 101.047 224.058 100.625 222.804 100.625V101.625C223.816 101.625 224.514 101.953 224.984 102.557L225.774 101.943ZM222.804 100.625C221.873 100.625 221.047 100.845 220.352 101.309L220.906 102.141C221.41 101.805 222.035 101.625 222.804 101.625V100.625ZM220.354 101.307C219.682 101.749 219.179 102.371 218.844 103.153L219.763 103.547C220.028 102.929 220.41 102.467 220.903 102.143L220.354 101.307ZM218.846 103.149C218.513 103.908 218.354 104.78 218.354 105.75H219.354C219.354 104.887 219.495 104.158 219.762 103.551L218.846 103.149ZM218.354 105.75V105.9H219.354V105.75H218.354ZM218.354 105.9C218.354 106.966 218.52 107.899 218.873 108.681L219.784 108.269C219.505 107.651 219.354 106.867 219.354 105.9H218.354ZM218.877 108.69C219.253 109.479 219.815 110.091 220.558 110.51L221.05 109.64C220.493 109.325 220.071 108.871 219.78 108.26L218.877 108.69ZM220.567 110.515C221.304 110.912 222.164 111.1 223.129 111.1V110.1C222.294 110.1 221.604 109.938 221.041 109.635L220.567 110.515ZM223.129 111.1C223.897 111.1 224.641 110.984 225.358 110.751L225.049 109.799C224.434 110 223.794 110.1 223.129 110.1V111.1ZM225.365 110.748C226.115 110.492 226.811 110.083 227.455 109.529L226.803 108.771C226.246 109.25 225.66 109.591 225.042 109.802L225.365 110.748ZM226.68 109.37L227.38 110.795L228.278 110.355L227.578 108.93L226.68 109.37ZM227.493 110.205C227.001 110.652 226.363 111.021 225.562 111.304L225.895 112.246C226.795 111.929 227.557 111.498 228.165 110.945L227.493 110.205ZM225.562 111.304C224.765 111.585 223.954 111.725 223.129 111.725V112.725C224.07 112.725 224.993 112.565 225.895 112.246L225.562 111.304ZM232.385 111.125L232.002 111.447L232.006 111.452L232.385 111.125ZM231.46 94.375V93.875H230.96V94.375H231.46ZM233.485 94.375H233.985V93.875H233.485V94.375ZM233.71 109.3L233.241 109.476L233.245 109.484L233.248 109.492L233.71 109.3ZM234.435 110.2L234.168 110.623L234.168 110.623L234.435 110.2ZM236.185 110.475L236.23 110.973L236.248 110.971L236.267 110.968L236.185 110.475ZM236.735 110.35L237.234 110.365L237.255 109.672L236.591 109.871L236.735 110.35ZM236.685 112.05L236.777 112.541L237.173 112.467L237.184 112.065L236.685 112.05ZM235.91 112.175L235.843 111.679L235.839 111.68L235.91 112.175ZM235.185 111.725C234.054 111.725 233.277 111.393 232.763 110.798L232.006 111.452C232.759 112.324 233.849 112.725 235.185 112.725V111.725ZM232.767 110.803C232.253 110.192 231.96 109.273 231.96 107.975H230.96C230.96 109.41 231.283 110.592 232.002 111.447L232.767 110.803ZM231.96 107.975V94.375H230.96V107.975H231.96ZM231.46 94.875H233.485V93.875H231.46V94.875ZM232.985 94.375V107.825H233.985V94.375H232.985ZM232.985 107.825C232.985 108.448 233.064 109.003 233.241 109.476L234.178 109.124C234.055 108.797 233.985 108.369 233.985 107.825H232.985ZM233.248 109.492C233.448 109.972 233.751 110.36 234.168 110.623L234.702 109.777C234.485 109.64 234.305 109.428 234.171 109.108L233.248 109.492ZM234.168 110.623C234.582 110.884 235.072 111 235.61 111V110C235.214 110 234.921 109.916 234.702 109.777L234.168 110.623ZM235.61 111C235.823 111 236.03 110.991 236.23 110.973L236.139 109.977C235.972 109.992 235.796 110 235.61 110V111ZM236.267 110.968C236.484 110.932 236.688 110.886 236.878 110.829L236.591 109.871C236.447 109.914 236.285 109.951 236.102 109.982L236.267 110.968ZM236.235 110.335L236.185 112.035L237.184 112.065L237.234 110.365L236.235 110.335ZM236.592 111.559C236.334 111.607 236.084 111.647 235.843 111.679L235.976 112.671C236.235 112.636 236.502 112.593 236.777 112.541L236.592 111.559ZM235.839 111.68C235.63 111.71 235.412 111.725 235.185 111.725V112.725C235.457 112.725 235.722 112.707 235.98 112.67L235.839 111.68ZM241.01 111.45L240.739 111.87L240.743 111.873L241.01 111.45ZM239.135 109.275L238.68 109.483L238.685 109.492L239.135 109.275ZM239.135 102.575L238.683 102.361L238.681 102.364L239.135 102.575ZM241.01 100.4L241.275 100.824L241.277 100.823L241.01 100.4ZM246.685 100.45L246.398 100.859L246.398 100.859L246.685 100.45ZM248.26 102.675V103.175H248.923L248.741 102.538L248.26 102.675ZM247.985 102.675H247.485V103.175H247.985V102.675ZM247.985 94.375V93.875H247.485V94.375H247.985ZM250.01 94.375H250.51V93.875H250.01V94.375ZM250.01 112V112.5H250.51V112H250.01ZM248.035 112H247.535V112.5H248.035V112ZM248.035 109.1V108.6H247.535V109.1H248.035ZM248.285 109.1L248.766 109.235L248.945 108.6H248.285V109.1ZM246.685 111.375L246.396 110.967L246.392 110.97L246.685 111.375ZM247.01 109.4L246.626 109.079L246.626 109.08L247.01 109.4ZM247.01 102.45L246.626 102.77L246.63 102.775L247.01 102.45ZM241.56 102.45L241.18 102.125L241.18 102.125L241.56 102.45ZM241.56 109.4L241.176 109.721L241.18 109.725L241.56 109.4ZM243.86 111.725C242.859 111.725 242.005 111.488 241.277 111.027L240.743 111.873C241.649 112.446 242.694 112.725 243.86 112.725V111.725ZM241.281 111.03C240.565 110.568 239.999 109.916 239.585 109.058L238.685 109.492C239.171 110.501 239.855 111.299 240.739 111.87L241.281 111.03ZM239.59 109.067C239.192 108.196 238.985 107.153 238.985 105.925H237.985C237.985 107.264 238.211 108.454 238.68 109.483L239.59 109.067ZM238.985 105.925C238.985 104.679 239.193 103.638 239.588 102.786L238.681 102.364C238.211 103.379 237.985 104.571 237.985 105.925H238.985ZM239.587 102.789C240.001 101.915 240.565 101.268 241.275 100.824L240.745 99.976C239.855 100.532 239.169 101.335 238.683 102.361L239.587 102.789ZM241.277 100.823C242.005 100.362 242.859 100.125 243.86 100.125V99.125C242.694 99.125 241.649 99.4042 240.743 99.9775L241.277 100.823ZM243.86 100.125C244.873 100.125 245.711 100.377 246.398 100.859L246.972 100.041C246.093 99.4232 245.047 99.125 243.86 99.125V100.125ZM246.398 100.859C247.086 101.342 247.544 101.987 247.779 102.812L248.741 102.538C248.443 101.496 247.851 100.658 246.972 100.041L246.398 100.859ZM248.26 102.175H247.985V103.175H248.26V102.175ZM248.485 102.675V94.375H247.485V102.675H248.485ZM247.985 94.875H250.01V93.875H247.985V94.875ZM249.51 94.375V112H250.51V94.375H249.51ZM250.01 111.5H248.035V112.5H250.01V111.5ZM248.535 112V109.1H247.535V112H248.535ZM248.035 109.6H248.285V108.6H248.035V109.6ZM247.804 108.965C247.568 109.805 247.102 110.467 246.396 110.967L246.974 111.783C247.868 111.15 248.469 110.295 248.766 109.235L247.804 108.965ZM246.392 110.97C245.705 111.467 244.87 111.725 243.86 111.725V112.725C245.05 112.725 246.098 112.417 246.978 111.78L246.392 110.97ZM244.285 111.1C245.566 111.1 246.622 110.647 247.394 109.72L246.626 109.08C246.065 109.753 245.304 110.1 244.285 110.1V111.1ZM247.393 109.721C248.178 108.784 248.535 107.495 248.535 105.925H247.535C247.535 107.355 247.209 108.383 246.626 109.079L247.393 109.721ZM248.535 105.925C248.535 104.341 248.179 103.049 247.39 102.125L246.63 102.775C247.208 103.451 247.535 104.476 247.535 105.925H248.535ZM247.394 102.13C246.622 101.203 245.566 100.75 244.285 100.75V101.75C245.304 101.75 246.065 102.097 246.626 102.77L247.394 102.13ZM244.285 100.75C243.018 100.75 241.966 101.205 241.18 102.125L241.94 102.775C242.52 102.095 243.285 101.75 244.285 101.75V100.75ZM241.18 102.125C240.391 103.049 240.035 104.341 240.035 105.925H241.035C241.035 104.476 241.362 103.451 241.94 102.775L241.18 102.125ZM240.035 105.925C240.035 107.495 240.392 108.784 241.176 109.721L241.943 109.079C241.361 108.383 241.035 107.355 241.035 105.925H240.035ZM241.18 109.725C241.966 110.645 243.018 111.1 244.285 111.1V110.1C243.285 110.1 242.52 109.755 241.94 109.075L241.18 109.725ZM256.56 112.025L256.669 111.537L256.658 111.535L256.56 112.025ZM254.91 111.525L254.699 111.978L254.708 111.982L254.717 111.986L254.91 111.525ZM253.61 110.7L253.155 110.492L253 110.833L253.283 111.078L253.61 110.7ZM254.26 109.275L254.571 108.883L254.07 108.487L253.805 109.067L254.26 109.275ZM255.56 110.075L255.35 110.529L255.356 110.532L255.363 110.535L255.56 110.075ZM260.61 110.15L260.317 109.745L260.317 109.745L260.61 110.15ZM260.86 107.625L260.527 107.998L260.532 108.003L260.538 108.007L260.86 107.625ZM259.36 106.975L259.253 107.463L259.253 107.463L259.36 106.975ZM257.085 106.475L257.192 105.987L257.186 105.985L257.085 106.475ZM254.735 105.35L254.37 105.692L254.376 105.698L254.735 105.35ZM254.56 101.35L254.156 101.056L254.154 101.058L254.56 101.35ZM256.235 100.075L256.428 100.536L256.428 100.536L256.235 100.075ZM260.36 99.8L260.47 99.3123L260.47 99.3123L260.36 99.8ZM261.81 100.325L261.58 100.769L261.59 100.774L261.6 100.779L261.81 100.325ZM263.01 101.15L263.462 101.364L263.613 101.046L263.364 100.796L263.01 101.15ZM262.335 102.575L261.991 102.938L262.492 103.412L262.787 102.789L262.335 102.575ZM261.26 101.825L261.022 102.265L261.029 102.269L261.037 102.272L261.26 101.825ZM260.01 101.35L259.875 101.831L259.886 101.835L259.898 101.837L260.01 101.35ZM256.61 101.725L256.912 102.123L256.912 102.123L256.61 101.725ZM256.335 104.325L255.982 104.679L255.982 104.679L256.335 104.325ZM257.735 104.975L257.632 105.464L257.633 105.464L257.735 104.975ZM260.01 105.45L260.115 104.961L260.112 104.961L260.01 105.45ZM262.435 106.575L262.087 106.934L262.093 106.94L262.099 106.945L262.435 106.575ZM262.66 110.55L263.06 110.85L263.065 110.844L262.66 110.55ZM260.96 111.8L261.144 112.265L261.149 112.263L260.96 111.8ZM258.41 111.725C257.812 111.725 257.232 111.662 256.669 111.537L256.452 112.513C257.088 112.655 257.741 112.725 258.41 112.725V111.725ZM256.658 111.535C256.106 111.424 255.588 111.267 255.104 111.064L254.717 111.986C255.266 112.216 255.848 112.392 256.462 112.515L256.658 111.535ZM255.122 111.072C254.658 110.855 254.264 110.604 253.937 110.322L253.283 111.078C253.689 111.429 254.163 111.728 254.699 111.978L255.122 111.072ZM254.065 110.908L254.715 109.483L253.805 109.067L253.155 110.492L254.065 110.908ZM253.95 109.667C254.381 110.008 254.848 110.295 255.35 110.529L255.771 109.621C255.339 109.421 254.94 109.175 254.571 108.883L253.95 109.667ZM255.363 110.535C255.86 110.747 256.367 110.908 256.884 111.015L257.086 110.035C256.637 109.942 256.194 109.803 255.757 109.615L255.363 110.535ZM256.884 111.015C257.401 111.122 257.927 111.175 258.46 111.175V110.175C257.994 110.175 257.536 110.128 257.086 110.035L256.884 111.015ZM258.46 111.175C259.458 111.175 260.298 110.994 260.903 110.555L260.317 109.745C259.956 110.006 259.362 110.175 258.46 110.175V111.175ZM260.903 110.555C261.517 110.11 261.835 109.484 261.835 108.725H260.835C260.835 109.166 260.67 109.49 260.317 109.745L260.903 110.555ZM261.835 108.725C261.835 108.132 261.627 107.617 261.182 107.243L260.538 108.007C260.727 108.166 260.835 108.385 260.835 108.725H261.835ZM261.194 107.252C260.784 106.886 260.186 106.644 259.467 106.487L259.253 107.463C259.901 107.606 260.303 107.798 260.527 107.998L261.194 107.252ZM259.467 106.487L257.192 105.987L256.978 106.963L259.253 107.463L259.467 106.487ZM257.186 105.985C256.193 105.78 255.516 105.438 255.094 105.002L254.376 105.698C254.987 106.329 255.877 106.736 256.984 106.965L257.186 105.985ZM255.1 105.008C254.701 104.582 254.485 104.02 254.485 103.275H253.485C253.485 104.23 253.769 105.051 254.37 105.692L255.1 105.008ZM254.485 103.275C254.485 102.614 254.652 102.078 254.966 101.642L254.154 101.058C253.701 101.688 253.485 102.436 253.485 103.275H254.485ZM254.965 101.644C255.303 101.178 255.784 100.806 256.428 100.536L256.042 99.6138C255.253 99.944 254.617 100.422 254.156 101.056L254.965 101.644ZM256.428 100.536C257.072 100.267 257.837 100.125 258.735 100.125V99.125C257.733 99.125 256.832 99.2832 256.042 99.6138L256.428 100.536ZM258.735 100.125C259.267 100.125 259.772 100.18 260.25 100.288L260.47 99.3123C259.915 99.1869 259.336 99.125 258.735 99.125V100.125ZM260.25 100.288C260.727 100.395 261.17 100.556 261.58 100.769L262.04 99.8811C261.551 99.6272 261.027 99.4379 260.47 99.3123L260.25 100.288ZM261.6 100.779C262.018 100.973 262.368 101.215 262.657 101.504L263.364 100.796C262.985 100.418 262.536 100.111 262.021 99.8715L261.6 100.779ZM262.558 100.936L261.883 102.361L262.787 102.789L263.462 101.364L262.558 100.936ZM262.679 102.212C262.326 101.877 261.927 101.599 261.484 101.378L261.037 102.272C261.394 102.451 261.711 102.673 261.991 102.938L262.679 102.212ZM261.498 101.385C261.06 101.148 260.601 100.973 260.123 100.863L259.898 101.837C260.286 101.927 260.661 102.069 261.022 102.265L261.498 101.385ZM260.145 100.869C259.684 100.74 259.214 100.675 258.735 100.675V101.675C259.123 101.675 259.503 101.727 259.875 101.831L260.145 100.869ZM258.735 100.675C257.748 100.675 256.914 100.867 256.308 101.327L256.912 102.123C257.273 101.85 257.856 101.675 258.735 101.675V100.675ZM256.308 101.327C255.702 101.787 255.385 102.417 255.385 103.175H256.385C256.385 102.733 256.552 102.397 256.912 102.123L256.308 101.327ZM255.385 103.175C255.385 103.76 255.578 104.275 255.982 104.679L256.689 103.971C256.492 103.775 256.385 103.524 256.385 103.175H255.385ZM255.982 104.679C256.377 105.074 256.95 105.321 257.632 105.464L257.838 104.486C257.253 104.363 256.893 104.176 256.689 103.971L255.982 104.679ZM257.633 105.464L259.908 105.939L260.112 104.961L257.837 104.486L257.633 105.464ZM259.905 105.939C260.939 106.161 261.646 106.507 262.087 106.934L262.783 106.216C262.157 105.61 261.248 105.205 260.115 104.961L259.905 105.939ZM262.099 106.945C262.527 107.334 262.76 107.874 262.76 108.625H263.76C263.76 107.643 263.443 106.816 262.771 106.205L262.099 106.945ZM262.76 108.625C262.76 109.261 262.589 109.798 262.256 110.256L263.065 110.844C263.532 110.202 263.76 109.455 263.76 108.625H262.76ZM262.26 110.25C261.924 110.698 261.436 111.065 260.771 111.337L261.149 112.263C261.951 111.935 262.596 111.468 263.06 110.85L262.26 110.25ZM260.776 111.335C260.132 111.59 259.347 111.725 258.41 111.725V112.725C259.44 112.725 260.355 112.577 261.144 112.265L260.776 111.335Z" fill="#FA91A5"/>
</g>
</g>
</g>
</svg>
