<svg width="400" height="200" viewBox="0 0 400 200" fill="none" xmlns="http://www.w3.org/2000/svg">
<g id="letsButtonHover">
<g id="button_1_hover">
<path id="back" d="M33 95.8576C33 95.8576 149.566 66.3599 138.271 39.5789C115.972 -13.2914 36.1115 196.96 94.7105 160.786C153.31 124.612 268.433 48.0887 277.249 44.3786C286.065 40.6684 136.197 205.772 211.909 160.786C287.621 115.8 350.887 89.6666 368 95.8576" stroke="#E3D1FA" stroke-opacity="0.8" stroke-width="50" stroke-linecap="round"/>
<rect id="button_1" x="60" y="65" width="280" height="80" rx="12" stroke="#6758B3" stroke-width="5"/>
<g id="Lets_start">
<path d="M142.349 115V95.965H144.563V113.056H154.256V115H142.349ZM163.033 115.243C161.647 115.243 160.45 114.973 159.442 114.433C158.452 113.875 157.678 113.092 157.12 112.084C156.58 111.076 156.31 109.87 156.31 108.466C156.31 107.098 156.58 105.91 157.12 104.902C157.66 103.876 158.398 103.075 159.334 102.499C160.288 101.923 161.386 101.635 162.628 101.635C163.816 101.635 164.833 101.896 165.679 102.418C166.525 102.94 167.173 103.678 167.623 104.632C168.091 105.586 168.325 106.729 168.325 108.061V108.898H157.984V107.467H166.867L166.435 107.818C166.435 106.378 166.111 105.262 165.463 104.47C164.833 103.66 163.906 103.255 162.682 103.255C161.764 103.255 160.981 103.471 160.333 103.903C159.703 104.317 159.226 104.902 158.902 105.658C158.578 106.396 158.416 107.26 158.416 108.25V108.412C158.416 109.51 158.587 110.437 158.929 111.193C159.289 111.949 159.82 112.525 160.522 112.921C161.224 113.299 162.061 113.488 163.033 113.488C163.807 113.488 164.554 113.371 165.274 113.137C166.012 112.885 166.705 112.48 167.353 111.922L168.109 113.461C167.515 114.001 166.759 114.433 165.841 114.757C164.923 115.081 163.987 115.243 163.033 115.243ZM177.295 115.243C175.747 115.243 174.586 114.829 173.812 114.001C173.038 113.173 172.651 111.994 172.651 110.464V103.579H170.086V101.878H172.651V97.855H174.838V101.878H178.996V103.579H174.838V110.248C174.838 111.274 175.054 112.057 175.486 112.597C175.918 113.119 176.62 113.38 177.592 113.38C177.88 113.38 178.168 113.344 178.456 113.272C178.744 113.2 179.005 113.128 179.239 113.056L179.617 114.73C179.383 114.856 179.041 114.973 178.591 115.081C178.141 115.189 177.709 115.243 177.295 115.243ZM182.661 101.824L181.662 101.014C181.986 100.69 182.229 100.375 182.391 100.069C182.571 99.763 182.688 99.466 182.742 99.178C182.814 98.89 182.85 98.593 182.85 98.287L183.525 98.719H181.554V95.965H184.308V97.909C184.308 98.395 184.254 98.863 184.146 99.313C184.056 99.745 183.894 100.168 183.66 100.582C183.426 100.996 183.093 101.41 182.661 101.824ZM192.199 115.243C191.515 115.243 190.849 115.171 190.201 115.027C189.571 114.901 188.977 114.721 188.419 114.487C187.879 114.235 187.411 113.938 187.015 113.596L187.717 112.057C188.149 112.399 188.617 112.687 189.121 112.921C189.625 113.137 190.138 113.299 190.66 113.407C191.182 113.515 191.713 113.569 192.253 113.569C193.279 113.569 194.053 113.38 194.575 113.002C195.097 112.624 195.358 112.111 195.358 111.463C195.358 110.959 195.187 110.563 194.845 110.275C194.503 109.969 193.963 109.735 193.225 109.573L190.768 109.033C189.634 108.799 188.788 108.394 188.23 107.818C187.69 107.242 187.42 106.495 187.42 105.577C187.42 104.767 187.627 104.074 188.041 103.498C188.473 102.904 189.076 102.445 189.85 102.121C190.624 101.797 191.524 101.635 192.55 101.635C193.162 101.635 193.747 101.698 194.305 101.824C194.863 101.95 195.385 102.139 195.871 102.391C196.375 102.625 196.807 102.922 197.167 103.282L196.438 104.821C196.096 104.497 195.709 104.227 195.277 104.011C194.845 103.777 194.395 103.606 193.927 103.498C193.477 103.372 193.018 103.309 192.55 103.309C191.542 103.309 190.777 103.507 190.255 103.903C189.733 104.299 189.472 104.821 189.472 105.469C189.472 105.973 189.634 106.387 189.958 106.711C190.282 107.035 190.786 107.269 191.47 107.413L193.927 107.926C195.097 108.178 195.97 108.583 196.546 109.141C197.14 109.681 197.437 110.419 197.437 111.355C197.437 112.147 197.221 112.84 196.789 113.434C196.357 114.01 195.745 114.46 194.953 114.784C194.179 115.09 193.261 115.243 192.199 115.243ZM213.212 115.243C212.528 115.243 211.862 115.171 211.214 115.027C210.584 114.901 209.99 114.721 209.432 114.487C208.892 114.235 208.424 113.938 208.028 113.596L208.73 112.057C209.162 112.399 209.63 112.687 210.134 112.921C210.638 113.137 211.151 113.299 211.673 113.407C212.195 113.515 212.726 113.569 213.266 113.569C214.292 113.569 215.066 113.38 215.588 113.002C216.11 112.624 216.371 112.111 216.371 111.463C216.371 110.959 216.2 110.563 215.858 110.275C215.516 109.969 214.976 109.735 214.238 109.573L211.781 109.033C210.647 108.799 209.801 108.394 209.243 107.818C208.703 107.242 208.433 106.495 208.433 105.577C208.433 104.767 208.64 104.074 209.054 103.498C209.486 102.904 210.089 102.445 210.863 102.121C211.637 101.797 212.537 101.635 213.563 101.635C214.175 101.635 214.76 101.698 215.318 101.824C215.876 101.95 216.398 102.139 216.884 102.391C217.388 102.625 217.82 102.922 218.18 103.282L217.451 104.821C217.109 104.497 216.722 104.227 216.29 104.011C215.858 103.777 215.408 103.606 214.94 103.498C214.49 103.372 214.031 103.309 213.563 103.309C212.555 103.309 211.79 103.507 211.268 103.903C210.746 104.299 210.485 104.821 210.485 105.469C210.485 105.973 210.647 106.387 210.971 106.711C211.295 107.035 211.799 107.269 212.483 107.413L214.94 107.926C216.11 108.178 216.983 108.583 217.559 109.141C218.153 109.681 218.45 110.419 218.45 111.355C218.45 112.147 218.234 112.84 217.802 113.434C217.37 114.01 216.758 114.46 215.966 114.784C215.192 115.09 214.274 115.243 213.212 115.243ZM227.456 115.243C225.908 115.243 224.747 114.829 223.973 114.001C223.199 113.173 222.812 111.994 222.812 110.464V103.579H220.247V101.878H222.812V97.855H224.999V101.878H229.157V103.579H224.999V110.248C224.999 111.274 225.215 112.057 225.647 112.597C226.079 113.119 226.781 113.38 227.753 113.38C228.041 113.38 228.329 113.344 228.617 113.272C228.905 113.2 229.166 113.128 229.4 113.056L229.778 114.73C229.544 114.856 229.202 114.973 228.752 115.081C228.302 115.189 227.87 115.243 227.456 115.243ZM236.302 115.243C235.402 115.243 234.592 115.072 233.872 114.73C233.17 114.37 232.612 113.884 232.198 113.272C231.784 112.66 231.577 111.976 231.577 111.22C231.577 110.248 231.82 109.483 232.306 108.925C232.81 108.367 233.629 107.971 234.763 107.737C235.915 107.503 237.481 107.386 239.461 107.386H240.676V108.817H239.488C238.39 108.817 237.472 108.853 236.734 108.925C235.996 108.997 235.411 109.123 234.979 109.303C234.547 109.483 234.241 109.717 234.061 110.005C233.881 110.293 233.791 110.653 233.791 111.085C233.791 111.823 234.043 112.426 234.547 112.894C235.069 113.362 235.771 113.596 236.653 113.596C237.373 113.596 238.003 113.425 238.543 113.083C239.101 112.741 239.533 112.273 239.839 111.679C240.163 111.085 240.325 110.401 240.325 109.627V106.549C240.325 105.433 240.1 104.632 239.65 104.146C239.2 103.642 238.462 103.39 237.436 103.39C236.644 103.39 235.879 103.507 235.141 103.741C234.403 103.957 233.647 104.317 232.873 104.821L232.117 103.228C232.585 102.904 233.116 102.625 233.71 102.391C234.304 102.139 234.925 101.95 235.573 101.824C236.221 101.698 236.842 101.635 237.436 101.635C238.57 101.635 239.506 101.824 240.244 102.202C240.982 102.562 241.531 103.12 241.891 103.876C242.251 104.614 242.431 105.568 242.431 106.738V115H240.379V111.949H240.622C240.478 112.633 240.199 113.218 239.785 113.704C239.389 114.19 238.894 114.568 238.3 114.838C237.706 115.108 237.04 115.243 236.302 115.243ZM247.028 115V101.878H249.161V104.983H248.891C249.197 103.921 249.728 103.12 250.484 102.58C251.24 102.022 252.239 101.698 253.481 101.608L254.264 101.527L254.426 103.417L253.049 103.579C251.825 103.687 250.88 104.083 250.214 104.767C249.566 105.433 249.242 106.351 249.242 107.521V115H247.028ZM263.222 115.243C261.674 115.243 260.513 114.829 259.739 114.001C258.965 113.173 258.578 111.994 258.578 110.464V103.579H256.013V101.878H258.578V97.855H260.765V101.878H264.923V103.579H260.765V110.248C260.765 111.274 260.981 112.057 261.413 112.597C261.845 113.119 262.547 113.38 263.519 113.38C263.807 113.38 264.095 113.344 264.383 113.272C264.671 113.2 264.932 113.128 265.166 113.056L265.544 114.73C265.31 114.856 264.968 114.973 264.518 115.081C264.068 115.189 263.636 115.243 263.222 115.243Z" fill="#6758B3"/>
<path d="M142.349 115H141.849V115.5H142.349V115ZM142.349 95.965V95.465H141.849V95.965H142.349ZM144.563 95.965H145.063V95.465H144.563V95.965ZM144.563 113.056H144.063V113.556H144.563V113.056ZM154.256 113.056H154.756V112.556H154.256V113.056ZM154.256 115V115.5H154.756V115H154.256ZM142.849 115V95.965H141.849V115H142.849ZM142.349 96.465H144.563V95.465H142.349V96.465ZM144.063 95.965V113.056H145.063V95.965H144.063ZM144.563 113.556H154.256V112.556H144.563V113.556ZM153.756 113.056V115H154.756V113.056H153.756ZM154.256 114.5H142.349V115.5H154.256V114.5ZM159.442 114.433L159.197 114.869L159.206 114.874L159.442 114.433ZM157.12 112.084L156.68 112.32L156.683 112.326L157.12 112.084ZM157.12 104.902L157.561 105.138L157.563 105.135L157.12 104.902ZM159.334 102.499L159.076 102.071L159.072 102.073L159.334 102.499ZM165.679 102.418L165.417 102.844L165.417 102.844L165.679 102.418ZM167.623 104.632L167.171 104.845L167.174 104.852L167.623 104.632ZM168.325 108.898V109.398H168.825V108.898H168.325ZM157.984 108.898H157.484V109.398H157.984V108.898ZM157.984 107.467V106.967H157.484V107.467H157.984ZM166.867 107.467L167.183 107.855L168.276 106.967H166.867V107.467ZM166.435 107.818H165.935V108.868L166.751 108.206L166.435 107.818ZM165.463 104.47L165.069 104.777L165.076 104.787L165.463 104.47ZM160.333 103.903L160.608 104.321L160.611 104.319L160.333 103.903ZM158.902 105.658L159.36 105.859L159.362 105.855L158.902 105.658ZM158.929 111.193L158.474 111.399L158.478 111.408L158.929 111.193ZM160.522 112.921L160.277 113.357L160.285 113.361L160.522 112.921ZM165.274 113.137L165.429 113.613L165.436 113.61L165.274 113.137ZM167.353 111.922L167.802 111.702L167.517 111.121L167.027 111.543L167.353 111.922ZM168.109 113.461L168.446 113.831L168.724 113.578L168.558 113.241L168.109 113.461ZM165.841 114.757L165.675 114.286L165.675 114.286L165.841 114.757ZM163.033 114.743C161.712 114.743 160.6 114.486 159.678 113.992L159.206 114.874C160.301 115.46 161.582 115.743 163.033 115.743V114.743ZM159.688 113.997C158.78 113.486 158.072 112.77 157.558 111.842L156.683 112.326C157.285 113.414 158.125 114.264 159.197 114.869L159.688 113.997ZM157.561 111.848C157.068 110.927 156.81 109.806 156.81 108.466H155.81C155.81 109.934 156.093 111.225 156.68 112.32L157.561 111.848ZM156.81 108.466C156.81 107.164 157.067 106.061 157.561 105.138L156.68 104.666C156.094 105.759 155.81 107.032 155.81 108.466H156.81ZM157.563 105.135C158.063 104.184 158.741 103.451 159.596 102.925L159.072 102.073C158.056 102.699 157.257 103.568 156.678 104.669L157.563 105.135ZM159.593 102.927C160.46 102.403 161.467 102.135 162.628 102.135V101.135C161.306 101.135 160.117 101.443 159.076 102.071L159.593 102.927ZM162.628 102.135C163.742 102.135 164.664 102.379 165.417 102.844L165.942 101.992C165.003 101.413 163.891 101.135 162.628 101.135V102.135ZM165.417 102.844C166.175 103.311 166.76 103.973 167.171 104.845L168.076 104.419C167.587 103.383 166.875 102.569 165.942 101.992L165.417 102.844ZM167.174 104.852C167.601 105.723 167.825 106.786 167.825 108.061H168.825C168.825 106.672 168.581 105.449 168.072 104.412L167.174 104.852ZM167.825 108.061V108.898H168.825V108.061H167.825ZM168.325 108.398H157.984V109.398H168.325V108.398ZM158.484 108.898V107.467H157.484V108.898H158.484ZM157.984 107.967H166.867V106.967H157.984V107.967ZM166.552 107.079L166.12 107.43L166.751 108.206L167.183 107.855L166.552 107.079ZM166.935 107.818C166.935 106.309 166.596 105.065 165.85 104.153L165.076 104.787C165.627 105.459 165.935 106.447 165.935 107.818H166.935ZM165.858 104.163C165.115 103.207 164.027 102.755 162.682 102.755V103.755C163.785 103.755 164.552 104.113 165.069 104.777L165.858 104.163ZM162.682 102.755C161.684 102.755 160.8 102.991 160.056 103.487L160.611 104.319C161.163 103.951 161.845 103.755 162.682 103.755V102.755ZM160.059 103.485C159.339 103.958 158.802 104.623 158.443 105.461L159.362 105.855C159.651 105.181 160.067 104.676 160.608 104.321L160.059 103.485ZM158.444 105.457C158.087 106.271 157.916 107.206 157.916 108.25H158.916C158.916 107.314 159.07 106.521 159.36 105.859L158.444 105.457ZM157.916 108.25V108.412H158.916V108.25H157.916ZM157.916 108.412C157.916 109.559 158.095 110.561 158.474 111.399L159.385 110.987C159.08 110.313 158.916 109.461 158.916 108.412H157.916ZM158.478 111.408C158.88 112.253 159.481 112.908 160.277 113.356L160.768 112.486C160.159 112.142 159.698 111.645 159.381 110.978L158.478 111.408ZM160.285 113.361C161.074 113.786 161.997 113.988 163.033 113.988V112.988C162.126 112.988 161.374 112.812 160.759 112.481L160.285 113.361ZM163.033 113.988C163.859 113.988 164.658 113.863 165.429 113.613L165.12 112.661C164.451 112.879 163.756 112.988 163.033 112.988V113.988ZM165.436 113.61C166.24 113.336 166.988 112.897 167.68 112.301L167.027 111.543C166.423 112.063 165.785 112.434 165.113 112.664L165.436 113.61ZM166.905 112.142L167.661 113.681L168.558 113.241L167.802 111.702L166.905 112.142ZM167.773 113.091C167.238 113.578 166.543 113.979 165.675 114.286L166.008 115.228C166.976 114.887 167.793 114.424 168.446 113.831L167.773 113.091ZM165.675 114.286C164.809 114.591 163.929 114.743 163.033 114.743V115.743C164.045 115.743 165.037 115.571 166.008 115.228L165.675 114.286ZM173.812 114.001L173.447 114.342L173.447 114.342L173.812 114.001ZM172.651 103.579H173.151V103.079H172.651V103.579ZM170.086 103.579H169.586V104.079H170.086V103.579ZM170.086 101.878V101.378H169.586V101.878H170.086ZM172.651 101.878V102.378H173.151V101.878H172.651ZM172.651 97.855V97.355H172.151V97.855H172.651ZM174.838 97.855H175.338V97.355H174.838V97.855ZM174.838 101.878H174.338V102.378H174.838V101.878ZM178.996 101.878H179.496V101.378H178.996V101.878ZM178.996 103.579V104.079H179.496V103.579H178.996ZM174.838 103.579V103.079H174.338V103.579H174.838ZM175.486 112.597L175.096 112.909L175.101 112.916L175.486 112.597ZM179.239 113.056L179.727 112.946L179.608 112.419L179.092 112.578L179.239 113.056ZM179.617 114.73L179.854 115.17L180.189 114.99L180.105 114.62L179.617 114.73ZM178.591 115.081L178.475 114.595L178.475 114.595L178.591 115.081ZM177.295 114.743C175.833 114.743 174.826 114.354 174.178 113.66L173.447 114.342C174.346 115.304 175.661 115.743 177.295 115.743V114.743ZM174.178 113.66C173.517 112.953 173.151 111.912 173.151 110.464H172.151C172.151 112.076 172.56 113.393 173.447 114.342L174.178 113.66ZM173.151 110.464V103.579H172.151V110.464H173.151ZM172.651 103.079H170.086V104.079H172.651V103.079ZM170.586 103.579V101.878H169.586V103.579H170.586ZM170.086 102.378H172.651V101.378H170.086V102.378ZM173.151 101.878V97.855H172.151V101.878H173.151ZM172.651 98.355H174.838V97.355H172.651V98.355ZM174.338 97.855V101.878H175.338V97.855H174.338ZM174.838 102.378H178.996V101.378H174.838V102.378ZM178.496 101.878V103.579H179.496V101.878H178.496ZM178.996 103.079H174.838V104.079H178.996V103.079ZM174.338 103.579V110.248H175.338V103.579H174.338ZM174.338 110.248C174.338 111.335 174.566 112.247 175.096 112.909L175.877 112.285C175.543 111.867 175.338 111.213 175.338 110.248H174.338ZM175.101 112.916C175.664 113.596 176.539 113.88 177.592 113.88V112.88C176.702 112.88 176.173 112.642 175.872 112.278L175.101 112.916ZM177.592 113.88C177.923 113.88 178.251 113.839 178.578 113.757L178.335 112.787C178.086 112.849 177.838 112.88 177.592 112.88V113.88ZM178.578 113.757C178.873 113.683 179.142 113.609 179.386 113.534L179.092 112.578C178.868 112.647 178.616 112.717 178.335 112.787L178.578 113.757ZM178.752 113.166L179.13 114.84L180.105 114.62L179.727 112.946L178.752 113.166ZM179.38 114.29C179.202 114.386 178.909 114.491 178.475 114.595L178.708 115.567C179.174 115.455 179.565 115.326 179.854 115.17L179.38 114.29ZM178.475 114.595C178.059 114.695 177.666 114.743 177.295 114.743V115.743C177.753 115.743 178.224 115.683 178.708 115.567L178.475 114.595ZM182.661 101.824L182.346 102.212L182.689 102.49L183.007 102.185L182.661 101.824ZM181.662 101.014L181.309 100.66L180.916 101.053L181.347 101.402L181.662 101.014ZM182.391 100.069L181.96 99.8155L181.954 99.8251L181.949 99.8351L182.391 100.069ZM182.742 99.178L182.257 99.0567L182.253 99.0712L182.251 99.0859L182.742 99.178ZM182.85 98.287L183.12 97.8659L182.35 97.3734V98.287H182.85ZM183.525 98.719V99.219H185.234L183.795 98.2979L183.525 98.719ZM181.554 98.719H181.054V99.219H181.554V98.719ZM181.554 95.965V95.465H181.054V95.965H181.554ZM184.308 95.965H184.808V95.465H184.308V95.965ZM184.146 99.313L183.66 99.1963L183.658 99.2036L183.657 99.211L184.146 99.313ZM182.976 101.436L181.977 100.626L181.347 101.402L182.346 102.212L182.976 101.436ZM182.016 101.368C182.364 101.019 182.641 100.665 182.833 100.303L181.949 99.8351C181.817 100.085 181.608 100.361 181.309 100.66L182.016 101.368ZM182.822 100.323C183.025 99.9769 183.167 99.6256 183.233 99.2701L182.251 99.0859C182.209 99.3064 182.117 99.5491 181.96 99.8155L182.822 100.323ZM183.227 99.2993C183.309 98.9704 183.35 98.6326 183.35 98.287H182.35C182.35 98.5534 182.319 98.8096 182.257 99.0567L183.227 99.2993ZM182.581 98.7081L183.256 99.1401L183.795 98.2979L183.12 97.8659L182.581 98.7081ZM183.525 98.219H181.554V99.219H183.525V98.219ZM182.054 98.719V95.965H181.054V98.719H182.054ZM181.554 96.465H184.308V95.465H181.554V96.465ZM183.808 95.965V97.909H184.808V95.965H183.808ZM183.808 97.909C183.808 98.3577 183.758 98.7864 183.66 99.1963L184.632 99.4297C184.75 98.9396 184.808 98.4323 184.808 97.909H183.808ZM183.657 99.211C183.578 99.5887 183.435 99.9634 183.225 100.336L184.095 100.828C184.353 100.373 184.534 99.9013 184.636 99.415L183.657 99.211ZM183.225 100.336C183.02 100.698 182.721 101.074 182.315 101.463L183.007 102.185C183.466 101.746 183.832 101.294 184.095 100.828L183.225 100.336ZM190.201 115.027L190.309 114.539L190.299 114.537L190.201 115.027ZM188.419 114.487L188.207 114.94L188.216 114.944L188.225 114.948L188.419 114.487ZM187.015 113.596L186.56 113.388L186.404 113.729L186.688 113.974L187.015 113.596ZM187.717 112.057L188.027 111.665L187.527 111.269L187.262 111.849L187.717 112.057ZM189.121 112.921L188.91 113.375L188.917 113.378L188.924 113.381L189.121 112.921ZM194.575 113.002L194.281 112.597L194.281 112.597L194.575 113.002ZM194.845 110.275L194.511 110.648L194.517 110.653L194.523 110.657L194.845 110.275ZM193.225 109.573L193.117 110.061L193.117 110.061L193.225 109.573ZM190.768 109.033L190.875 108.545L190.869 108.543L190.768 109.033ZM188.23 107.818L187.865 108.16L187.87 108.166L188.23 107.818ZM188.041 103.498L187.636 103.204L187.635 103.206L188.041 103.498ZM189.85 102.121L190.043 102.582L190.043 102.582L189.85 102.121ZM194.305 101.824L194.415 101.336L194.415 101.336L194.305 101.824ZM195.871 102.391L195.64 102.835L195.65 102.84L195.66 102.845L195.871 102.391ZM197.167 103.282L197.618 103.496L197.769 103.178L197.52 102.928L197.167 103.282ZM196.438 104.821L196.094 105.184L196.594 105.658L196.889 105.035L196.438 104.821ZM195.277 104.011L195.038 104.451L195.046 104.455L195.053 104.458L195.277 104.011ZM193.927 103.498L193.792 103.979L193.803 103.983L193.814 103.985L193.927 103.498ZM190.255 103.903L190.557 104.301L190.557 104.301L190.255 103.903ZM189.958 106.711L189.604 107.065L189.604 107.065L189.958 106.711ZM191.47 107.413L191.367 107.902L191.367 107.902L191.47 107.413ZM193.927 107.926L194.032 107.437L194.029 107.437L193.927 107.926ZM196.546 109.141L196.198 109.5L196.203 109.506L196.209 109.511L196.546 109.141ZM196.789 113.434L197.189 113.734L197.193 113.728L196.789 113.434ZM194.953 114.784L195.136 115.249L195.142 115.247L194.953 114.784ZM192.199 114.743C191.55 114.743 190.92 114.675 190.309 114.539L190.092 115.515C190.777 115.667 191.479 115.743 192.199 115.743V114.743ZM190.299 114.537C189.699 114.417 189.137 114.246 188.612 114.026L188.225 114.948C188.816 115.196 189.442 115.385 190.103 115.517L190.299 114.537ZM188.63 114.034C188.126 113.799 187.698 113.526 187.341 113.218L186.688 113.974C187.123 114.35 187.631 114.671 188.207 114.94L188.63 114.034ZM187.47 113.804L188.172 112.265L187.262 111.849L186.56 113.388L187.47 113.804ZM187.406 112.449C187.869 112.816 188.371 113.124 188.91 113.375L189.331 112.467C188.862 112.25 188.428 111.982 188.027 111.665L187.406 112.449ZM188.924 113.381C189.458 113.609 190.003 113.782 190.558 113.897L190.761 112.917C190.273 112.816 189.792 112.665 189.318 112.461L188.924 113.381ZM190.558 113.897C191.114 114.012 191.679 114.069 192.253 114.069V113.069C191.746 113.069 191.249 113.018 190.761 112.917L190.558 113.897ZM192.253 114.069C193.326 114.069 194.223 113.874 194.868 113.407L194.281 112.597C193.882 112.886 193.231 113.069 192.253 113.069V114.069ZM194.868 113.407C195.521 112.934 195.858 112.27 195.858 111.463H194.858C194.858 111.952 194.673 112.314 194.281 112.597L194.868 113.407ZM195.858 111.463C195.858 110.833 195.637 110.288 195.167 109.893L194.523 110.657C194.737 110.838 194.858 111.085 194.858 111.463H195.858ZM195.178 109.902C194.743 109.513 194.106 109.254 193.332 109.085L193.117 110.061C193.82 110.216 194.262 110.425 194.511 110.648L195.178 109.902ZM193.332 109.085L190.875 108.545L190.66 109.521L193.117 110.061L193.332 109.085ZM190.869 108.543C189.791 108.321 189.052 107.949 188.589 107.47L187.87 108.166C188.523 108.839 189.476 109.277 190.667 109.523L190.869 108.543ZM188.594 107.476C188.155 107.008 187.92 106.39 187.92 105.577H186.92C186.92 106.6 187.224 107.476 187.865 108.16L188.594 107.476ZM187.92 105.577C187.92 104.856 188.102 104.269 188.447 103.79L187.635 103.206C187.151 103.879 186.92 104.678 186.92 105.577H187.92ZM188.445 103.792C188.816 103.282 189.341 102.876 190.043 102.582L189.657 101.66C188.81 102.014 188.129 102.526 187.636 103.204L188.445 103.792ZM190.043 102.582C190.744 102.289 191.576 102.135 192.55 102.135V101.135C191.472 101.135 190.504 101.305 189.657 101.66L190.043 102.582ZM192.55 102.135C193.127 102.135 193.675 102.194 194.194 102.312L194.415 101.336C193.818 101.202 193.196 101.135 192.55 101.135V102.135ZM194.194 102.312C194.713 102.429 195.194 102.603 195.64 102.835L196.101 101.947C195.575 101.675 195.013 101.471 194.415 101.336L194.194 102.312ZM195.66 102.845C196.116 103.056 196.498 103.321 196.813 103.636L197.52 102.928C197.115 102.523 196.633 102.194 196.081 101.937L195.66 102.845ZM196.715 103.068L195.986 104.607L196.889 105.035L197.618 103.496L196.715 103.068ZM196.781 104.458C196.403 104.099 195.975 103.801 195.5 103.564L195.053 104.458C195.442 104.653 195.788 104.895 196.094 105.184L196.781 104.458ZM195.515 103.571C195.044 103.316 194.552 103.129 194.039 103.011L193.814 103.985C194.237 104.083 194.645 104.238 195.038 104.451L195.515 103.571ZM194.061 103.017C193.567 102.878 193.063 102.809 192.55 102.809V103.809C192.972 103.809 193.386 103.866 193.792 103.979L194.061 103.017ZM192.55 102.809C191.488 102.809 190.597 103.016 189.952 103.505L190.557 104.301C190.956 103.998 191.595 103.809 192.55 103.809V102.809ZM189.952 103.505C189.307 103.994 188.972 104.663 188.972 105.469H189.972C189.972 104.979 190.158 104.604 190.557 104.301L189.952 103.505ZM188.972 105.469C188.972 106.091 189.176 106.637 189.604 107.065L190.311 106.357C190.091 106.137 189.972 105.855 189.972 105.469H188.972ZM189.604 107.065C190.024 107.484 190.634 107.748 191.367 107.902L191.573 106.924C190.937 106.79 190.539 106.586 190.311 106.357L189.604 107.065ZM191.367 107.902L193.824 108.415L194.029 107.437L191.572 106.924L191.367 107.902ZM193.821 108.415C194.942 108.656 195.714 109.032 196.198 109.5L196.893 108.782C196.225 108.134 195.251 107.7 194.032 107.437L193.821 108.415ZM196.209 109.511C196.681 109.94 196.937 110.534 196.937 111.355H197.937C197.937 110.304 197.598 109.422 196.882 108.771L196.209 109.511ZM196.937 111.355C196.937 112.05 196.749 112.638 196.384 113.14L197.193 113.728C197.692 113.042 197.937 112.244 197.937 111.355H196.937ZM196.389 113.134C196.02 113.625 195.488 114.025 194.763 114.321L195.142 115.247C196.002 114.895 196.693 114.395 197.189 113.734L196.389 113.134ZM194.769 114.319C194.067 114.596 193.214 114.743 192.199 114.743V115.743C193.307 115.743 194.29 115.584 195.136 115.249L194.769 114.319ZM211.214 115.027L211.323 114.539L211.312 114.537L211.214 115.027ZM209.432 114.487L209.221 114.94L209.23 114.944L209.239 114.948L209.432 114.487ZM208.028 113.596L207.573 113.388L207.418 113.729L207.701 113.974L208.028 113.596ZM208.73 112.057L209.041 111.665L208.54 111.269L208.275 111.849L208.73 112.057ZM210.134 112.921L209.924 113.375L209.93 113.378L209.937 113.381L210.134 112.921ZM215.588 113.002L215.295 112.597L215.295 112.597L215.588 113.002ZM215.858 110.275L215.525 110.648L215.53 110.653L215.536 110.657L215.858 110.275ZM214.238 109.573L214.131 110.061L214.131 110.061L214.238 109.573ZM211.781 109.033L211.889 108.545L211.882 108.543L211.781 109.033ZM209.243 107.818L208.878 108.16L208.884 108.166L209.243 107.818ZM209.054 103.498L208.65 103.204L208.648 103.206L209.054 103.498ZM210.863 102.121L211.056 102.582L211.056 102.582L210.863 102.121ZM215.318 101.824L215.428 101.336L215.428 101.336L215.318 101.824ZM216.884 102.391L216.654 102.835L216.664 102.84L216.674 102.845L216.884 102.391ZM218.18 103.282L218.632 103.496L218.783 103.178L218.534 102.928L218.18 103.282ZM217.451 104.821L217.107 105.184L217.608 105.658L217.903 105.035L217.451 104.821ZM216.29 104.011L216.052 104.451L216.059 104.455L216.067 104.458L216.29 104.011ZM214.94 103.498L214.805 103.979L214.816 103.983L214.828 103.985L214.94 103.498ZM211.268 103.903L211.57 104.301L211.57 104.301L211.268 103.903ZM210.971 106.711L210.618 107.065L210.618 107.065L210.971 106.711ZM212.483 107.413L212.38 107.902L212.381 107.902L212.483 107.413ZM214.94 107.926L215.045 107.437L215.042 107.437L214.94 107.926ZM217.559 109.141L217.211 109.5L217.217 109.506L217.223 109.511L217.559 109.141ZM217.802 113.434L218.202 113.734L218.207 113.728L217.802 113.434ZM215.966 114.784L216.15 115.249L216.156 115.247L215.966 114.784ZM213.212 114.743C212.564 114.743 211.934 114.675 211.323 114.539L211.106 115.515C211.79 115.667 212.493 115.743 213.212 115.743V114.743ZM211.312 114.537C210.713 114.417 210.151 114.246 209.626 114.026L209.239 114.948C209.829 115.196 210.455 115.385 211.116 115.517L211.312 114.537ZM209.644 114.034C209.14 113.799 208.712 113.526 208.355 113.218L207.701 113.974C208.137 114.35 208.645 114.671 209.221 114.94L209.644 114.034ZM208.483 113.804L209.185 112.265L208.275 111.849L207.573 113.388L208.483 113.804ZM208.42 112.449C208.883 112.816 209.384 113.124 209.924 113.375L210.345 112.467C209.876 112.25 209.442 111.982 209.041 111.665L208.42 112.449ZM209.937 113.381C210.471 113.609 211.016 113.782 211.572 113.897L211.774 112.917C211.286 112.816 210.805 112.665 210.331 112.461L209.937 113.381ZM211.572 113.897C212.128 114.012 212.693 114.069 213.266 114.069V113.069C212.76 113.069 212.263 113.018 211.774 112.917L211.572 113.897ZM213.266 114.069C214.34 114.069 215.237 113.874 215.881 113.407L215.295 112.597C214.895 112.886 214.244 113.069 213.266 113.069V114.069ZM215.881 113.407C216.534 112.934 216.871 112.27 216.871 111.463H215.871C215.871 111.952 215.686 112.314 215.295 112.597L215.881 113.407ZM216.871 111.463C216.871 110.833 216.65 110.288 216.18 109.893L215.536 110.657C215.75 110.838 215.871 111.085 215.871 111.463H216.871ZM216.192 109.902C215.757 109.513 215.119 109.254 214.345 109.085L214.131 110.061C214.833 110.216 215.276 110.425 215.525 110.648L216.192 109.902ZM214.346 109.085L211.889 108.545L211.674 109.521L214.131 110.061L214.346 109.085ZM211.882 108.543C210.805 108.321 210.066 107.949 209.602 107.47L208.884 108.166C209.537 108.839 210.489 109.277 211.68 109.523L211.882 108.543ZM209.608 107.476C209.169 107.008 208.933 106.39 208.933 105.577H207.933C207.933 106.6 208.238 107.476 208.878 108.16L209.608 107.476ZM208.933 105.577C208.933 104.856 209.116 104.269 209.46 103.79L208.648 103.206C208.165 103.879 207.933 104.678 207.933 105.577H208.933ZM209.459 103.792C209.829 103.282 210.354 102.876 211.056 102.582L210.67 101.66C209.824 102.014 209.143 102.526 208.65 103.204L209.459 103.792ZM211.056 102.582C211.757 102.289 212.589 102.135 213.563 102.135V101.135C212.485 101.135 211.517 101.305 210.67 101.66L211.056 102.582ZM213.563 102.135C214.141 102.135 214.689 102.194 215.208 102.312L215.428 101.336C214.832 101.202 214.21 101.135 213.563 101.135V102.135ZM215.208 102.312C215.726 102.429 216.208 102.603 216.654 102.835L217.114 101.947C216.589 101.675 216.026 101.471 215.428 101.336L215.208 102.312ZM216.674 102.845C217.129 103.056 217.512 103.321 217.827 103.636L218.534 102.928C218.129 102.523 217.647 102.194 217.095 101.937L216.674 102.845ZM217.728 103.068L216.999 104.607L217.903 105.035L218.632 103.496L217.728 103.068ZM217.795 104.458C217.416 104.099 216.989 103.801 216.514 103.564L216.067 104.458C216.456 104.653 216.802 104.895 217.107 105.184L217.795 104.458ZM216.528 103.571C216.058 103.316 215.565 103.129 215.053 103.011L214.828 103.985C215.251 104.083 215.659 104.238 216.052 104.451L216.528 103.571ZM215.075 103.017C214.581 102.878 214.077 102.809 213.563 102.809V103.809C213.986 103.809 214.399 103.866 214.805 103.979L215.075 103.017ZM213.563 102.809C212.501 102.809 211.611 103.016 210.966 103.505L211.57 104.301C211.97 103.998 212.609 103.809 213.563 103.809V102.809ZM210.966 103.505C210.321 103.994 209.985 104.663 209.985 105.469H210.985C210.985 104.979 211.171 104.604 211.57 104.301L210.966 103.505ZM209.985 105.469C209.985 106.091 210.19 106.637 210.618 107.065L211.325 106.357C211.104 106.137 210.985 105.855 210.985 105.469H209.985ZM210.618 107.065C211.037 107.484 211.648 107.748 212.38 107.902L212.586 106.924C211.951 106.79 211.553 106.586 211.325 106.357L210.618 107.065ZM212.381 107.902L214.838 108.415L215.042 107.437L212.585 106.924L212.381 107.902ZM214.835 108.415C215.956 108.656 216.728 109.032 217.211 109.5L217.907 108.782C217.239 108.134 216.265 107.7 215.045 107.437L214.835 108.415ZM217.223 109.511C217.695 109.94 217.95 110.534 217.95 111.355H218.95C218.95 110.304 218.611 109.422 217.896 108.771L217.223 109.511ZM217.95 111.355C217.95 112.05 217.763 112.638 217.398 113.14L218.207 113.728C218.706 113.042 218.95 112.244 218.95 111.355H217.95ZM217.402 113.134C217.034 113.625 216.501 114.025 215.777 114.321L216.156 115.247C217.015 114.895 217.707 114.395 218.202 113.734L217.402 113.134ZM215.782 114.319C215.081 114.596 214.228 114.743 213.212 114.743V115.743C214.32 115.743 215.304 115.584 216.15 115.249L215.782 114.319ZM223.973 114.001L223.608 114.342L223.608 114.342L223.973 114.001ZM222.812 103.579H223.312V103.079H222.812V103.579ZM220.247 103.579H219.747V104.079H220.247V103.579ZM220.247 101.878V101.378H219.747V101.878H220.247ZM222.812 101.878V102.378H223.312V101.878H222.812ZM222.812 97.855V97.355H222.312V97.855H222.812ZM224.999 97.855H225.499V97.355H224.999V97.855ZM224.999 101.878H224.499V102.378H224.999V101.878ZM229.157 101.878H229.657V101.378H229.157V101.878ZM229.157 103.579V104.079H229.657V103.579H229.157ZM224.999 103.579V103.079H224.499V103.579H224.999ZM225.647 112.597L225.257 112.909L225.262 112.916L225.647 112.597ZM229.4 113.056L229.888 112.946L229.769 112.419L229.253 112.578L229.4 113.056ZM229.778 114.73L230.015 115.17L230.35 114.99L230.266 114.62L229.778 114.73ZM228.752 115.081L228.636 114.595L228.636 114.595L228.752 115.081ZM227.456 114.743C225.994 114.743 224.987 114.354 224.339 113.66L223.608 114.342C224.507 115.304 225.822 115.743 227.456 115.743V114.743ZM224.339 113.66C223.678 112.953 223.312 111.912 223.312 110.464H222.312C222.312 112.076 222.721 113.393 223.608 114.342L224.339 113.66ZM223.312 110.464V103.579H222.312V110.464H223.312ZM222.812 103.079H220.247V104.079H222.812V103.079ZM220.747 103.579V101.878H219.747V103.579H220.747ZM220.247 102.378H222.812V101.378H220.247V102.378ZM223.312 101.878V97.855H222.312V101.878H223.312ZM222.812 98.355H224.999V97.355H222.812V98.355ZM224.499 97.855V101.878H225.499V97.855H224.499ZM224.999 102.378H229.157V101.378H224.999V102.378ZM228.657 101.878V103.579H229.657V101.878H228.657ZM229.157 103.079H224.999V104.079H229.157V103.079ZM224.499 103.579V110.248H225.499V103.579H224.499ZM224.499 110.248C224.499 111.335 224.727 112.247 225.257 112.909L226.038 112.285C225.704 111.867 225.499 111.213 225.499 110.248H224.499ZM225.262 112.916C225.825 113.596 226.7 113.88 227.753 113.88V112.88C226.863 112.88 226.334 112.642 226.033 112.278L225.262 112.916ZM227.753 113.88C228.083 113.88 228.412 113.839 228.739 113.757L228.496 112.787C228.247 112.849 227.999 112.88 227.753 112.88V113.88ZM228.739 113.757C229.034 113.683 229.303 113.609 229.547 113.534L229.253 112.578C229.029 112.647 228.777 112.717 228.496 112.787L228.739 113.757ZM228.913 113.166L229.291 114.84L230.266 114.62L229.888 112.946L228.913 113.166ZM229.541 114.29C229.363 114.386 229.07 114.491 228.636 114.595L228.869 115.567C229.335 115.455 229.725 115.326 230.015 115.17L229.541 114.29ZM228.636 114.595C228.219 114.695 227.827 114.743 227.456 114.743V115.743C227.914 115.743 228.385 115.683 228.869 115.567L228.636 114.595ZM233.872 114.73L233.644 115.175L233.65 115.178L233.657 115.182L233.872 114.73ZM232.198 113.272L232.612 112.992L232.612 112.992L232.198 113.272ZM232.306 108.925L231.935 108.59L231.929 108.597L232.306 108.925ZM234.763 107.737L234.663 107.247L234.662 107.247L234.763 107.737ZM240.676 107.386H241.176V106.886H240.676V107.386ZM240.676 108.817V109.317H241.176V108.817H240.676ZM236.734 108.925L236.782 109.423L236.782 109.423L236.734 108.925ZM234.061 110.005L234.485 110.27L234.485 110.27L234.061 110.005ZM234.547 112.894L234.207 113.26L234.213 113.266L234.547 112.894ZM238.543 113.083L238.282 112.657L238.275 112.661L238.543 113.083ZM239.839 111.679L239.4 111.44L239.394 111.45L239.839 111.679ZM239.65 104.146L239.277 104.479L239.283 104.486L239.65 104.146ZM235.141 103.741L235.281 104.221L235.292 104.218L235.141 103.741ZM232.873 104.821L232.421 105.035L232.666 105.552L233.146 105.24L232.873 104.821ZM232.117 103.228L231.832 102.817L231.483 103.059L231.665 103.442L232.117 103.228ZM233.71 102.391L233.893 102.856L233.905 102.851L233.71 102.391ZM240.244 102.202L240.016 102.647L240.025 102.651L240.244 102.202ZM241.891 103.876L241.439 104.091L241.441 104.095L241.891 103.876ZM242.431 115V115.5H242.931V115H242.431ZM240.379 115H239.879V115.5H240.379V115ZM240.379 111.949V111.449H239.879V111.949H240.379ZM240.622 111.949L241.111 112.052L241.238 111.449H240.622V111.949ZM239.785 113.704L239.404 113.38L239.397 113.388L239.785 113.704ZM238.3 114.838L238.093 114.383L238.093 114.383L238.3 114.838ZM236.302 114.743C235.466 114.743 234.731 114.585 234.086 114.278L233.657 115.182C234.453 115.559 235.337 115.743 236.302 115.743V114.743ZM234.1 114.285C233.468 113.961 232.976 113.529 232.612 112.992L231.784 113.552C232.248 114.239 232.872 114.779 233.644 115.175L234.1 114.285ZM232.612 112.992C232.255 112.465 232.077 111.879 232.077 111.22H231.077C231.077 112.073 231.312 112.855 231.784 113.552L232.612 112.992ZM232.077 111.22C232.077 110.33 232.298 109.695 232.683 109.253L231.929 108.597C231.341 109.271 231.077 110.166 231.077 111.22H232.077ZM232.677 109.26C233.08 108.813 233.781 108.45 234.864 108.227L234.662 107.247C233.476 107.492 232.539 107.921 231.935 108.59L232.677 109.26ZM234.862 108.227C235.967 108.003 237.495 107.886 239.461 107.886V106.886C237.467 106.886 235.863 107.003 234.663 107.247L234.862 108.227ZM239.461 107.886H240.676V106.886H239.461V107.886ZM240.176 107.386V108.817H241.176V107.386H240.176ZM240.676 108.317H239.488V109.317H240.676V108.317ZM239.488 108.317C238.381 108.317 237.445 108.353 236.685 108.427L236.782 109.423C237.499 109.353 238.399 109.317 239.488 109.317V108.317ZM236.685 108.427C235.923 108.502 235.283 108.635 234.787 108.841L235.171 109.765C235.539 109.611 236.069 109.492 236.782 109.423L236.685 108.427ZM234.787 108.841C234.294 109.047 233.889 109.336 233.637 109.74L234.485 110.27C234.593 110.098 234.8 109.919 235.171 109.765L234.787 108.841ZM233.637 109.74C233.395 110.126 233.291 110.585 233.291 111.085H234.291C234.291 110.721 234.366 110.46 234.485 110.27L233.637 109.74ZM233.291 111.085C233.291 111.951 233.593 112.69 234.207 113.26L234.887 112.528C234.493 112.162 234.291 111.695 234.291 111.085H233.291ZM234.213 113.266C234.849 113.836 235.681 114.096 236.653 114.096V113.096C235.861 113.096 235.289 112.888 234.881 112.522L234.213 113.266ZM236.653 114.096C237.455 114.096 238.181 113.904 238.81 113.505L238.275 112.661C237.825 112.946 237.29 113.096 236.653 113.096V114.096ZM238.804 113.509C239.442 113.118 239.936 112.581 240.283 111.908L239.394 111.45C239.129 111.965 238.76 112.364 238.282 112.657L238.804 113.509ZM240.278 111.918C240.647 111.241 240.825 110.472 240.825 109.627H239.825C239.825 110.33 239.678 110.929 239.4 111.44L240.278 111.918ZM240.825 109.627V106.549H239.825V109.627H240.825ZM240.825 106.549C240.825 105.387 240.595 104.43 240.017 103.806L239.283 104.486C239.605 104.834 239.825 105.479 239.825 106.549H240.825ZM240.023 103.813C239.438 103.158 238.53 102.89 237.436 102.89V103.89C238.393 103.89 238.962 104.126 239.277 104.479L240.023 103.813ZM237.436 102.89C236.594 102.89 235.778 103.015 234.99 103.264L235.292 104.218C235.98 103.999 236.694 103.89 237.436 103.89V102.89ZM235 103.261C234.207 103.493 233.407 103.877 232.6 104.402L233.146 105.24C233.887 104.757 234.598 104.421 235.281 104.221L235 103.261ZM233.325 104.607L232.569 103.014L231.665 103.442L232.421 105.035L233.325 104.607ZM232.401 103.639C232.834 103.339 233.331 103.078 233.893 102.856L233.527 101.926C232.901 102.172 232.335 102.469 231.832 102.817L232.401 103.639ZM233.905 102.851C234.466 102.613 235.054 102.434 235.668 102.315L235.477 101.333C234.796 101.466 234.141 101.665 233.515 101.931L233.905 102.851ZM235.668 102.315C236.288 102.194 236.877 102.135 237.436 102.135V101.135C236.806 101.135 236.153 101.202 235.477 101.333L235.668 102.315ZM237.436 102.135C238.518 102.135 239.37 102.316 240.016 102.647L240.472 101.757C239.642 101.332 238.621 101.135 237.436 101.135V102.135ZM240.025 102.651C240.659 102.961 241.127 103.435 241.439 104.091L242.342 103.661C241.935 102.805 241.305 102.163 240.463 101.753L240.025 102.651ZM241.441 104.095C241.757 104.742 241.931 105.614 241.931 106.738H242.931C242.931 105.522 242.745 104.486 242.34 103.657L241.441 104.095ZM241.931 106.738V115H242.931V106.738H241.931ZM242.431 114.5H240.379V115.5H242.431V114.5ZM240.879 115V111.949H239.879V115H240.879ZM240.379 112.449H240.622V111.449H240.379V112.449ZM240.133 111.846C240.004 112.456 239.759 112.963 239.404 113.38L240.165 114.028C240.639 113.473 240.952 112.81 241.111 112.052L240.133 111.846ZM239.397 113.388C239.052 113.812 238.62 114.143 238.093 114.383L238.507 115.293C239.168 114.993 239.726 114.568 240.172 114.02L239.397 113.388ZM238.093 114.383C237.572 114.62 236.978 114.743 236.302 114.743V115.743C237.102 115.743 237.84 115.596 238.507 115.293L238.093 114.383ZM247.028 115H246.528V115.5H247.028V115ZM247.028 101.878V101.378H246.528V101.878H247.028ZM249.161 101.878H249.661V101.378H249.161V101.878ZM249.161 104.983V105.483H249.661V104.983H249.161ZM248.891 104.983L248.411 104.845L248.227 105.483H248.891V104.983ZM250.484 102.58L250.775 102.987L250.781 102.982L250.484 102.58ZM253.481 101.608L253.517 102.107L253.525 102.106L253.533 102.105L253.481 101.608ZM254.264 101.527L254.762 101.484L254.719 100.977L254.213 101.03L254.264 101.527ZM254.426 103.417L254.485 103.914L254.966 103.857L254.924 103.374L254.426 103.417ZM253.049 103.579L253.093 104.077L253.1 104.076L253.108 104.076L253.049 103.579ZM250.214 104.767L249.856 104.418L249.856 104.418L250.214 104.767ZM249.242 115V115.5H249.742V115H249.242ZM247.528 115V101.878H246.528V115H247.528ZM247.028 102.378H249.161V101.378H247.028V102.378ZM248.661 101.878V104.983H249.661V101.878H248.661ZM249.161 104.483H248.891V105.483H249.161V104.483ZM249.372 105.121C249.653 104.146 250.127 103.45 250.775 102.987L250.194 102.173C249.329 102.79 248.742 103.696 248.411 104.845L249.372 105.121ZM250.781 102.982C251.44 102.496 252.34 102.192 253.517 102.107L253.445 101.109C252.139 101.204 251.04 101.548 250.187 102.178L250.781 102.982ZM253.533 102.105L254.316 102.024L254.213 101.03L253.43 101.111L253.533 102.105ZM253.766 101.57L253.928 103.46L254.924 103.374L254.762 101.484L253.766 101.57ZM254.368 102.92L252.991 103.082L253.108 104.076L254.485 103.914L254.368 102.92ZM253.005 103.081C251.697 103.196 250.627 103.626 249.856 104.418L250.572 105.116C251.133 104.54 251.953 104.178 253.093 104.077L253.005 103.081ZM249.856 104.418C249.095 105.2 248.742 106.256 248.742 107.521H249.742C249.742 106.446 250.037 105.666 250.573 105.116L249.856 104.418ZM248.742 107.521V115H249.742V107.521H248.742ZM249.242 114.5H247.028V115.5H249.242V114.5ZM259.739 114.001L259.374 114.342L259.374 114.342L259.739 114.001ZM258.578 103.579H259.078V103.079H258.578V103.579ZM256.013 103.579H255.513V104.079H256.013V103.579ZM256.013 101.878V101.378H255.513V101.878H256.013ZM258.578 101.878V102.378H259.078V101.878H258.578ZM258.578 97.855V97.355H258.078V97.855H258.578ZM260.765 97.855H261.265V97.355H260.765V97.855ZM260.765 101.878H260.265V102.378H260.765V101.878ZM264.923 101.878H265.423V101.378H264.923V101.878ZM264.923 103.579V104.079H265.423V103.579H264.923ZM260.765 103.579V103.079H260.265V103.579H260.765ZM261.413 112.597L261.022 112.909L261.028 112.916L261.413 112.597ZM265.166 113.056L265.654 112.946L265.535 112.419L265.019 112.578L265.166 113.056ZM265.544 114.73L265.781 115.17L266.115 114.99L266.032 114.62L265.544 114.73ZM264.518 115.081L264.401 114.595L264.401 114.595L264.518 115.081ZM263.222 114.743C261.76 114.743 260.753 114.354 260.104 113.66L259.374 114.342C260.273 115.304 261.588 115.743 263.222 115.743V114.743ZM260.104 113.66C259.443 112.953 259.078 111.912 259.078 110.464H258.078C258.078 112.076 258.486 113.393 259.374 114.342L260.104 113.66ZM259.078 110.464V103.579H258.078V110.464H259.078ZM258.578 103.079H256.013V104.079H258.578V103.079ZM256.513 103.579V101.878H255.513V103.579H256.513ZM256.013 102.378H258.578V101.378H256.013V102.378ZM259.078 101.878V97.855H258.078V101.878H259.078ZM258.578 98.355H260.765V97.355H258.578V98.355ZM260.265 97.855V101.878H261.265V97.855H260.265ZM260.765 102.378H264.923V101.378H260.765V102.378ZM264.423 101.878V103.579H265.423V101.878H264.423ZM264.923 103.079H260.765V104.079H264.923V103.079ZM260.265 103.579V110.248H261.265V103.579H260.265ZM260.265 110.248C260.265 111.335 260.492 112.247 261.022 112.909L261.803 112.285C261.469 111.867 261.265 111.213 261.265 110.248H260.265ZM261.028 112.916C261.59 113.596 262.465 113.88 263.519 113.88V112.88C262.629 112.88 262.099 112.642 261.798 112.278L261.028 112.916ZM263.519 113.88C263.849 113.88 264.178 113.839 264.504 113.757L264.262 112.787C264.012 112.849 263.765 112.88 263.519 112.88V113.88ZM264.504 113.757C264.799 113.683 265.069 113.609 265.313 113.534L265.019 112.578C264.795 112.647 264.543 112.717 264.262 112.787L264.504 113.757ZM264.678 113.166L265.056 114.84L266.032 114.62L265.654 112.946L264.678 113.166ZM265.307 114.29C265.129 114.386 264.835 114.491 264.401 114.595L264.635 115.567C265.1 115.455 265.491 115.326 265.781 115.17L265.307 114.29ZM264.401 114.595C263.985 114.695 263.592 114.743 263.222 114.743V115.743C263.679 115.743 264.151 115.683 264.635 115.567L264.401 114.595Z" fill="#6758B3"/>
</g>
</g>
</g>
</svg>
