<svg width="400" height="200" viewBox="0 0 400 200" fill="none" xmlns="http://www.w3.org/2000/svg">
<g id="letsButton">
<g id="button_1">
<path id="back" d="M33 115.174C33 115.174 144 54.6745 167.5 34.6745C205.906 1.98853 46 199.174 102.5 160.174C159 121.174 270 38.6744 278.5 34.6744C287 30.6744 142.5 208.675 215.5 160.174C288.5 111.674 368 90.1744 368 90.1744" stroke="#F5EFFD" stroke-opacity="0.8" stroke-width="50" stroke-linecap="round"/>
<rect id="button_1_2" x="60" y="65" width="280" height="80" rx="12" stroke="#A594F9" stroke-width="5"/>
<g id="Lets_start">
<path d="M142.175 113V95.375H144.225V111.2H153.2V113H142.175ZM161.327 113.225C160.044 113.225 158.935 112.975 158.002 112.475C157.085 111.958 156.369 111.233 155.852 110.3C155.352 109.367 155.102 108.25 155.102 106.95C155.102 105.683 155.352 104.583 155.852 103.65C156.352 102.7 157.035 101.958 157.902 101.425C158.785 100.892 159.802 100.625 160.952 100.625C162.052 100.625 162.994 100.867 163.777 101.35C164.56 101.833 165.16 102.517 165.577 103.4C166.01 104.283 166.227 105.342 166.227 106.575V107.35H156.652V106.025H164.877L164.477 106.35C164.477 105.017 164.177 103.983 163.577 103.25C162.994 102.5 162.135 102.125 161.002 102.125C160.152 102.125 159.427 102.325 158.827 102.725C158.244 103.108 157.802 103.65 157.502 104.35C157.202 105.033 157.052 105.833 157.052 106.75V106.9C157.052 107.917 157.21 108.775 157.527 109.475C157.86 110.175 158.352 110.708 159.002 111.075C159.652 111.425 160.427 111.6 161.327 111.6C162.044 111.6 162.735 111.492 163.402 111.275C164.085 111.042 164.727 110.667 165.327 110.15L166.027 111.575C165.477 112.075 164.777 112.475 163.927 112.775C163.077 113.075 162.21 113.225 161.327 113.225ZM174.533 113.225C173.099 113.225 172.024 112.842 171.308 112.075C170.591 111.308 170.233 110.217 170.233 108.8V102.425H167.858V100.85H170.233V97.125H172.258V100.85H176.108V102.425H172.258V108.6C172.258 109.55 172.458 110.275 172.858 110.775C173.258 111.258 173.908 111.5 174.808 111.5C175.074 111.5 175.341 111.467 175.608 111.4C175.874 111.333 176.116 111.267 176.333 111.2L176.683 112.75C176.466 112.867 176.149 112.975 175.733 113.075C175.316 113.175 174.916 113.225 174.533 113.225ZM179.501 100.8L178.576 100.05C178.876 99.75 179.101 99.4583 179.251 99.175C179.418 98.8917 179.526 98.6167 179.576 98.35C179.643 98.0833 179.676 97.8083 179.676 97.525L180.301 97.925H178.476V95.375H181.026V97.175C181.026 97.625 180.976 98.0583 180.876 98.475C180.793 98.875 180.643 99.2667 180.426 99.65C180.209 100.033 179.901 100.417 179.501 100.8ZM188.332 113.225C187.699 113.225 187.082 113.158 186.482 113.025C185.899 112.908 185.349 112.742 184.832 112.525C184.332 112.292 183.899 112.017 183.532 111.7L184.182 110.275C184.582 110.592 185.015 110.858 185.482 111.075C185.949 111.275 186.424 111.425 186.907 111.525C187.39 111.625 187.882 111.675 188.382 111.675C189.332 111.675 190.049 111.5 190.532 111.15C191.015 110.8 191.257 110.325 191.257 109.725C191.257 109.258 191.099 108.892 190.782 108.625C190.465 108.342 189.965 108.125 189.282 107.975L187.007 107.475C185.957 107.258 185.174 106.883 184.657 106.35C184.157 105.817 183.907 105.125 183.907 104.275C183.907 103.525 184.099 102.883 184.482 102.35C184.882 101.8 185.44 101.375 186.157 101.075C186.874 100.775 187.707 100.625 188.657 100.625C189.224 100.625 189.765 100.683 190.282 100.8C190.799 100.917 191.282 101.092 191.732 101.325C192.199 101.542 192.599 101.817 192.932 102.15L192.257 103.575C191.94 103.275 191.582 103.025 191.182 102.825C190.782 102.608 190.365 102.45 189.932 102.35C189.515 102.233 189.09 102.175 188.657 102.175C187.724 102.175 187.015 102.358 186.532 102.725C186.049 103.092 185.807 103.575 185.807 104.175C185.807 104.642 185.957 105.025 186.257 105.325C186.557 105.625 187.024 105.842 187.657 105.975L189.932 106.45C191.015 106.683 191.824 107.058 192.357 107.575C192.907 108.075 193.182 108.758 193.182 109.625C193.182 110.358 192.982 111 192.582 111.55C192.182 112.083 191.615 112.5 190.882 112.8C190.165 113.083 189.315 113.225 188.332 113.225ZM207.789 113.225C207.156 113.225 206.539 113.158 205.939 113.025C205.356 112.908 204.806 112.742 204.289 112.525C203.789 112.292 203.356 112.017 202.989 111.7L203.639 110.275C204.039 110.592 204.472 110.858 204.939 111.075C205.406 111.275 205.881 111.425 206.364 111.525C206.847 111.625 207.339 111.675 207.839 111.675C208.789 111.675 209.506 111.5 209.989 111.15C210.472 110.8 210.714 110.325 210.714 109.725C210.714 109.258 210.556 108.892 210.239 108.625C209.922 108.342 209.422 108.125 208.739 107.975L206.464 107.475C205.414 107.258 204.631 106.883 204.114 106.35C203.614 105.817 203.364 105.125 203.364 104.275C203.364 103.525 203.556 102.883 203.939 102.35C204.339 101.8 204.897 101.375 205.614 101.075C206.331 100.775 207.164 100.625 208.114 100.625C208.681 100.625 209.222 100.683 209.739 100.8C210.256 100.917 210.739 101.092 211.189 101.325C211.656 101.542 212.056 101.817 212.389 102.15L211.714 103.575C211.397 103.275 211.039 103.025 210.639 102.825C210.239 102.608 209.822 102.45 209.389 102.35C208.972 102.233 208.547 102.175 208.114 102.175C207.181 102.175 206.472 102.358 205.989 102.725C205.506 103.092 205.264 103.575 205.264 104.175C205.264 104.642 205.414 105.025 205.714 105.325C206.014 105.625 206.481 105.842 207.114 105.975L209.389 106.45C210.472 106.683 211.281 107.058 211.814 107.575C212.364 108.075 212.639 108.758 212.639 109.625C212.639 110.358 212.439 111 212.039 111.55C211.639 112.083 211.072 112.5 210.339 112.8C209.622 113.083 208.772 113.225 207.789 113.225ZM220.978 113.225C219.545 113.225 218.47 112.842 217.753 112.075C217.036 111.308 216.678 110.217 216.678 108.8V102.425H214.303V100.85H216.678V97.125H218.703V100.85H222.553V102.425H218.703V108.6C218.703 109.55 218.903 110.275 219.303 110.775C219.703 111.258 220.353 111.5 221.253 111.5C221.52 111.5 221.786 111.467 222.053 111.4C222.32 111.333 222.561 111.267 222.778 111.2L223.128 112.75C222.911 112.867 222.595 112.975 222.178 113.075C221.761 113.175 221.361 113.225 220.978 113.225ZM229.168 113.225C228.335 113.225 227.585 113.067 226.918 112.75C226.268 112.417 225.752 111.967 225.368 111.4C224.985 110.833 224.793 110.2 224.793 109.5C224.793 108.6 225.018 107.892 225.468 107.375C225.935 106.858 226.693 106.492 227.743 106.275C228.81 106.058 230.26 105.95 232.093 105.95H233.218V107.275H232.118C231.102 107.275 230.252 107.308 229.568 107.375C228.885 107.442 228.343 107.558 227.943 107.725C227.543 107.892 227.26 108.108 227.093 108.375C226.927 108.642 226.843 108.975 226.843 109.375C226.843 110.058 227.077 110.617 227.543 111.05C228.027 111.483 228.677 111.7 229.493 111.7C230.16 111.7 230.743 111.542 231.243 111.225C231.76 110.908 232.16 110.475 232.443 109.925C232.743 109.375 232.893 108.742 232.893 108.025V105.175C232.893 104.142 232.685 103.4 232.268 102.95C231.852 102.483 231.168 102.25 230.218 102.25C229.485 102.25 228.777 102.358 228.093 102.575C227.41 102.775 226.71 103.108 225.993 103.575L225.293 102.1C225.727 101.8 226.218 101.542 226.768 101.325C227.318 101.092 227.893 100.917 228.493 100.8C229.093 100.683 229.668 100.625 230.218 100.625C231.268 100.625 232.135 100.8 232.818 101.15C233.502 101.483 234.01 102 234.343 102.7C234.677 103.383 234.843 104.267 234.843 105.35V113H232.943V110.175H233.168C233.035 110.808 232.777 111.35 232.393 111.8C232.027 112.25 231.568 112.6 231.018 112.85C230.468 113.1 229.852 113.225 229.168 113.225ZM239.1 113V100.85H241.075V103.725H240.825C241.109 102.742 241.6 102 242.3 101.5C243 100.983 243.925 100.683 245.075 100.6L245.8 100.525L245.95 102.275L244.675 102.425C243.542 102.525 242.667 102.892 242.05 103.525C241.45 104.142 241.15 104.992 241.15 106.075V113H239.1ZM254.094 113.225C252.661 113.225 251.586 112.842 250.869 112.075C250.153 111.308 249.794 110.217 249.794 108.8V102.425H247.419V100.85H249.794V97.125H251.819V100.85H255.669V102.425H251.819V108.6C251.819 109.55 252.019 110.275 252.419 110.775C252.819 111.258 253.469 111.5 254.369 111.5C254.636 111.5 254.903 111.467 255.169 111.4C255.436 111.333 255.678 111.267 255.894 111.2L256.244 112.75C256.028 112.867 255.711 112.975 255.294 113.075C254.878 113.175 254.478 113.225 254.094 113.225Z" fill="#A594F9"/>
<path d="M142.175 113H141.675V113.5H142.175V113ZM142.175 95.375V94.875H141.675V95.375H142.175ZM144.225 95.375H144.725V94.875H144.225V95.375ZM144.225 111.2H143.725V111.7H144.225V111.2ZM153.2 111.2H153.7V110.7H153.2V111.2ZM153.2 113V113.5H153.7V113H153.2ZM142.675 113V95.375H141.675V113H142.675ZM142.175 95.875H144.225V94.875H142.175V95.875ZM143.725 95.375V111.2H144.725V95.375H143.725ZM144.225 111.7H153.2V110.7H144.225V111.7ZM152.7 111.2V113H153.7V111.2H152.7ZM153.2 112.5H142.175V113.5H153.2V112.5ZM158.002 112.475L157.757 112.911L157.766 112.916L158.002 112.475ZM155.852 110.3L155.411 110.536L155.415 110.542L155.852 110.3ZM155.852 103.65L156.293 103.886L156.295 103.883L155.852 103.65ZM157.902 101.425L157.644 100.997L157.64 100.999L157.902 101.425ZM163.777 101.35L163.515 101.776L163.515 101.776L163.777 101.35ZM165.577 103.4L165.125 103.613L165.128 103.62L165.577 103.4ZM166.227 107.35V107.85H166.727V107.35H166.227ZM156.652 107.35H156.152V107.85H156.652V107.35ZM156.652 106.025V105.525H156.152V106.025H156.652ZM164.877 106.025L165.192 106.413L166.285 105.525H164.877V106.025ZM164.477 106.35H163.977V107.4L164.792 106.738L164.477 106.35ZM163.577 103.25L163.182 103.557L163.19 103.567L163.577 103.25ZM158.827 102.725L159.102 103.143L159.104 103.141L158.827 102.725ZM157.502 104.35L157.96 104.551L157.962 104.547L157.502 104.35ZM157.527 109.475L157.072 109.681L157.076 109.69L157.527 109.475ZM159.002 111.075L158.756 111.511L158.765 111.515L159.002 111.075ZM163.402 111.275L163.557 111.751L163.564 111.748L163.402 111.275ZM165.327 110.15L165.776 109.93L165.491 109.349L165.001 109.771L165.327 110.15ZM166.027 111.575L166.363 111.945L166.642 111.692L166.476 111.355L166.027 111.575ZM163.927 112.775L163.761 112.304L163.761 112.304L163.927 112.775ZM161.327 112.725C160.109 112.725 159.085 112.488 158.238 112.034L157.766 112.916C158.786 113.462 159.979 113.725 161.327 113.725V112.725ZM158.248 112.039C157.413 111.569 156.762 110.911 156.29 110.058L155.415 110.542C155.976 111.555 156.758 112.348 157.757 112.911L158.248 112.039ZM156.293 110.064C155.84 109.218 155.602 108.186 155.602 106.95H154.602C154.602 108.314 154.865 109.515 155.411 110.536L156.293 110.064ZM155.602 106.95C155.602 105.75 155.839 104.734 156.293 103.886L155.411 103.414C154.866 104.433 154.602 105.617 154.602 106.95H155.602ZM156.295 103.883C156.755 103.008 157.378 102.335 158.164 101.851L157.64 100.999C156.693 101.582 155.949 102.392 155.41 103.417L156.295 103.883ZM158.161 101.853C158.957 101.372 159.883 101.125 160.952 101.125V100.125C159.722 100.125 158.614 100.411 157.644 100.997L158.161 101.853ZM160.952 101.125C161.978 101.125 162.824 101.35 163.515 101.776L164.04 100.924C163.163 100.384 162.127 100.125 160.952 100.125V101.125ZM163.515 101.776C164.21 102.205 164.747 102.812 165.125 103.613L166.029 103.187C165.574 102.221 164.911 101.462 164.04 100.924L163.515 101.776ZM165.128 103.62C165.521 104.42 165.727 105.399 165.727 106.575H166.727C166.727 105.284 166.5 104.147 166.026 103.18L165.128 103.62ZM165.727 106.575V107.35H166.727V106.575H165.727ZM166.227 106.85H156.652V107.85H166.227V106.85ZM157.152 107.35V106.025H156.152V107.35H157.152ZM156.652 106.525H164.877V105.525H156.652V106.525ZM164.562 105.637L164.162 105.962L164.792 106.738L165.192 106.413L164.562 105.637ZM164.977 106.35C164.977 104.948 164.662 103.786 163.964 102.933L163.19 103.567C163.692 104.18 163.977 105.086 163.977 106.35H164.977ZM163.972 102.943C163.275 102.047 162.256 101.625 161.002 101.625V102.625C162.014 102.625 162.713 102.953 163.182 103.557L163.972 102.943ZM161.002 101.625C160.071 101.625 159.246 101.845 158.55 102.309L159.104 103.141C159.609 102.805 160.233 102.625 161.002 102.625V101.625ZM158.553 102.307C157.88 102.749 157.378 103.371 157.043 104.153L157.962 104.547C158.227 103.929 158.608 103.467 159.102 103.143L158.553 102.307ZM157.044 104.149C156.711 104.908 156.552 105.78 156.552 106.75H157.552C157.552 105.887 157.693 105.158 157.96 104.551L157.044 104.149ZM156.552 106.75V106.9H157.552V106.75H156.552ZM156.552 106.9C156.552 107.966 156.718 108.899 157.072 109.681L157.983 109.269C157.703 108.651 157.552 107.867 157.552 106.9H156.552ZM157.076 109.69C157.451 110.479 158.013 111.091 158.756 111.51L159.248 110.64C158.691 110.325 158.269 109.871 157.979 109.26L157.076 109.69ZM158.765 111.515C159.502 111.912 160.362 112.1 161.327 112.1V111.1C160.492 111.1 159.802 110.938 159.239 110.635L158.765 111.515ZM161.327 112.1C162.095 112.1 162.839 111.984 163.557 111.751L163.248 110.799C162.632 111 161.993 111.1 161.327 111.1V112.1ZM163.564 111.748C164.313 111.492 165.01 111.083 165.653 110.529L165.001 109.771C164.445 110.25 163.858 110.591 163.241 110.802L163.564 111.748ZM164.878 110.37L165.578 111.795L166.476 111.355L165.776 109.93L164.878 110.37ZM165.691 111.205C165.199 111.652 164.561 112.021 163.761 112.304L164.094 113.246C164.993 112.929 165.755 112.498 166.363 111.945L165.691 111.205ZM163.761 112.304C162.963 112.585 162.153 112.725 161.327 112.725V113.725C162.268 113.725 163.191 113.565 164.094 113.246L163.761 112.304ZM171.308 112.075L170.943 112.416L170.943 112.416L171.308 112.075ZM170.233 102.425H170.733V101.925H170.233V102.425ZM167.858 102.425H167.358V102.925H167.858V102.425ZM167.858 100.85V100.35H167.358V100.85H167.858ZM170.233 100.85V101.35H170.733V100.85H170.233ZM170.233 97.125V96.625H169.733V97.125H170.233ZM172.258 97.125H172.758V96.625H172.258V97.125ZM172.258 100.85H171.758V101.35H172.258V100.85ZM176.108 100.85H176.608V100.35H176.108V100.85ZM176.108 102.425V102.925H176.608V102.425H176.108ZM172.258 102.425V101.925H171.758V102.425H172.258ZM172.858 110.775L172.467 111.087L172.473 111.094L172.858 110.775ZM176.333 111.2L176.821 111.09L176.702 110.563L176.186 110.722L176.333 111.2ZM176.683 112.75L176.92 113.19L177.254 113.01L177.171 112.64L176.683 112.75ZM175.733 113.075L175.616 112.589L175.733 113.075ZM174.533 112.725C173.186 112.725 172.265 112.366 171.673 111.734L170.943 112.416C171.784 113.317 173.013 113.725 174.533 113.725V112.725ZM171.673 111.734C171.07 111.088 170.733 110.135 170.733 108.8H169.733C169.733 110.298 170.113 111.529 170.943 112.416L171.673 111.734ZM170.733 108.8V102.425H169.733V108.8H170.733ZM170.233 101.925H167.858V102.925H170.233V101.925ZM168.358 102.425V100.85H167.358V102.425H168.358ZM167.858 101.35H170.233V100.35H167.858V101.35ZM170.733 100.85V97.125H169.733V100.85H170.733ZM170.233 97.625H172.258V96.625H170.233V97.625ZM171.758 97.125V100.85H172.758V97.125H171.758ZM172.258 101.35H176.108V100.35H172.258V101.35ZM175.608 100.85V102.425H176.608V100.85H175.608ZM176.108 101.925H172.258V102.925H176.108V101.925ZM171.758 102.425V108.6H172.758V102.425H171.758ZM171.758 108.6C171.758 109.611 171.969 110.465 172.467 111.087L173.248 110.463C172.946 110.085 172.758 109.489 172.758 108.6H171.758ZM172.473 111.094C173.003 111.735 173.826 112 174.808 112V111C173.99 111 173.512 110.782 173.243 110.456L172.473 111.094ZM174.808 112C175.117 112 175.424 111.961 175.729 111.885L175.487 110.915C175.258 110.972 175.032 111 174.808 111V112ZM175.729 111.885C176.003 111.817 176.253 111.748 176.48 111.678L176.186 110.722C175.979 110.786 175.746 110.85 175.487 110.915L175.729 111.885ZM175.845 111.31L176.195 112.86L177.171 112.64L176.821 111.09L175.845 111.31ZM176.446 112.31C176.285 112.396 176.017 112.493 175.616 112.589L175.849 113.561C176.282 113.457 176.647 113.337 176.92 113.19L176.446 112.31ZM175.616 112.589C175.233 112.681 174.873 112.725 174.533 112.725V113.725C174.96 113.725 175.399 113.669 175.849 113.561L175.616 112.589ZM179.501 100.8L179.186 101.188L179.529 101.466L179.847 101.161L179.501 100.8ZM178.576 100.05L178.222 99.6964L177.83 100.089L178.261 100.438L178.576 100.05ZM179.251 99.175L178.82 98.9215L178.814 98.9311L178.809 98.9411L179.251 99.175ZM179.576 98.35L179.091 98.2287L179.087 98.2432L179.085 98.2579L179.576 98.35ZM179.676 97.525L179.946 97.1039L179.176 96.6114V97.525H179.676ZM180.301 97.925V98.425H182.01L180.571 97.5039L180.301 97.925ZM178.476 97.925H177.976V98.425H178.476V97.925ZM178.476 95.375V94.875H177.976V95.375H178.476ZM181.026 95.375H181.526V94.875H181.026V95.375ZM180.876 98.475L180.39 98.3583L180.388 98.3656L180.386 98.373L180.876 98.475ZM179.816 100.412L178.891 99.6616L178.261 100.438L179.186 101.188L179.816 100.412ZM178.93 100.404C179.254 100.079 179.513 99.7479 179.693 99.4089L178.809 98.9411C178.689 99.1687 178.498 99.421 178.222 99.6964L178.93 100.404ZM179.682 99.4285C179.872 99.1055 180.005 98.7763 180.067 98.4421L179.085 98.2579C179.047 98.457 178.963 98.6778 178.82 98.9215L179.682 99.4285ZM180.061 98.4713C180.138 98.1637 180.176 97.848 180.176 97.525H179.176C179.176 97.7687 179.147 98.0029 179.091 98.2287L180.061 98.4713ZM179.406 97.9461L180.031 98.3461L180.571 97.5039L179.946 97.1039L179.406 97.9461ZM180.301 97.425H178.476V98.425H180.301V97.425ZM178.976 97.925V95.375H177.976V97.925H178.976ZM178.476 95.875H181.026V94.875H178.476V95.875ZM180.526 95.375V97.175H181.526V95.375H180.526ZM180.526 97.175C180.526 97.5877 180.48 97.9817 180.39 98.3583L181.362 98.5917C181.472 98.1349 181.526 97.6623 181.526 97.175H180.526ZM180.386 98.373C180.314 98.7187 180.184 99.0621 179.991 99.404L180.861 99.896C181.101 99.4712 181.271 99.0313 181.365 98.577L180.386 98.373ZM179.991 99.404C179.803 99.7355 179.528 100.081 179.155 100.439L179.847 101.161C180.274 100.752 180.615 100.331 180.861 99.896L179.991 99.404ZM186.482 113.025L186.591 112.537L186.58 112.535L186.482 113.025ZM184.832 112.525L184.621 112.978L184.63 112.982L184.639 112.986L184.832 112.525ZM183.532 111.7L183.077 111.492L182.922 111.833L183.205 112.078L183.532 111.7ZM184.182 110.275L184.492 109.883L183.992 109.487L183.727 110.067L184.182 110.275ZM185.482 111.075L185.271 111.529L185.278 111.532L185.285 111.535L185.482 111.075ZM190.532 111.15L190.239 110.745L190.239 110.745L190.532 111.15ZM190.782 108.625L190.449 108.998L190.454 109.003L190.46 109.007L190.782 108.625ZM189.282 107.975L189.175 108.463L189.175 108.463L189.282 107.975ZM187.007 107.475L187.114 106.987L187.108 106.985L187.007 107.475ZM184.657 106.35L184.292 106.692L184.298 106.698L184.657 106.35ZM184.482 102.35L184.078 102.056L184.076 102.058L184.482 102.35ZM186.157 101.075L186.35 101.536L186.35 101.536L186.157 101.075ZM190.282 100.8L190.392 100.312L190.392 100.312L190.282 100.8ZM191.732 101.325L191.502 101.769L191.512 101.774L191.521 101.779L191.732 101.325ZM192.932 102.15L193.384 102.364L193.535 102.046L193.286 101.796L192.932 102.15ZM192.257 103.575L191.913 103.938L192.414 104.412L192.709 103.789L192.257 103.575ZM191.182 102.825L190.944 103.265L190.951 103.269L190.958 103.272L191.182 102.825ZM189.932 102.35L189.797 102.831L189.808 102.835L189.82 102.837L189.932 102.35ZM186.532 102.725L186.834 103.123L186.834 103.123L186.532 102.725ZM186.257 105.325L185.903 105.679L185.903 105.679L186.257 105.325ZM187.657 105.975L187.554 106.464L187.555 106.464L187.657 105.975ZM189.932 106.45L190.037 105.961L190.034 105.961L189.932 106.45ZM192.357 107.575L192.009 107.934L192.015 107.94L192.021 107.945L192.357 107.575ZM192.582 111.55L192.982 111.85L192.986 111.844L192.582 111.55ZM190.882 112.8L191.066 113.265L191.071 113.263L190.882 112.8ZM188.332 112.725C187.734 112.725 187.154 112.662 186.59 112.537L186.374 113.513C187.01 113.655 187.663 113.725 188.332 113.725V112.725ZM186.58 112.535C186.027 112.424 185.51 112.267 185.025 112.064L184.639 112.986C185.188 113.216 185.77 113.392 186.384 113.515L186.58 112.535ZM185.043 112.072C184.58 111.855 184.186 111.604 183.859 111.322L183.205 112.078C183.611 112.429 184.085 112.728 184.621 112.978L185.043 112.072ZM183.987 111.908L184.637 110.483L183.727 110.067L183.077 111.492L183.987 111.908ZM183.872 110.667C184.303 111.008 184.77 111.295 185.271 111.529L185.693 110.621C185.261 110.421 184.861 110.175 184.492 109.883L183.872 110.667ZM185.285 111.535C185.782 111.747 186.289 111.908 186.806 112.015L187.008 111.035C186.559 110.942 186.116 110.803 185.679 110.615L185.285 111.535ZM186.806 112.015C187.323 112.122 187.848 112.175 188.382 112.175V111.175C187.916 111.175 187.458 111.128 187.008 111.035L186.806 112.015ZM188.382 112.175C189.38 112.175 190.22 111.994 190.825 111.555L190.239 110.745C189.878 111.006 189.284 111.175 188.382 111.175V112.175ZM190.825 111.555C191.439 111.11 191.757 110.484 191.757 109.725H190.757C190.757 110.166 190.591 110.49 190.239 110.745L190.825 111.555ZM191.757 109.725C191.757 109.132 191.549 108.617 191.104 108.243L190.46 109.007C190.649 109.166 190.757 109.385 190.757 109.725H191.757ZM191.115 108.252C190.706 107.886 190.108 107.644 189.389 107.487L189.175 108.463C189.822 108.606 190.225 108.798 190.449 108.998L191.115 108.252ZM189.389 107.487L187.114 106.987L186.9 107.963L189.175 108.463L189.389 107.487ZM187.108 106.985C186.115 106.78 185.438 106.438 185.016 106.002L184.298 106.698C184.909 107.329 185.799 107.736 186.906 107.965L187.108 106.985ZM185.022 106.008C184.623 105.582 184.407 105.02 184.407 104.275H183.407C183.407 105.23 183.691 106.051 184.292 106.692L185.022 106.008ZM184.407 104.275C184.407 103.614 184.574 103.078 184.888 102.642L184.076 102.058C183.623 102.688 183.407 103.436 183.407 104.275H184.407ZM184.886 102.644C185.225 102.178 185.706 101.806 186.35 101.536L185.964 100.614C185.175 100.944 184.539 101.422 184.078 102.056L184.886 102.644ZM186.35 101.536C186.994 101.267 187.759 101.125 188.657 101.125V100.125C187.655 100.125 186.754 100.283 185.964 100.614L186.35 101.536ZM188.657 101.125C189.189 101.125 189.694 101.18 190.172 101.288L190.392 100.312C189.837 100.187 189.258 100.125 188.657 100.125V101.125ZM190.172 101.288C190.649 101.395 191.092 101.556 191.502 101.769L191.962 100.881C191.473 100.627 190.949 100.438 190.392 100.312L190.172 101.288ZM191.521 101.779C191.94 101.973 192.29 102.215 192.578 102.504L193.286 101.796C192.907 101.418 192.458 101.111 191.943 100.871L191.521 101.779ZM192.48 101.936L191.805 103.361L192.709 103.789L193.384 102.364L192.48 101.936ZM192.601 103.212C192.248 102.877 191.849 102.599 191.406 102.378L190.958 103.272C191.316 103.451 191.633 103.673 191.913 103.938L192.601 103.212ZM191.42 102.385C190.982 102.148 190.523 101.973 190.044 101.863L189.82 102.837C190.208 102.927 190.583 103.069 190.944 103.265L191.42 102.385ZM190.067 101.869C189.606 101.74 189.136 101.675 188.657 101.675V102.675C189.045 102.675 189.425 102.727 189.797 102.831L190.067 101.869ZM188.657 101.675C187.67 101.675 186.836 101.867 186.23 102.327L186.834 103.123C187.195 102.85 187.777 102.675 188.657 102.675V101.675ZM186.23 102.327C185.624 102.787 185.307 103.417 185.307 104.175H186.307C186.307 103.733 186.474 103.397 186.834 103.123L186.23 102.327ZM185.307 104.175C185.307 104.76 185.5 105.275 185.903 105.679L186.611 104.971C186.414 104.775 186.307 104.524 186.307 104.175H185.307ZM185.903 105.679C186.299 106.074 186.872 106.321 187.554 106.464L187.76 105.486C187.175 105.363 186.815 105.176 186.611 104.971L185.903 105.679ZM187.555 106.464L189.83 106.939L190.034 105.961L187.759 105.486L187.555 106.464ZM189.827 106.939C190.861 107.161 191.568 107.507 192.009 107.934L192.705 107.216C192.079 106.61 191.17 106.205 190.037 105.961L189.827 106.939ZM192.021 107.945C192.449 108.334 192.682 108.874 192.682 109.625H193.682C193.682 108.643 193.365 107.816 192.693 107.205L192.021 107.945ZM192.682 109.625C192.682 110.261 192.511 110.798 192.178 111.256L192.986 111.844C193.454 111.202 193.682 110.455 193.682 109.625H192.682ZM192.182 111.25C191.846 111.698 191.358 112.065 190.693 112.337L191.071 113.263C191.872 112.935 192.518 112.468 192.982 111.85L192.182 111.25ZM190.698 112.335C190.054 112.59 189.269 112.725 188.332 112.725V113.725C189.362 113.725 190.277 113.577 191.066 113.265L190.698 112.335ZM205.939 113.025L206.048 112.537L206.037 112.535L205.939 113.025ZM204.289 112.525L204.078 112.978L204.087 112.982L204.096 112.986L204.289 112.525ZM202.989 111.7L202.534 111.492L202.379 111.833L202.662 112.078L202.989 111.7ZM203.639 110.275L203.949 109.883L203.449 109.487L203.184 110.067L203.639 110.275ZM204.939 111.075L204.729 111.529L204.735 111.532L204.742 111.535L204.939 111.075ZM209.989 111.15L209.696 110.745L209.696 110.745L209.989 111.15ZM210.239 108.625L209.906 108.998L209.911 109.003L209.917 109.007L210.239 108.625ZM208.739 107.975L208.632 108.463L208.632 108.463L208.739 107.975ZM206.464 107.475L206.571 106.987L206.565 106.985L206.464 107.475ZM204.114 106.35L203.749 106.692L203.755 106.698L204.114 106.35ZM203.939 102.35L203.535 102.056L203.533 102.058L203.939 102.35ZM205.614 101.075L205.807 101.536L205.807 101.536L205.614 101.075ZM209.739 100.8L209.849 100.312L209.849 100.312L209.739 100.8ZM211.189 101.325L210.959 101.769L210.969 101.774L210.979 101.779L211.189 101.325ZM212.389 102.15L212.841 102.364L212.992 102.046L212.743 101.796L212.389 102.15ZM211.714 103.575L211.37 103.938L211.871 104.412L212.166 103.789L211.714 103.575ZM210.639 102.825L210.401 103.265L210.408 103.269L210.415 103.272L210.639 102.825ZM209.389 102.35L209.254 102.831L209.265 102.835L209.277 102.837L209.389 102.35ZM205.989 102.725L206.291 103.123L206.291 103.123L205.989 102.725ZM205.714 105.325L205.361 105.679L205.361 105.679L205.714 105.325ZM207.114 105.975L207.011 106.464L207.012 106.464L207.114 105.975ZM209.389 106.45L209.494 105.961L209.491 105.961L209.389 106.45ZM211.814 107.575L211.466 107.934L211.472 107.94L211.478 107.945L211.814 107.575ZM212.039 111.55L212.439 111.85L212.443 111.844L212.039 111.55ZM210.339 112.8L210.523 113.265L210.528 113.263L210.339 112.8ZM207.789 112.725C207.191 112.725 206.611 112.662 206.048 112.537L205.831 113.513C206.467 113.655 207.12 113.725 207.789 113.725V112.725ZM206.037 112.535C205.484 112.424 204.967 112.267 204.482 112.064L204.096 112.986C204.645 113.216 205.227 113.392 205.841 113.515L206.037 112.535ZM204.501 112.072C204.037 111.855 203.643 111.604 203.316 111.322L202.662 112.078C203.068 112.429 203.542 112.728 204.078 112.978L204.501 112.072ZM203.444 111.908L204.094 110.483L203.184 110.067L202.534 111.492L203.444 111.908ZM203.329 110.667C203.76 111.008 204.227 111.295 204.729 111.529L205.15 110.621C204.718 110.421 204.318 110.175 203.949 109.883L203.329 110.667ZM204.742 111.535C205.239 111.747 205.746 111.908 206.263 112.015L206.465 111.035C206.016 110.942 205.573 110.803 205.136 110.615L204.742 111.535ZM206.263 112.015C206.78 112.122 207.305 112.175 207.839 112.175V111.175C207.373 111.175 206.915 111.128 206.465 111.035L206.263 112.015ZM207.839 112.175C208.837 112.175 209.677 111.994 210.282 111.555L209.696 110.745C209.335 111.006 208.741 111.175 207.839 111.175V112.175ZM210.282 111.555C210.896 111.11 211.214 110.484 211.214 109.725H210.214C210.214 110.166 210.048 110.49 209.696 110.745L210.282 111.555ZM211.214 109.725C211.214 109.132 211.006 108.617 210.561 108.243L209.917 109.007C210.106 109.166 210.214 109.385 210.214 109.725H211.214ZM210.572 108.252C210.163 107.886 209.565 107.644 208.846 107.487L208.632 108.463C209.279 108.606 209.682 108.798 209.906 108.998L210.572 108.252ZM208.846 107.487L206.571 106.987L206.357 107.963L208.632 108.463L208.846 107.487ZM206.565 106.985C205.572 106.78 204.895 106.438 204.473 106.002L203.755 106.698C204.366 107.329 205.256 107.736 206.363 107.965L206.565 106.985ZM204.479 106.008C204.08 105.582 203.864 105.02 203.864 104.275H202.864C202.864 105.23 203.148 106.051 203.749 106.692L204.479 106.008ZM203.864 104.275C203.864 103.614 204.031 103.078 204.345 102.642L203.533 102.058C203.08 102.688 202.864 103.436 202.864 104.275H203.864ZM204.343 102.644C204.682 102.178 205.163 101.806 205.807 101.536L205.421 100.614C204.632 100.944 203.996 101.422 203.535 102.056L204.343 102.644ZM205.807 101.536C206.451 101.267 207.216 101.125 208.114 101.125V100.125C207.112 100.125 206.211 100.283 205.421 100.614L205.807 101.536ZM208.114 101.125C208.646 101.125 209.151 101.18 209.629 101.288L209.849 100.312C209.294 100.187 208.715 100.125 208.114 100.125V101.125ZM209.629 101.288C210.106 101.395 210.549 101.556 210.959 101.769L211.419 100.881C210.93 100.627 210.406 100.438 209.849 100.312L209.629 101.288ZM210.979 101.779C211.397 101.973 211.747 102.215 212.036 102.504L212.743 101.796C212.364 101.418 211.915 101.111 211.4 100.871L210.979 101.779ZM211.937 101.936L211.262 103.361L212.166 103.789L212.841 102.364L211.937 101.936ZM212.058 103.212C211.705 102.877 211.306 102.599 210.863 102.378L210.415 103.272C210.773 103.451 211.09 103.673 211.37 103.938L212.058 103.212ZM210.877 102.385C210.439 102.148 209.98 101.973 209.501 101.863L209.277 102.837C209.665 102.927 210.04 103.069 210.401 103.265L210.877 102.385ZM209.524 101.869C209.063 101.74 208.593 101.675 208.114 101.675V102.675C208.502 102.675 208.882 102.727 209.254 102.831L209.524 101.869ZM208.114 101.675C207.127 101.675 206.293 101.867 205.687 102.327L206.291 103.123C206.652 102.85 207.234 102.675 208.114 102.675V101.675ZM205.687 102.327C205.081 102.787 204.764 103.417 204.764 104.175H205.764C205.764 103.733 205.931 103.397 206.291 103.123L205.687 102.327ZM204.764 104.175C204.764 104.76 204.957 105.275 205.361 105.679L206.068 104.971C205.871 104.775 205.764 104.524 205.764 104.175H204.764ZM205.361 105.679C205.756 106.074 206.329 106.321 207.011 106.464L207.217 105.486C206.632 105.363 206.272 105.176 206.068 104.971L205.361 105.679ZM207.012 106.464L209.287 106.939L209.491 105.961L207.216 105.486L207.012 106.464ZM209.284 106.939C210.318 107.161 211.025 107.507 211.466 107.934L212.162 107.216C211.536 106.61 210.627 106.205 209.494 105.961L209.284 106.939ZM211.478 107.945C211.906 108.334 212.139 108.874 212.139 109.625H213.139C213.139 108.643 212.822 107.816 212.15 107.205L211.478 107.945ZM212.139 109.625C212.139 110.261 211.968 110.798 211.635 111.256L212.443 111.844C212.911 111.202 213.139 110.455 213.139 109.625H212.139ZM211.639 111.25C211.303 111.698 210.815 112.065 210.15 112.337L210.528 113.263C211.329 112.935 211.975 112.468 212.439 111.85L211.639 111.25ZM210.155 112.335C209.511 112.59 208.726 112.725 207.789 112.725V113.725C208.819 113.725 209.734 113.577 210.523 113.265L210.155 112.335ZM217.753 112.075L217.388 112.416L217.388 112.416L217.753 112.075ZM216.678 102.425H217.178V101.925H216.678V102.425ZM214.303 102.425H213.803V102.925H214.303V102.425ZM214.303 100.85V100.35H213.803V100.85H214.303ZM216.678 100.85V101.35H217.178V100.85H216.678ZM216.678 97.125V96.625H216.178V97.125H216.678ZM218.703 97.125H219.203V96.625H218.703V97.125ZM218.703 100.85H218.203V101.35H218.703V100.85ZM222.553 100.85H223.053V100.35H222.553V100.85ZM222.553 102.425V102.925H223.053V102.425H222.553ZM218.703 102.425V101.925H218.203V102.425H218.703ZM219.303 110.775L218.913 111.087L218.918 111.094L219.303 110.775ZM222.778 111.2L223.266 111.09L223.147 110.563L222.631 110.722L222.778 111.2ZM223.128 112.75L223.365 113.19L223.699 113.01L223.616 112.64L223.128 112.75ZM222.178 113.075L222.061 112.589L222.178 113.075ZM220.978 112.725C219.631 112.725 218.71 112.366 218.118 111.734L217.388 112.416C218.23 113.317 219.459 113.725 220.978 113.725V112.725ZM218.118 111.734C217.515 111.088 217.178 110.135 217.178 108.8H216.178C216.178 110.298 216.558 111.529 217.388 112.416L218.118 111.734ZM217.178 108.8V102.425H216.178V108.8H217.178ZM216.678 101.925H214.303V102.925H216.678V101.925ZM214.803 102.425V100.85H213.803V102.425H214.803ZM214.303 101.35H216.678V100.35H214.303V101.35ZM217.178 100.85V97.125H216.178V100.85H217.178ZM216.678 97.625H218.703V96.625H216.678V97.625ZM218.203 97.125V100.85H219.203V97.125H218.203ZM218.703 101.35H222.553V100.35H218.703V101.35ZM222.053 100.85V102.425H223.053V100.85H222.053ZM222.553 101.925H218.703V102.925H222.553V101.925ZM218.203 102.425V108.6H219.203V102.425H218.203ZM218.203 108.6C218.203 109.611 218.415 110.465 218.913 111.087L219.694 110.463C219.392 110.085 219.203 109.489 219.203 108.6H218.203ZM218.918 111.094C219.449 111.735 220.271 112 221.253 112V111C220.435 111 219.958 110.782 219.688 110.456L218.918 111.094ZM221.253 112C221.562 112 221.869 111.961 222.174 111.885L221.932 110.915C221.704 110.972 221.478 111 221.253 111V112ZM222.174 111.885C222.448 111.817 222.698 111.748 222.925 111.678L222.631 110.722C222.425 110.786 222.192 110.85 221.932 110.915L222.174 111.885ZM222.29 111.31L222.64 112.86L223.616 112.64L223.266 111.09L222.29 111.31ZM222.891 112.31C222.73 112.396 222.462 112.493 222.061 112.589L222.295 113.561C222.727 113.457 223.093 113.337 223.365 113.19L222.891 112.31ZM222.061 112.589C221.679 112.681 221.318 112.725 220.978 112.725V113.725C221.405 113.725 221.844 113.669 222.295 113.561L222.061 112.589ZM226.918 112.75L226.69 113.195L226.697 113.198L226.704 113.202L226.918 112.75ZM225.368 111.4L225.783 111.12L225.783 111.12L225.368 111.4ZM225.468 107.375L225.097 107.04L225.091 107.047L225.468 107.375ZM227.743 106.275L227.644 105.785L227.642 105.785L227.743 106.275ZM233.218 105.95H233.718V105.45H233.218V105.95ZM233.218 107.275V107.775H233.718V107.275H233.218ZM229.568 107.375L229.617 107.873L229.617 107.873L229.568 107.375ZM227.093 108.375L227.517 108.64L227.517 108.64L227.093 108.375ZM227.543 111.05L227.203 111.416L227.21 111.422L227.543 111.05ZM231.243 111.225L230.982 110.799L230.976 110.803L231.243 111.225ZM232.443 109.925L232.004 109.686L231.999 109.696L232.443 109.925ZM232.268 102.95L231.895 103.283L231.901 103.29L232.268 102.95ZM228.093 102.575L228.234 103.055L228.244 103.052L228.093 102.575ZM225.993 103.575L225.542 103.789L225.787 104.306L226.266 103.994L225.993 103.575ZM225.293 102.1L225.009 101.689L224.66 101.931L224.842 102.314L225.293 102.1ZM226.768 101.325L226.952 101.79L226.964 101.785L226.768 101.325ZM232.818 101.15L232.59 101.595L232.599 101.599L232.818 101.15ZM234.343 102.7L233.892 102.915L233.894 102.919L234.343 102.7ZM234.843 113V113.5H235.343V113H234.843ZM232.943 113H232.443V113.5H232.943V113ZM232.943 110.175V109.675H232.443V110.175H232.943ZM233.168 110.175L233.658 110.278L233.785 109.675H233.168V110.175ZM232.393 111.8L232.013 111.476L232.006 111.484L232.393 111.8ZM231.018 112.85L230.811 112.395L230.811 112.395L231.018 112.85ZM229.168 112.725C228.4 112.725 227.724 112.579 227.133 112.298L226.704 113.202C227.446 113.554 228.27 113.725 229.168 113.725V112.725ZM227.147 112.305C226.566 112.007 226.116 111.612 225.783 111.12L224.954 111.68C225.388 112.321 225.971 112.826 226.69 113.195L227.147 112.305ZM225.783 111.12C225.456 110.638 225.293 110.103 225.293 109.5H224.293C224.293 110.297 224.514 111.029 224.954 111.68L225.783 111.12ZM225.293 109.5C225.293 108.682 225.497 108.104 225.845 107.703L225.091 107.047C224.54 107.68 224.293 108.518 224.293 109.5H225.293ZM225.839 107.71C226.206 107.305 226.846 106.971 227.844 106.765L227.642 105.785C226.541 106.013 225.664 106.412 225.097 107.04L225.839 107.71ZM227.843 106.765C228.862 106.558 230.274 106.45 232.093 106.45V105.45C230.246 105.45 228.758 105.559 227.644 105.785L227.843 106.765ZM232.093 106.45H233.218V105.45H232.093V106.45ZM232.718 105.95V107.275H233.718V105.95H232.718ZM233.218 106.775H232.118V107.775H233.218V106.775ZM232.118 106.775C231.092 106.775 230.225 106.809 229.52 106.877L229.617 107.873C230.278 107.808 231.111 107.775 232.118 107.775V106.775ZM229.52 106.877C228.812 106.946 228.216 107.07 227.751 107.263L228.136 108.187C228.471 108.047 228.958 107.937 229.617 107.873L229.52 106.877ZM227.751 107.263C227.291 107.455 226.908 107.728 226.669 108.11L227.517 108.64C227.612 108.489 227.796 108.328 228.136 108.187L227.751 107.263ZM226.669 108.11C226.441 108.475 226.343 108.907 226.343 109.375H227.343C227.343 109.043 227.412 108.808 227.517 108.64L226.669 108.11ZM226.343 109.375C226.343 110.186 226.627 110.881 227.203 111.416L227.884 110.684C227.527 110.352 227.343 109.931 227.343 109.375H226.343ZM227.21 111.422C227.807 111.957 228.586 112.2 229.493 112.2V111.2C228.767 111.2 228.247 111.009 227.877 110.678L227.21 111.422ZM229.493 112.2C230.242 112.2 230.921 112.021 231.511 111.647L230.976 110.803C230.566 111.062 230.078 111.2 229.493 111.2V112.2ZM231.505 111.651C232.101 111.286 232.564 110.783 232.888 110.154L231.999 109.696C231.756 110.167 231.419 110.531 230.982 110.799L231.505 111.651ZM232.882 110.164C233.228 109.531 233.393 108.813 233.393 108.025H232.393C232.393 108.67 232.259 109.219 232.004 109.686L232.882 110.164ZM233.393 108.025V105.175H232.393V108.025H233.393ZM233.393 105.175C233.393 104.096 233.18 103.198 232.635 102.61L231.901 103.29C232.19 103.602 232.393 104.187 232.393 105.175H233.393ZM232.641 102.617C232.09 101.999 231.237 101.75 230.218 101.75V102.75C231.1 102.75 231.614 102.967 231.895 103.283L232.641 102.617ZM230.218 101.75C229.435 101.75 228.676 101.866 227.942 102.098L228.244 103.052C228.878 102.851 229.535 102.75 230.218 102.75V101.75ZM227.953 102.095C227.214 102.311 226.47 102.668 225.721 103.156L226.266 103.994C226.95 103.549 227.606 103.239 228.234 103.055L227.953 102.095ZM226.445 103.361L225.745 101.886L224.842 102.314L225.542 103.789L226.445 103.361ZM225.578 102.511C225.976 102.235 226.433 101.994 226.952 101.79L226.585 100.86C226.004 101.089 225.477 101.365 225.009 101.689L225.578 102.511ZM226.964 101.785C227.481 101.566 228.022 101.401 228.589 101.291L228.398 100.309C227.764 100.432 227.156 100.617 226.573 100.865L226.964 101.785ZM228.589 101.291C229.161 101.18 229.704 101.125 230.218 101.125V100.125C229.633 100.125 229.026 100.187 228.398 100.309L228.589 101.291ZM230.218 101.125C231.217 101.125 231.999 101.292 232.59 101.595L233.046 100.705C232.271 100.308 231.32 100.125 230.218 100.125V101.125ZM232.599 101.599C233.179 101.882 233.606 102.315 233.892 102.915L234.795 102.485C234.414 101.685 233.825 101.085 233.038 100.701L232.599 101.599ZM233.894 102.919C234.183 103.512 234.343 104.313 234.343 105.35H235.343C235.343 104.221 235.17 103.255 234.793 102.481L233.894 102.919ZM234.343 105.35V113H235.343V105.35H234.343ZM234.843 112.5H232.943V113.5H234.843V112.5ZM233.443 113V110.175H232.443V113H233.443ZM232.943 110.675H233.168V109.675H232.943V110.675ZM232.679 110.072C232.561 110.632 232.337 111.095 232.013 111.476L232.774 112.124C233.216 111.605 233.509 110.985 233.658 110.278L232.679 110.072ZM232.006 111.484C231.69 111.872 231.294 112.175 230.811 112.395L231.225 113.305C231.842 113.025 232.364 112.628 232.781 112.116L232.006 111.484ZM230.811 112.395C230.334 112.612 229.79 112.725 229.168 112.725V113.725C229.914 113.725 230.602 113.588 231.225 113.305L230.811 112.395ZM239.1 113H238.6V113.5H239.1V113ZM239.1 100.85V100.35H238.6V100.85H239.1ZM241.075 100.85H241.575V100.35H241.075V100.85ZM241.075 103.725V104.225H241.575V103.725H241.075ZM240.825 103.725L240.345 103.587L240.161 104.225H240.825V103.725ZM242.3 101.5L242.591 101.907L242.597 101.902L242.3 101.5ZM245.075 100.6L245.111 101.099L245.119 101.098L245.127 101.097L245.075 100.6ZM245.8 100.525L246.298 100.482L246.255 99.9753L245.749 100.028L245.8 100.525ZM245.95 102.275L246.009 102.772L246.49 102.715L246.448 102.232L245.95 102.275ZM244.675 102.425L244.719 102.923L244.726 102.922L244.734 102.922L244.675 102.425ZM242.05 103.525L241.692 103.176L241.692 103.176L242.05 103.525ZM241.15 113V113.5H241.65V113H241.15ZM239.6 113V100.85H238.6V113H239.6ZM239.1 101.35H241.075V100.35H239.1V101.35ZM240.575 100.85V103.725H241.575V100.85H240.575ZM241.075 103.225H240.825V104.225H241.075V103.225ZM241.306 103.863C241.564 102.967 241.999 102.33 242.591 101.907L242.01 101.093C241.201 101.67 240.653 102.516 240.345 103.587L241.306 103.863ZM242.597 101.902C243.2 101.457 244.026 101.177 245.111 101.099L245.039 100.101C243.825 100.189 242.8 100.509 242.003 101.098L242.597 101.902ZM245.127 101.097L245.852 101.022L245.749 100.028L245.024 100.103L245.127 101.097ZM245.302 100.568L245.452 102.318L246.448 102.232L246.298 100.482L245.302 100.568ZM245.892 101.778L244.617 101.928L244.734 102.922L246.009 102.772L245.892 101.778ZM244.631 101.927C243.414 102.034 242.414 102.435 241.692 103.176L242.408 103.874C242.92 103.348 243.67 103.016 244.719 102.923L244.631 101.927ZM241.692 103.176C240.979 103.909 240.65 104.897 240.65 106.075H241.65C241.65 105.086 241.921 104.374 242.409 103.874L241.692 103.176ZM240.65 106.075V113H241.65V106.075H240.65ZM241.15 112.5H239.1V113.5H241.15V112.5ZM250.869 112.075L250.504 112.416L250.504 112.416L250.869 112.075ZM249.794 102.425H250.294V101.925H249.794V102.425ZM247.419 102.425H246.919V102.925H247.419V102.425ZM247.419 100.85V100.35H246.919V100.85H247.419ZM249.794 100.85V101.35H250.294V100.85H249.794ZM249.794 97.125V96.625H249.294V97.125H249.794ZM251.819 97.125H252.319V96.625H251.819V97.125ZM251.819 100.85H251.319V101.35H251.819V100.85ZM255.669 100.85H256.169V100.35H255.669V100.85ZM255.669 102.425V102.925H256.169V102.425H255.669ZM251.819 102.425V101.925H251.319V102.425H251.819ZM252.419 110.775L252.029 111.087L252.034 111.094L252.419 110.775ZM255.894 111.2L256.382 111.09L256.263 110.563L255.747 110.722L255.894 111.2ZM256.244 112.75L256.481 113.19L256.816 113.01L256.732 112.64L256.244 112.75ZM255.294 113.075L255.178 112.589L255.294 113.075ZM254.094 112.725C252.747 112.725 251.826 112.366 251.235 111.734L250.504 112.416C251.346 113.317 252.575 113.725 254.094 113.725V112.725ZM251.235 111.734C250.631 111.088 250.294 110.135 250.294 108.8H249.294C249.294 110.298 249.674 111.529 250.504 112.416L251.235 111.734ZM250.294 108.8V102.425H249.294V108.8H250.294ZM249.794 101.925H247.419V102.925H249.794V101.925ZM247.919 102.425V100.85H246.919V102.425H247.919ZM247.419 101.35H249.794V100.35H247.419V101.35ZM250.294 100.85V97.125H249.294V100.85H250.294ZM249.794 97.625H251.819V96.625H249.794V97.625ZM251.319 97.125V100.85H252.319V97.125H251.319ZM251.819 101.35H255.669V100.35H251.819V101.35ZM255.169 100.85V102.425H256.169V100.85H255.169ZM255.669 101.925H251.819V102.925H255.669V101.925ZM251.319 102.425V108.6H252.319V102.425H251.319ZM251.319 108.6C251.319 109.611 251.531 110.465 252.029 111.087L252.81 110.463C252.508 110.085 252.319 109.489 252.319 108.6H251.319ZM252.034 111.094C252.565 111.735 253.387 112 254.369 112V111C253.551 111 253.074 110.782 252.805 110.456L252.034 111.094ZM254.369 112C254.678 112 254.986 111.961 255.291 111.885L255.048 110.915C254.82 110.972 254.594 111 254.369 111V112ZM255.291 111.885C255.564 111.817 255.815 111.748 256.041 111.678L255.747 110.722C255.541 110.786 255.308 110.85 255.048 110.915L255.291 111.885ZM255.407 111.31L255.757 112.86L256.732 112.64L256.382 111.09L255.407 111.31ZM256.007 112.31C255.847 112.396 255.578 112.493 255.178 112.589L255.411 113.561C255.844 113.457 256.209 113.337 256.481 113.19L256.007 112.31ZM255.178 112.589C254.795 112.681 254.434 112.725 254.094 112.725V113.725C254.521 113.725 254.961 113.669 255.411 113.561L255.178 112.589Z" fill="#A594F9"/>
</g>
</g>
</g>
</svg>
