<svg width="285" height="375" viewBox="0 0 285 375" fill="none" xmlns="http://www.w3.org/2000/svg">
<g id="path_2">
<g id="path_2_2">
<g id="Vector 21" filter="url(#filter0_d_43_63)">
<path d="M65 65.5C65 65.5 260.295 162.604 208.5 230.5C182.995 263.933 150.197 275.096 122.5 254C108.045 242.99 94.6105 236.485 100.5 213C122.628 124.761 283 301.5 253.5 338" stroke="#A594F9" stroke-width="30" stroke-linecap="round" shape-rendering="crispEdges"/>
</g>
<g id="Vector 22" filter="url(#filter1_d_43_63)">
<path d="M21.5 39.5C21.5 39.5 260.295 162.604 208.5 230.5C182.995 263.933 150.197 275.096 122.5 254C108.045 242.99 94.6105 236.485 100.5 213C122.628 124.761 257 277.5 257 353" stroke="black" stroke-width="10" stroke-linecap="round" stroke-dasharray="20 20" shape-rendering="crispEdges"/>
</g>
</g>
</g>
<defs>
<filter id="filter0_d_43_63" x="43.9967" y="50.4966" width="234.107" height="314.504" filterUnits="userSpaceOnUse" color-interpolation-filters="sRGB">
<feFlood flood-opacity="0" result="BackgroundImageFix"/>
<feColorMatrix in="SourceAlpha" type="matrix" values="0 0 0 0 0 0 0 0 0 0 0 0 0 0 0 0 0 0 127 0" result="hardAlpha"/>
<feOffset dy="6"/>
<feGaussianBlur stdDeviation="3"/>
<feComposite in2="hardAlpha" operator="out"/>
<feColorMatrix type="matrix" values="0 0 0 0 0 0 0 0 0 0 0 0 0 0 0 0 0 0 0.25 0"/>
<feBlend mode="normal" in2="BackgroundImageFix" result="effect1_dropShadow_43_63"/>
<feBlend mode="normal" in="SourceGraphic" in2="effect1_dropShadow_43_63" result="shape"/>
</filter>
<filter id="filter1_d_43_63" x="10.499" y="34.499" width="257.501" height="335.501" filterUnits="userSpaceOnUse" color-interpolation-filters="sRGB">
<feFlood flood-opacity="0" result="BackgroundImageFix"/>
<feColorMatrix in="SourceAlpha" type="matrix" values="0 0 0 0 0 0 0 0 0 0 0 0 0 0 0 0 0 0 127 0" result="hardAlpha"/>
<feOffset dy="6"/>
<feGaussianBlur stdDeviation="3"/>
<feComposite in2="hardAlpha" operator="out"/>
<feColorMatrix type="matrix" values="0 0 0 0 0 0 0 0 0 0 0 0 0 0 0 0 0 0 0.25 0"/>
<feBlend mode="normal" in2="BackgroundImageFix" result="effect1_dropShadow_43_63"/>
<feBlend mode="normal" in="SourceGraphic" in2="effect1_dropShadow_43_63" result="shape"/>
</filter>
</defs>
</svg>
