<svg width="400" height="200" viewBox="0 0 400 200" fill="none" xmlns="http://www.w3.org/2000/svg">
<g id="submitButtonHover">
<g id="button_1_hover">
<path id="back" d="M33 95.8576C33 95.8576 149.566 66.3599 138.271 39.5789C115.972 -13.2914 36.1115 196.96 94.7105 160.786C153.31 124.612 268.433 48.0887 277.249 44.3786C286.065 40.6684 136.197 205.772 211.909 160.786C287.621 115.8 350.887 89.6666 368 95.8576" stroke="#E3D1FA" stroke-opacity="0.8" stroke-width="50" stroke-linecap="round"/>
<rect id="button_1" x="60" y="65" width="280" height="80" rx="12" stroke="#6758B3" stroke-width="5"/>
<g id="Submit">
<path d="M161.505 117.243C160.515 117.243 159.579 117.153 158.697 116.973C157.833 116.793 157.032 116.541 156.294 116.217C155.574 115.875 154.917 115.461 154.323 114.975L155.106 113.193C155.718 113.643 156.339 114.03 156.969 114.354C157.617 114.66 158.31 114.894 159.048 115.056C159.804 115.2 160.623 115.272 161.505 115.272C163.125 115.272 164.322 114.975 165.096 114.381C165.888 113.769 166.284 112.968 166.284 111.978C166.284 111.456 166.158 111.006 165.906 110.628C165.672 110.25 165.276 109.926 164.718 109.656C164.178 109.386 163.467 109.161 162.585 108.981L159.777 108.414C158.085 108.054 156.816 107.469 155.97 106.659C155.142 105.831 154.728 104.733 154.728 103.365C154.728 102.231 155.016 101.241 155.592 100.395C156.186 99.549 157.005 98.892 158.049 98.424C159.111 97.956 160.317 97.722 161.667 97.722C162.531 97.722 163.35 97.812 164.124 97.992C164.898 98.172 165.609 98.442 166.257 98.802C166.923 99.144 167.508 99.567 168.012 100.071L167.229 101.799C166.419 101.061 165.564 100.53 164.664 100.206C163.764 99.864 162.756 99.693 161.64 99.693C160.686 99.693 159.858 99.837 159.156 100.125C158.472 100.413 157.932 100.836 157.536 101.394C157.158 101.934 156.969 102.564 156.969 103.284C156.969 104.148 157.23 104.832 157.752 105.336C158.292 105.84 159.165 106.209 160.371 106.443L163.179 107.037C164.997 107.415 166.338 107.991 167.202 108.765C168.084 109.521 168.525 110.556 168.525 111.87C168.525 112.914 168.237 113.85 167.661 114.678C167.103 115.488 166.293 116.118 165.231 116.568C164.187 117.018 162.945 117.243 161.505 117.243ZM176.847 117.243C175.785 117.243 174.903 117.054 174.201 116.676C173.517 116.28 172.995 115.695 172.635 114.921C172.293 114.147 172.122 113.184 172.122 112.032V103.878H174.309V112.005C174.309 112.779 174.408 113.427 174.606 113.949C174.822 114.453 175.155 114.831 175.605 115.083C176.055 115.317 176.613 115.434 177.279 115.434C178.035 115.434 178.692 115.263 179.25 114.921C179.808 114.579 180.249 114.102 180.573 113.49C180.897 112.878 181.059 112.158 181.059 111.33V103.878H183.246V117H181.113V113.976H181.464C181.104 115.038 180.51 115.848 179.682 116.406C178.872 116.964 177.927 117.243 176.847 117.243ZM194.52 117.243C193.332 117.243 192.306 116.937 191.442 116.325C190.596 115.713 190.029 114.894 189.741 113.868H190.011V117H187.878V97.965H190.065V106.929H189.741C190.047 105.921 190.623 105.12 191.469 104.526C192.315 103.932 193.332 103.635 194.52 103.635C195.708 103.635 196.734 103.914 197.598 104.472C198.462 105.012 199.128 105.795 199.596 106.821C200.082 107.829 200.325 109.035 200.325 110.439C200.325 111.825 200.082 113.031 199.596 114.057C199.128 115.065 198.453 115.848 197.571 116.406C196.707 116.964 195.69 117.243 194.52 117.243ZM194.061 115.488C195.303 115.488 196.284 115.056 197.004 114.192C197.742 113.31 198.111 112.059 198.111 110.439C198.111 108.801 197.742 107.55 197.004 106.686C196.284 105.822 195.303 105.39 194.061 105.39C192.837 105.39 191.856 105.822 191.118 106.686C190.38 107.55 190.011 108.801 190.011 110.439C190.011 112.059 190.38 113.31 191.118 114.192C191.856 115.056 192.837 115.488 194.061 115.488ZM204.213 117V103.878H206.346V106.794H206.049C206.265 106.128 206.58 105.561 206.994 105.093C207.426 104.607 207.93 104.247 208.506 104.013C209.1 103.761 209.748 103.635 210.45 103.635C211.566 103.635 212.466 103.905 213.15 104.445C213.852 104.967 214.32 105.786 214.554 106.902H214.149C214.473 105.894 215.049 105.102 215.877 104.526C216.723 103.932 217.704 103.635 218.82 103.635C219.81 103.635 220.62 103.824 221.25 104.202C221.898 104.58 222.384 105.156 222.708 105.93C223.032 106.686 223.194 107.649 223.194 108.819V117H221.007V108.927C221.007 107.721 220.8 106.839 220.386 106.281C219.972 105.705 219.27 105.417 218.28 105.417C217.578 105.417 216.957 105.588 216.417 105.93C215.895 106.272 215.49 106.758 215.202 107.388C214.932 108 214.797 108.729 214.797 109.575V117H212.61V108.927C212.61 107.721 212.394 106.839 211.962 106.281C211.548 105.705 210.855 105.417 209.883 105.417C209.163 105.417 208.542 105.588 208.02 105.93C207.498 106.272 207.093 106.758 206.805 107.388C206.535 108 206.4 108.729 206.4 109.575V117H204.213ZM227.553 100.611V98.154H230.253V100.611H227.553ZM227.823 117V103.878H230.01V117H227.823ZM239.904 117.243C238.356 117.243 237.195 116.829 236.421 116.001C235.647 115.173 235.26 113.994 235.26 112.464V105.579H232.695V103.878H235.26V99.855H237.447V103.878H241.605V105.579H237.447V112.248C237.447 113.274 237.663 114.057 238.095 114.597C238.527 115.119 239.229 115.38 240.201 115.38C240.489 115.38 240.777 115.344 241.065 115.272C241.353 115.2 241.614 115.128 241.848 115.056L242.226 116.73C241.992 116.856 241.65 116.973 241.2 117.081C240.75 117.189 240.318 117.243 239.904 117.243Z" fill="#6758B3"/>
<path d="M158.697 116.973L158.595 117.462L158.597 117.463L158.697 116.973ZM156.294 116.217L156.079 116.669L156.086 116.672L156.093 116.675L156.294 116.217ZM154.323 114.975L153.865 114.774L153.712 115.122L154.006 115.362L154.323 114.975ZM155.106 113.193L155.402 112.79L154.899 112.42L154.648 112.992L155.106 113.193ZM156.969 114.354L156.74 114.799L156.748 114.803L156.755 114.806L156.969 114.354ZM159.048 115.056L158.941 115.545L158.954 115.547L159.048 115.056ZM165.096 114.381L165.4 114.778L165.402 114.777L165.096 114.381ZM165.906 110.628L165.481 110.891L165.485 110.898L165.49 110.905L165.906 110.628ZM164.718 109.656L164.494 110.103L164.5 110.106L164.718 109.656ZM162.585 108.981L162.685 108.491L162.684 108.491L162.585 108.981ZM159.777 108.414L159.673 108.903L159.678 108.904L159.777 108.414ZM155.97 106.659L155.616 107.013L155.624 107.02L155.97 106.659ZM155.592 100.395L155.183 100.108L155.179 100.114L155.592 100.395ZM158.049 98.424L157.847 97.9664L157.844 97.9677L158.049 98.424ZM164.124 97.992L164.237 97.505L164.237 97.505L164.124 97.992ZM166.257 98.802L166.014 99.2391L166.021 99.243L166.029 99.2468L166.257 98.802ZM168.012 100.071L168.467 100.277L168.61 99.9622L168.366 99.7174L168.012 100.071ZM167.229 101.799L166.892 102.169L167.401 102.632L167.684 102.005L167.229 101.799ZM164.664 100.206L164.486 100.673L164.495 100.676L164.664 100.206ZM159.156 100.125L158.966 99.6624L158.962 99.6642L159.156 100.125ZM157.536 101.394L157.128 101.105L157.126 101.107L157.536 101.394ZM157.752 105.336L157.405 105.696L157.411 105.702L157.752 105.336ZM160.371 106.443L160.474 105.954L160.466 105.952L160.371 106.443ZM163.179 107.037L163.076 107.526L163.077 107.527L163.179 107.037ZM167.202 108.765L166.868 109.138L166.877 109.145L167.202 108.765ZM167.661 114.678L167.251 114.392L167.249 114.394L167.661 114.678ZM165.231 116.568L165.036 116.108L165.033 116.109L165.231 116.568ZM161.505 116.743C160.545 116.743 159.643 116.656 158.797 116.483L158.597 117.463C159.515 117.65 160.485 117.743 161.505 117.743V116.743ZM158.799 116.484C157.966 116.31 157.198 116.068 156.495 115.759L156.093 116.675C156.866 117.014 157.7 117.276 158.595 117.462L158.799 116.484ZM156.509 115.765C155.824 115.44 155.201 115.047 154.64 114.588L154.006 115.362C154.633 115.875 155.324 116.31 156.079 116.669L156.509 115.765ZM154.781 115.176L155.564 113.394L154.648 112.992L153.865 114.774L154.781 115.176ZM154.81 113.596C155.442 114.06 156.085 114.462 156.74 114.799L157.198 113.909C156.593 113.598 155.994 113.226 155.402 112.79L154.81 113.596ZM156.755 114.806C157.439 115.129 158.168 115.375 158.941 115.544L159.155 114.568C158.452 114.413 157.795 114.191 157.183 113.902L156.755 114.806ZM158.954 115.547C159.745 115.698 160.596 115.772 161.505 115.772V114.772C160.65 114.772 159.863 114.702 159.142 114.565L158.954 115.547ZM161.505 115.772C163.169 115.772 164.498 115.47 165.4 114.778L164.792 113.984C164.146 114.48 163.081 114.772 161.505 114.772V115.772ZM165.402 114.777C166.315 114.071 166.784 113.125 166.784 111.978H165.784C165.784 112.811 165.461 113.467 164.79 113.985L165.402 114.777ZM166.784 111.978C166.784 111.372 166.637 110.823 166.322 110.351L165.49 110.905C165.679 111.189 165.784 111.54 165.784 111.978H166.784ZM166.331 110.365C166.031 109.88 165.547 109.502 164.936 109.206L164.5 110.106C165.005 110.35 165.313 110.62 165.481 110.891L166.331 110.365ZM164.942 109.209C164.348 108.912 163.591 108.676 162.685 108.491L162.485 109.471C163.343 109.646 164.008 109.86 164.494 110.103L164.942 109.209ZM162.684 108.491L159.876 107.924L159.678 108.904L162.486 109.471L162.684 108.491ZM159.881 107.925C158.239 107.576 157.07 107.02 156.316 106.298L155.624 107.02C156.562 107.918 157.931 108.532 159.673 108.903L159.881 107.925ZM156.324 106.305C155.605 105.587 155.228 104.624 155.228 103.365H154.228C154.228 104.842 154.679 106.075 155.616 107.013L156.324 106.305ZM155.228 103.365C155.228 102.32 155.492 101.431 156.005 100.676L155.179 100.114C154.54 101.051 154.228 102.142 154.228 103.365H155.228ZM156.001 100.682C156.538 99.9177 157.283 99.3155 158.254 98.8803L157.844 97.9677C156.727 98.4685 155.834 99.1803 155.183 100.108L156.001 100.682ZM158.251 98.8815C159.24 98.4457 160.375 98.222 161.667 98.222V97.222C160.259 97.222 158.982 97.4663 157.847 97.9665L158.251 98.8815ZM161.667 98.222C162.496 98.222 163.277 98.3084 164.011 98.479L164.237 97.505C163.423 97.3156 162.566 97.222 161.667 97.222V98.222ZM164.011 98.479C164.743 98.6492 165.41 98.9032 166.014 99.2391L166.5 98.3649C165.808 97.9808 165.053 97.6948 164.237 97.505L164.011 98.479ZM166.029 99.2468C166.651 99.5663 167.193 99.9591 167.658 100.425L168.366 99.7174C167.823 99.1749 167.195 98.7217 166.485 98.3572L166.029 99.2468ZM167.557 99.8646L166.774 101.593L167.684 102.005L168.467 100.277L167.557 99.8646ZM167.566 101.429C166.714 100.654 165.804 100.085 164.833 99.7356L164.495 100.676C165.324 100.975 166.124 101.468 166.892 102.169L167.566 101.429ZM164.842 99.7386C163.877 99.3719 162.807 99.193 161.64 99.193V100.193C162.705 100.193 163.651 100.356 164.486 100.673L164.842 99.7386ZM161.64 99.193C160.637 99.193 159.742 99.3442 158.966 99.6624L159.346 100.588C159.974 100.33 160.735 100.193 161.64 100.193V99.193ZM158.962 99.6642C158.2 99.9851 157.583 100.464 157.128 101.105L157.944 101.683C158.281 101.208 158.744 100.841 159.35 100.586L158.962 99.6642ZM157.126 101.107C156.684 101.739 156.469 102.471 156.469 103.284H157.469C157.469 102.657 157.632 102.129 157.946 101.681L157.126 101.107ZM156.469 103.284C156.469 104.256 156.767 105.08 157.405 105.696L158.099 104.976C157.693 104.584 157.469 104.04 157.469 103.284H156.469ZM157.411 105.702C158.051 106.299 159.032 106.693 160.276 106.934L160.466 105.952C159.298 105.725 158.533 105.381 158.093 104.97L157.411 105.702ZM160.268 106.932L163.076 107.526L163.282 106.548L160.474 105.954L160.268 106.932ZM163.077 107.527C164.856 107.896 166.098 108.447 166.868 109.137L167.536 108.393C166.578 107.535 165.138 106.934 163.281 106.547L163.077 107.527ZM166.877 109.145C167.633 109.793 168.025 110.681 168.025 111.87H169.025C169.025 110.431 168.535 109.249 167.527 108.385L166.877 109.145ZM168.025 111.87C168.025 112.816 167.766 113.651 167.251 114.392L168.071 114.964C168.708 114.049 169.025 113.012 169.025 111.87H168.025ZM167.249 114.394C166.754 115.113 166.026 115.688 165.036 116.108L165.426 117.028C166.56 116.548 167.452 115.863 168.073 114.962L167.249 114.394ZM165.033 116.109C164.066 116.526 162.894 116.743 161.505 116.743V117.743C162.996 117.743 164.308 117.51 165.429 117.027L165.033 116.109ZM174.201 116.676L173.951 117.109L173.957 117.113L173.964 117.116L174.201 116.676ZM172.635 114.921L172.178 115.123L172.182 115.132L172.635 114.921ZM172.122 103.878V103.378H171.622V103.878H172.122ZM174.309 103.878H174.809V103.378H174.309V103.878ZM174.606 113.949L174.139 114.126L174.143 114.136L174.147 114.146L174.606 113.949ZM175.605 115.083L175.361 115.519L175.368 115.523L175.375 115.527L175.605 115.083ZM179.25 114.921L178.989 114.495L178.989 114.495L179.25 114.921ZM180.573 113.49L180.131 113.256L180.131 113.256L180.573 113.49ZM181.059 103.878V103.378H180.559V103.878H181.059ZM183.246 103.878H183.746V103.378H183.246V103.878ZM183.246 117V117.5H183.746V117H183.246ZM181.113 117H180.613V117.5H181.113V117ZM181.113 113.976V113.476H180.613V113.976H181.113ZM181.464 113.976L181.938 114.137L182.162 113.476H181.464V113.976ZM179.682 116.406L179.403 115.991L179.399 115.994L179.682 116.406ZM176.847 116.743C175.842 116.743 175.047 116.564 174.438 116.236L173.964 117.116C174.759 117.544 175.729 117.743 176.847 117.743V116.743ZM174.452 116.243C173.864 115.903 173.409 115.399 173.089 114.71L172.182 115.132C172.582 115.991 173.171 116.657 173.951 117.109L174.452 116.243ZM173.093 114.719C172.787 114.027 172.622 113.138 172.622 112.032H171.622C171.622 113.23 171.8 114.267 172.178 115.123L173.093 114.719ZM172.622 112.032V103.878H171.622V112.032H172.622ZM172.122 104.378H174.309V103.378H172.122V104.378ZM173.809 103.878V112.005H174.809V103.878H173.809ZM173.809 112.005C173.809 112.818 173.913 113.53 174.139 114.126L175.074 113.772C174.904 113.324 174.809 112.74 174.809 112.005H173.809ZM174.147 114.146C174.403 114.744 174.809 115.21 175.361 115.519L175.85 114.647C175.502 114.452 175.241 114.162 175.066 113.752L174.147 114.146ZM175.375 115.527C175.915 115.807 176.557 115.934 177.279 115.934V114.934C176.669 114.934 176.196 114.827 175.836 114.639L175.375 115.527ZM177.279 115.934C178.113 115.934 178.863 115.745 179.512 115.347L178.989 114.495C178.521 114.781 177.958 114.934 177.279 114.934V115.934ZM179.512 115.347C180.15 114.956 180.652 114.41 181.015 113.724L180.131 113.256C179.847 113.794 179.466 114.202 178.989 114.495L179.512 115.347ZM181.015 113.724C181.384 113.027 181.559 112.224 181.559 111.33H180.559C180.559 112.092 180.41 112.729 180.131 113.256L181.015 113.724ZM181.559 111.33V103.878H180.559V111.33H181.559ZM181.059 104.378H183.246V103.378H181.059V104.378ZM182.746 103.878V117H183.746V103.878H182.746ZM183.246 116.5H181.113V117.5H183.246V116.5ZM181.613 117V113.976H180.613V117H181.613ZM181.113 114.476H181.464V113.476H181.113V114.476ZM180.991 113.815C180.661 114.787 180.129 115.502 179.403 115.991L179.962 116.821C180.892 116.194 181.547 115.289 181.938 114.137L180.991 113.815ZM179.399 115.994C178.68 116.489 177.836 116.743 176.847 116.743V117.743C178.018 117.743 179.064 117.439 179.966 116.818L179.399 115.994ZM191.442 116.325L191.149 116.73L191.153 116.733L191.442 116.325ZM189.741 113.868V113.368H189.081L189.26 114.003L189.741 113.868ZM190.011 113.868H190.511V113.368H190.011V113.868ZM190.011 117V117.5H190.511V117H190.011ZM187.878 117H187.378V117.5H187.878V117ZM187.878 97.965V97.465H187.378V97.965H187.878ZM190.065 97.965H190.565V97.465H190.065V97.965ZM190.065 106.929V107.429H190.565V106.929H190.065ZM189.741 106.929L189.263 106.784L189.067 107.429H189.741V106.929ZM191.469 104.526L191.756 104.935L191.756 104.935L191.469 104.526ZM197.598 104.472L197.327 104.892L197.333 104.896L197.598 104.472ZM199.596 106.821L199.141 107.029L199.146 107.038L199.596 106.821ZM199.596 114.057L199.144 113.843L199.143 113.846L199.596 114.057ZM197.571 116.406L197.304 115.983L197.3 115.986L197.571 116.406ZM197.004 114.192L196.621 113.871L196.62 113.872L197.004 114.192ZM197.004 106.686L196.62 107.006L196.624 107.011L197.004 106.686ZM191.118 106.686L190.738 106.361L190.738 106.361L191.118 106.686ZM191.118 114.192L190.735 114.513L190.738 114.517L191.118 114.192ZM194.52 116.743C193.422 116.743 192.5 116.462 191.731 115.917L191.153 116.733C192.112 117.412 193.242 117.743 194.52 117.743V116.743ZM191.735 115.92C190.983 115.376 190.481 114.653 190.222 113.733L189.26 114.003C189.578 115.135 190.21 116.05 191.149 116.73L191.735 115.92ZM189.741 114.368H190.011V113.368H189.741V114.368ZM189.511 113.868V117H190.511V113.868H189.511ZM190.011 116.5H187.878V117.5H190.011V116.5ZM188.378 117V97.965H187.378V117H188.378ZM187.878 98.465H190.065V97.465H187.878V98.465ZM189.565 97.965V106.929H190.565V97.965H189.565ZM190.065 106.429H189.741V107.429H190.065V106.429ZM190.22 107.074C190.494 106.171 191.004 105.464 191.756 104.935L191.182 104.117C190.243 104.776 189.6 105.671 189.263 106.784L190.22 107.074ZM191.756 104.935C192.506 104.409 193.419 104.135 194.52 104.135V103.135C193.245 103.135 192.124 103.455 191.182 104.117L191.756 104.935ZM194.52 104.135C195.627 104.135 196.556 104.394 197.327 104.892L197.869 104.052C196.913 103.434 195.789 103.135 194.52 103.135V104.135ZM197.333 104.896C198.105 105.379 198.709 106.082 199.141 107.029L200.051 106.613C199.547 105.508 198.819 104.645 197.863 104.048L197.333 104.896ZM199.146 107.038C199.592 107.963 199.825 109.092 199.825 110.439H200.825C200.825 108.978 200.572 107.695 200.046 106.604L199.146 107.038ZM199.825 110.439C199.825 111.767 199.592 112.897 199.144 113.843L200.048 114.271C200.572 113.165 200.825 111.883 200.825 110.439H199.825ZM199.143 113.846C198.712 114.773 198.099 115.48 197.304 115.983L197.838 116.829C198.807 116.216 199.544 115.357 200.05 114.268L199.143 113.846ZM197.3 115.986C196.527 116.485 195.607 116.743 194.52 116.743V117.743C195.773 117.743 196.887 117.443 197.842 116.826L197.3 115.986ZM194.061 115.988C195.434 115.988 196.563 115.503 197.388 114.512L196.62 113.872C196.006 114.609 195.172 114.988 194.061 114.988V115.988ZM197.388 114.513C198.226 113.51 198.611 112.129 198.611 110.439H197.611C197.611 111.989 197.258 113.11 196.621 113.871L197.388 114.513ZM198.611 110.439C198.611 108.734 198.228 107.349 197.384 106.361L196.624 107.011C197.257 107.751 197.611 108.868 197.611 110.439H198.611ZM197.388 106.366C196.563 105.375 195.434 104.89 194.061 104.89V105.89C195.172 105.89 196.006 106.269 196.62 107.006L197.388 106.366ZM194.061 104.89C192.704 104.89 191.579 105.377 190.738 106.361L191.498 107.011C192.133 106.267 192.971 105.89 194.061 105.89V104.89ZM190.738 106.361C189.895 107.349 189.511 108.734 189.511 110.439H190.511C190.511 108.868 190.866 107.751 191.498 107.011L190.738 106.361ZM189.511 110.439C189.511 112.129 189.896 113.51 190.735 114.513L191.502 113.871C190.864 113.11 190.511 111.989 190.511 110.439H189.511ZM190.738 114.517C191.579 115.501 192.704 115.988 194.061 115.988V114.988C192.971 114.988 192.133 114.611 191.498 113.867L190.738 114.517ZM204.213 117H203.713V117.5H204.213V117ZM204.213 103.878V103.378H203.713V103.878H204.213ZM206.346 103.878H206.846V103.378H206.346V103.878ZM206.346 106.794V107.294H206.846V106.794H206.346ZM206.049 106.794L205.574 106.64L205.362 107.294H206.049V106.794ZM206.994 105.093L206.621 104.761L206.62 104.762L206.994 105.093ZM208.506 104.013L208.695 104.476L208.702 104.473L208.506 104.013ZM213.15 104.445L212.84 104.837L212.846 104.842L212.852 104.846L213.15 104.445ZM214.554 106.902V107.402H215.17L215.044 106.799L214.554 106.902ZM214.149 106.902L213.673 106.749L213.463 107.402H214.149V106.902ZM215.877 104.526L216.163 104.936L216.165 104.935L215.877 104.526ZM221.25 104.202L220.993 104.631L220.998 104.634L221.25 104.202ZM222.708 105.93L222.247 106.123L222.249 106.127L222.708 105.93ZM223.194 117V117.5H223.694V117H223.194ZM221.007 117H220.507V117.5H221.007V117ZM220.386 106.281L219.98 106.573L219.985 106.579L220.386 106.281ZM216.417 105.93L216.15 105.508L216.143 105.512L216.417 105.93ZM215.202 107.388L214.748 107.18L214.745 107.186L215.202 107.388ZM214.797 117V117.5H215.297V117H214.797ZM212.61 117H212.11V117.5H212.61V117ZM211.962 106.281L211.556 106.573L211.561 106.58L211.567 106.587L211.962 106.281ZM206.805 107.388L206.351 107.18L206.348 107.186L206.805 107.388ZM206.4 117V117.5H206.9V117H206.4ZM204.713 117V103.878H203.713V117H204.713ZM204.213 104.378H206.346V103.378H204.213V104.378ZM205.846 103.878V106.794H206.846V103.878H205.846ZM206.346 106.294H206.049V107.294H206.346V106.294ZM206.525 106.948C206.722 106.34 207.005 105.835 207.369 105.424L206.62 104.762C206.155 105.287 205.808 105.916 205.574 106.64L206.525 106.948ZM207.368 105.425C207.751 104.994 208.193 104.68 208.694 104.476L208.318 103.55C207.668 103.814 207.101 104.22 206.621 104.761L207.368 105.425ZM208.702 104.473C209.229 104.25 209.809 104.135 210.45 104.135V103.135C209.687 103.135 208.972 103.272 208.311 103.553L208.702 104.473ZM210.45 104.135C211.486 104.135 212.267 104.385 212.84 104.837L213.46 104.053C212.666 103.425 211.647 103.135 210.45 103.135V104.135ZM212.852 104.846C213.429 105.276 213.848 105.971 214.065 107.005L215.044 106.799C214.792 105.601 214.275 104.658 213.449 104.044L212.852 104.846ZM214.554 106.402H214.149V107.402H214.554V106.402ZM214.625 107.055C214.918 106.146 215.43 105.447 216.163 104.936L215.592 104.116C214.669 104.757 214.029 105.642 213.673 106.749L214.625 107.055ZM216.165 104.935C216.92 104.405 217.799 104.135 218.82 104.135V103.135C217.61 103.135 216.527 103.459 215.59 104.117L216.165 104.935ZM218.82 104.135C219.75 104.135 220.463 104.313 220.993 104.631L221.508 103.773C220.777 103.335 219.87 103.135 218.82 103.135V104.135ZM220.998 104.634C221.541 104.951 221.96 105.437 222.247 106.123L223.17 105.737C222.809 104.875 222.255 104.209 221.502 103.77L220.998 104.634ZM222.249 106.127C222.537 106.8 222.694 107.69 222.694 108.819H223.694C223.694 107.608 223.527 106.572 223.168 105.733L222.249 106.127ZM222.694 108.819V117H223.694V108.819H222.694ZM223.194 116.5H221.007V117.5H223.194V116.5ZM221.507 117V108.927H220.507V117H221.507ZM221.507 108.927C221.507 107.684 221.298 106.67 220.788 105.983L219.985 106.579C220.303 107.008 220.507 107.758 220.507 108.927H221.507ZM220.792 105.989C220.251 105.235 219.363 104.917 218.28 104.917V105.917C219.178 105.917 219.694 106.175 219.98 106.573L220.792 105.989ZM218.28 104.917C217.493 104.917 216.778 105.11 216.15 105.508L216.685 106.352C217.137 106.066 217.663 105.917 218.28 105.917V104.917ZM216.143 105.512C215.534 105.911 215.07 106.474 214.748 107.18L215.657 107.596C215.91 107.042 216.257 106.633 216.691 106.348L216.143 105.512ZM214.745 107.186C214.44 107.876 214.297 108.677 214.297 109.575H215.297C215.297 108.781 215.424 108.124 215.66 107.59L214.745 107.186ZM214.297 109.575V117H215.297V109.575H214.297ZM214.797 116.5H212.61V117.5H214.797V116.5ZM213.11 117V108.927H212.11V117H213.11ZM213.11 108.927C213.11 107.681 212.891 106.664 212.358 105.975L211.567 106.587C211.898 107.014 212.11 107.761 212.11 108.927H213.11ZM212.368 105.989C211.828 105.238 210.952 104.917 209.883 104.917V105.917C210.759 105.917 211.268 106.172 211.556 106.573L212.368 105.989ZM209.883 104.917C209.081 104.917 208.362 105.109 207.746 105.512L208.294 106.348C208.723 106.067 209.245 105.917 209.883 105.917V104.917ZM207.746 105.512C207.137 105.911 206.673 106.474 206.351 107.18L207.26 107.596C207.513 107.042 207.86 106.633 208.294 106.348L207.746 105.512ZM206.348 107.186C206.043 107.876 205.9 108.677 205.9 109.575H206.9C206.9 108.781 207.027 108.124 207.263 107.59L206.348 107.186ZM205.9 109.575V117H206.9V109.575H205.9ZM206.4 116.5H204.213V117.5H206.4V116.5ZM227.553 100.611H227.053V101.111H227.553V100.611ZM227.553 98.154V97.654H227.053V98.154H227.553ZM230.253 98.154H230.753V97.654H230.253V98.154ZM230.253 100.611V101.111H230.753V100.611H230.253ZM227.823 117H227.323V117.5H227.823V117ZM227.823 103.878V103.378H227.323V103.878H227.823ZM230.01 103.878H230.51V103.378H230.01V103.878ZM230.01 117V117.5H230.51V117H230.01ZM228.053 100.611V98.154H227.053V100.611H228.053ZM227.553 98.654H230.253V97.654H227.553V98.654ZM229.753 98.154V100.611H230.753V98.154H229.753ZM230.253 100.111H227.553V101.111H230.253V100.111ZM228.323 117V103.878H227.323V117H228.323ZM227.823 104.378H230.01V103.378H227.823V104.378ZM229.51 103.878V117H230.51V103.878H229.51ZM230.01 116.5H227.823V117.5H230.01V116.5ZM236.421 116.001L236.055 116.342L236.055 116.342L236.421 116.001ZM235.26 105.579H235.76V105.079H235.26V105.579ZM232.695 105.579H232.195V106.079H232.695V105.579ZM232.695 103.878V103.378H232.195V103.878H232.695ZM235.26 103.878V104.378H235.76V103.878H235.26ZM235.26 99.855V99.355H234.76V99.855H235.26ZM237.447 99.855H237.947V99.355H237.447V99.855ZM237.447 103.878H236.947V104.378H237.447V103.878ZM241.605 103.878H242.105V103.378H241.605V103.878ZM241.605 105.579V106.079H242.105V105.579H241.605ZM237.447 105.579V105.079H236.947V105.579H237.447ZM238.095 114.597L237.704 114.909L237.71 114.916L238.095 114.597ZM241.848 115.056L242.335 114.946L242.217 114.419L241.701 114.578L241.848 115.056ZM242.226 116.73L242.463 117.17L242.797 116.99L242.713 116.62L242.226 116.73ZM241.2 117.081L241.083 116.595L241.083 116.595L241.2 117.081ZM239.904 116.743C238.442 116.743 237.435 116.354 236.786 115.66L236.055 116.342C236.955 117.304 238.27 117.743 239.904 117.743V116.743ZM236.786 115.66C236.125 114.953 235.76 113.912 235.76 112.464H234.76C234.76 114.076 235.168 115.393 236.055 116.342L236.786 115.66ZM235.76 112.464V105.579H234.76V112.464H235.76ZM235.26 105.079H232.695V106.079H235.26V105.079ZM233.195 105.579V103.878H232.195V105.579H233.195ZM232.695 104.378H235.26V103.378H232.695V104.378ZM235.76 103.878V99.855H234.76V103.878H235.76ZM235.26 100.355H237.447V99.355H235.26V100.355ZM236.947 99.855V103.878H237.947V99.855H236.947ZM237.447 104.378H241.605V103.378H237.447V104.378ZM241.105 103.878V105.579H242.105V103.878H241.105ZM241.605 105.079H237.447V106.079H241.605V105.079ZM236.947 105.579V112.248H237.947V105.579H236.947ZM236.947 112.248C236.947 113.335 237.174 114.247 237.704 114.909L238.485 114.285C238.151 113.867 237.947 113.213 237.947 112.248H236.947ZM237.71 114.916C238.272 115.596 239.147 115.88 240.201 115.88V114.88C239.311 114.88 238.781 114.642 238.48 114.278L237.71 114.916ZM240.201 115.88C240.531 115.88 240.86 115.839 241.186 115.757L240.943 114.787C240.694 114.849 240.447 114.88 240.201 114.88V115.88ZM241.186 115.757C241.481 115.683 241.751 115.609 241.995 115.534L241.701 114.578C241.477 114.647 241.225 114.717 240.943 114.787L241.186 115.757ZM241.36 115.166L241.738 116.84L242.713 116.62L242.335 114.946L241.36 115.166ZM241.989 116.29C241.811 116.386 241.517 116.491 241.083 116.595L241.316 117.567C241.782 117.455 242.173 117.326 242.463 117.17L241.989 116.29ZM241.083 116.595C240.667 116.695 240.274 116.743 239.904 116.743V117.743C240.361 117.743 240.833 117.683 241.316 117.567L241.083 116.595Z" fill="#6758B3"/>
</g>
</g>
</g>
</svg>
