<svg width="400" height="200" viewBox="0 0 400 200" fill="none" xmlns="http://www.w3.org/2000/svg">
<g id="submitButton">
<g id="button_1">
<path id="back" d="M33 115.174C33 115.174 144 54.6745 167.5 34.6745C205.906 1.98853 46 199.174 102.5 160.174C159 121.174 270 38.6744 278.5 34.6744C287 30.6744 142.5 208.675 215.5 160.174C288.5 111.674 368 90.1744 368 90.1744" stroke="#F5EFFD" stroke-opacity="0.8" stroke-width="50" stroke-linecap="round"/>
<rect id="button_1_2" x="60" y="65" width="280" height="80" rx="12" stroke="#A594F9" stroke-width="5"/>
<g id="Submit">
<path d="M163.875 114.225C162.958 114.225 162.092 114.142 161.275 113.975C160.475 113.808 159.733 113.575 159.05 113.275C158.383 112.958 157.775 112.575 157.225 112.125L157.95 110.475C158.517 110.892 159.092 111.25 159.675 111.55C160.275 111.833 160.917 112.05 161.6 112.2C162.3 112.333 163.058 112.4 163.875 112.4C165.375 112.4 166.483 112.125 167.2 111.575C167.933 111.008 168.3 110.267 168.3 109.35C168.3 108.867 168.183 108.45 167.95 108.1C167.733 107.75 167.367 107.45 166.85 107.2C166.35 106.95 165.692 106.742 164.875 106.575L162.275 106.05C160.708 105.717 159.533 105.175 158.75 104.425C157.983 103.658 157.6 102.642 157.6 101.375C157.6 100.325 157.867 99.4083 158.4 98.625C158.95 97.8417 159.708 97.2333 160.675 96.8C161.658 96.3667 162.775 96.15 164.025 96.15C164.825 96.15 165.583 96.2333 166.3 96.4C167.017 96.5667 167.675 96.8167 168.275 97.15C168.892 97.4667 169.433 97.8583 169.9 98.325L169.175 99.925C168.425 99.2417 167.633 98.75 166.8 98.45C165.967 98.1333 165.033 97.975 164 97.975C163.117 97.975 162.35 98.1083 161.7 98.375C161.067 98.6417 160.567 99.0333 160.2 99.55C159.85 100.05 159.675 100.633 159.675 101.3C159.675 102.1 159.917 102.733 160.4 103.2C160.9 103.667 161.708 104.008 162.825 104.225L165.425 104.775C167.108 105.125 168.35 105.658 169.15 106.375C169.967 107.075 170.375 108.033 170.375 109.25C170.375 110.217 170.108 111.083 169.575 111.85C169.058 112.6 168.308 113.183 167.325 113.6C166.358 114.017 165.208 114.225 163.875 114.225ZM178.081 114.225C177.098 114.225 176.281 114.05 175.631 113.7C174.998 113.333 174.514 112.792 174.181 112.075C173.864 111.358 173.706 110.467 173.706 109.4V101.85H175.731V109.375C175.731 110.092 175.823 110.692 176.006 111.175C176.206 111.642 176.514 111.992 176.931 112.225C177.348 112.442 177.864 112.55 178.481 112.55C179.181 112.55 179.789 112.392 180.306 112.075C180.823 111.758 181.231 111.317 181.531 110.75C181.831 110.183 181.981 109.517 181.981 108.75V101.85H184.006V114H182.031V111.2H182.356C182.023 112.183 181.473 112.933 180.706 113.45C179.956 113.967 179.081 114.225 178.081 114.225ZM194.445 114.225C193.345 114.225 192.395 113.942 191.595 113.375C190.811 112.808 190.286 112.05 190.02 111.1H190.27V114H188.295V96.375H190.32V104.675H190.02C190.303 103.742 190.836 103 191.62 102.45C192.403 101.9 193.345 101.625 194.445 101.625C195.545 101.625 196.495 101.883 197.295 102.4C198.095 102.9 198.711 103.625 199.145 104.575C199.595 105.508 199.82 106.625 199.82 107.925C199.82 109.208 199.595 110.325 199.145 111.275C198.711 112.208 198.086 112.933 197.27 113.45C196.47 113.967 195.528 114.225 194.445 114.225ZM194.02 112.6C195.17 112.6 196.078 112.2 196.745 111.4C197.428 110.583 197.77 109.425 197.77 107.925C197.77 106.408 197.428 105.25 196.745 104.45C196.078 103.65 195.17 103.25 194.02 103.25C192.886 103.25 191.978 103.65 191.295 104.45C190.611 105.25 190.27 106.408 190.27 107.925C190.27 109.425 190.611 110.583 191.295 111.4C191.978 112.2 192.886 112.6 194.02 112.6ZM203.42 114V101.85H205.395V104.55H205.12C205.32 103.933 205.611 103.408 205.995 102.975C206.395 102.525 206.861 102.192 207.395 101.975C207.945 101.742 208.545 101.625 209.195 101.625C210.228 101.625 211.061 101.875 211.695 102.375C212.345 102.858 212.778 103.617 212.995 104.65H212.62C212.92 103.717 213.453 102.983 214.22 102.45C215.003 101.9 215.911 101.625 216.945 101.625C217.861 101.625 218.611 101.8 219.195 102.15C219.795 102.5 220.245 103.033 220.545 103.75C220.845 104.45 220.995 105.342 220.995 106.425V114H218.97V106.525C218.97 105.408 218.778 104.592 218.395 104.075C218.011 103.542 217.361 103.275 216.445 103.275C215.795 103.275 215.22 103.433 214.72 103.75C214.236 104.067 213.861 104.517 213.595 105.1C213.345 105.667 213.22 106.342 213.22 107.125V114H211.195V106.525C211.195 105.408 210.995 104.592 210.595 104.075C210.211 103.542 209.57 103.275 208.67 103.275C208.003 103.275 207.428 103.433 206.945 103.75C206.461 104.067 206.086 104.517 205.82 105.1C205.57 105.667 205.445 106.342 205.445 107.125V114H203.42ZM225.031 98.825V96.55H227.531V98.825H225.031ZM225.281 114V101.85H227.306V114H225.281ZM236.466 114.225C235.033 114.225 233.958 113.842 233.241 113.075C232.525 112.308 232.166 111.217 232.166 109.8V103.425H229.791V101.85H232.166V98.125H234.191V101.85H238.041V103.425H234.191V109.6C234.191 110.55 234.391 111.275 234.791 111.775C235.191 112.258 235.841 112.5 236.741 112.5C237.008 112.5 237.275 112.467 237.541 112.4C237.808 112.333 238.05 112.267 238.266 112.2L238.616 113.75C238.4 113.867 238.083 113.975 237.666 114.075C237.25 114.175 236.85 114.225 236.466 114.225Z" fill="#A594F9"/>
<path d="M161.275 113.975L161.173 114.464L161.175 114.465L161.275 113.975ZM159.05 113.275L158.835 113.727L158.842 113.73L158.849 113.733L159.05 113.275ZM157.225 112.125L156.767 111.924L156.614 112.272L156.908 112.512L157.225 112.125ZM157.95 110.475L158.246 110.072L157.743 109.702L157.492 110.274L157.95 110.475ZM159.675 111.55L159.446 111.995L159.454 111.999L159.461 112.002L159.675 111.55ZM161.6 112.2L161.493 112.689L161.506 112.691L161.6 112.2ZM167.2 111.575L167.504 111.972L167.506 111.971L167.2 111.575ZM167.95 108.1L167.525 108.363L167.529 108.37L167.534 108.377L167.95 108.1ZM166.85 107.2L166.626 107.647L166.632 107.65L166.85 107.2ZM164.875 106.575L164.975 106.085L164.974 106.085L164.875 106.575ZM162.275 106.05L162.171 106.539L162.176 106.54L162.275 106.05ZM158.75 104.425L158.396 104.779L158.404 104.786L158.75 104.425ZM158.4 98.625L157.991 98.3377L157.987 98.3436L158.4 98.625ZM160.675 96.8L160.473 96.3424L160.47 96.3437L160.675 96.8ZM166.3 96.4L166.413 95.913L166.413 95.913L166.3 96.4ZM168.275 97.15L168.032 97.5871L168.039 97.591L168.047 97.5948L168.275 97.15ZM169.9 98.325L170.355 98.5314L170.498 98.2162L170.254 97.9714L169.9 98.325ZM169.175 99.925L168.838 100.295L169.347 100.758L169.63 100.131L169.175 99.925ZM166.8 98.45L166.622 98.9175L166.631 98.9204L166.8 98.45ZM161.7 98.375L161.51 97.9124L161.506 97.9142L161.7 98.375ZM160.2 99.55L159.792 99.2606L159.79 99.2633L160.2 99.55ZM160.4 103.2L160.053 103.56L160.059 103.566L160.4 103.2ZM162.825 104.225L162.928 103.736L162.92 103.734L162.825 104.225ZM165.425 104.775L165.322 105.264L165.323 105.265L165.425 104.775ZM169.15 106.375L168.816 106.748L168.825 106.755L169.15 106.375ZM169.575 111.85L169.165 111.564L169.163 111.566L169.575 111.85ZM167.325 113.6L167.13 113.14L167.127 113.141L167.325 113.6ZM163.875 113.725C162.989 113.725 162.156 113.644 161.375 113.485L161.175 114.465C162.028 114.639 162.928 114.725 163.875 114.725V113.725ZM161.377 113.486C160.608 113.325 159.9 113.102 159.251 112.817L158.849 113.733C159.567 114.048 160.342 114.291 161.173 114.464L161.377 113.486ZM159.265 112.823C158.633 112.523 158.059 112.161 157.542 111.738L156.908 112.512C157.491 112.989 158.134 113.393 158.835 113.727L159.265 112.823ZM157.683 112.326L158.408 110.676L157.492 110.274L156.767 111.924L157.683 112.326ZM157.654 110.878C158.24 111.309 158.838 111.682 159.446 111.995L159.904 111.105C159.346 110.818 158.793 110.474 158.246 110.072L157.654 110.878ZM159.461 112.002C160.097 112.302 160.775 112.531 161.493 112.688L161.707 111.712C161.059 111.569 160.453 111.364 159.889 111.098L159.461 112.002ZM161.506 112.691C162.241 112.831 163.031 112.9 163.875 112.9V111.9C163.085 111.9 162.359 111.836 161.694 111.709L161.506 112.691ZM163.875 112.9C165.419 112.9 166.659 112.62 167.504 111.972L166.896 111.178C166.307 111.63 165.331 111.9 163.875 111.9V112.9ZM167.506 111.971C168.36 111.311 168.8 110.424 168.8 109.35H167.8C167.8 110.11 167.507 110.706 166.894 111.179L167.506 111.971ZM168.8 109.35C168.8 108.783 168.662 108.267 168.366 107.823L167.534 108.377C167.705 108.633 167.8 108.95 167.8 109.35H168.8ZM168.375 107.837C168.092 107.38 167.638 107.026 167.068 106.75L166.632 107.65C167.096 107.874 167.374 108.12 167.525 108.363L168.375 107.837ZM167.074 106.753C166.52 106.476 165.816 106.257 164.975 106.085L164.775 107.065C165.568 107.227 166.18 107.424 166.626 107.647L167.074 106.753ZM164.974 106.085L162.374 105.56L162.176 106.54L164.776 107.065L164.974 106.085ZM162.379 105.561C160.863 105.238 159.787 104.726 159.096 104.064L158.404 104.786C159.279 105.624 160.554 106.195 162.171 106.539L162.379 105.561ZM159.104 104.071C158.446 103.414 158.1 102.533 158.1 101.375H157.1C157.1 102.75 157.52 103.902 158.396 104.779L159.104 104.071ZM158.1 101.375C158.1 100.414 158.342 99.5979 158.813 98.9064L157.987 98.3436C157.391 99.2188 157.1 100.236 157.1 101.375H158.1ZM158.809 98.9123C159.302 98.2104 159.986 97.6568 160.88 97.2563L160.47 96.3437C159.431 96.8099 158.598 97.4729 157.991 98.3377L158.809 98.9123ZM160.877 97.2575C161.787 96.8564 162.833 96.65 164.025 96.65V95.65C162.717 95.65 161.53 95.8769 160.473 96.3425L160.877 97.2575ZM164.025 96.65C164.79 96.65 165.51 96.7297 166.187 96.887L166.413 95.913C165.656 95.737 164.86 95.65 164.025 95.65V96.65ZM166.187 96.887C166.861 97.0439 167.476 97.2779 168.032 97.5871L168.518 96.7129C167.874 96.3554 167.172 96.0894 166.413 95.913L166.187 96.887ZM168.047 97.5948C168.619 97.8889 169.118 98.2504 169.546 98.6786L170.254 97.9714C169.748 97.4662 169.164 97.0444 168.503 96.7052L168.047 97.5948ZM169.445 98.1186L168.72 99.7186L169.63 100.131L170.355 98.5314L169.445 98.1186ZM169.512 99.5554C168.72 98.8342 167.873 98.3048 166.969 97.9796L166.631 98.9204C167.394 99.1952 168.13 99.6492 168.838 100.295L169.512 99.5554ZM166.978 97.9826C166.079 97.6412 165.085 97.475 164 97.475V98.475C164.982 98.475 165.854 98.6254 166.622 98.9174L166.978 97.9826ZM164 97.475C163.068 97.475 162.234 97.6156 161.51 97.9124L161.89 98.8376C162.466 98.6011 163.166 98.475 164 98.475V97.475ZM161.506 97.9142C160.794 98.2138 160.217 98.6616 159.792 99.2606L160.608 99.8394C160.916 99.405 161.339 99.0695 161.894 98.8358L161.506 97.9142ZM159.79 99.2633C159.376 99.8551 159.175 100.541 159.175 101.3H160.175C160.175 100.726 160.324 100.245 160.61 99.8367L159.79 99.2633ZM159.175 101.3C159.175 102.208 159.453 102.981 160.053 103.56L160.747 102.84C160.38 102.486 160.175 101.992 160.175 101.3H159.175ZM160.059 103.566C160.659 104.126 161.576 104.492 162.73 104.716L162.92 103.734C161.841 103.525 161.141 103.208 160.741 102.834L160.059 103.566ZM162.722 104.714L165.322 105.264L165.528 104.286L162.928 103.736L162.722 104.714ZM165.323 105.265C166.967 105.606 168.11 106.115 168.816 106.747L169.484 106.003C168.59 105.202 167.25 104.644 165.527 104.285L165.323 105.265ZM168.825 106.755C169.515 107.347 169.875 108.158 169.875 109.25H170.875C170.875 107.909 170.418 106.803 169.475 105.995L168.825 106.755ZM169.875 109.25C169.875 110.118 169.637 110.885 169.165 111.564L169.985 112.136C170.579 111.282 170.875 110.315 170.875 109.25H169.875ZM169.163 111.566C168.709 112.225 168.041 112.754 167.13 113.14L167.52 114.06C168.576 113.613 169.407 112.975 169.987 112.134L169.163 111.566ZM167.127 113.141C166.237 113.524 165.158 113.725 163.875 113.725V114.725C165.259 114.725 166.479 114.509 167.523 114.059L167.127 113.141ZM175.631 113.7L175.38 114.133L175.387 114.137L175.394 114.14L175.631 113.7ZM174.181 112.075L173.723 112.277L173.727 112.286L174.181 112.075ZM173.706 101.85V101.35H173.206V101.85H173.706ZM175.731 101.85H176.231V101.35H175.731V101.85ZM176.006 111.175L175.538 111.352L175.542 111.362L175.546 111.372L176.006 111.175ZM176.931 112.225L176.687 112.661L176.693 112.665L176.7 112.669L176.931 112.225ZM180.306 112.075L180.045 111.649L180.045 111.649L180.306 112.075ZM181.531 110.75L181.089 110.516L181.089 110.516L181.531 110.75ZM181.981 101.85V101.35H181.481V101.85H181.981ZM184.006 101.85H184.506V101.35H184.006V101.85ZM184.006 114V114.5H184.506V114H184.006ZM182.031 114H181.531V114.5H182.031V114ZM182.031 111.2V110.7H181.531V111.2H182.031ZM182.356 111.2L182.829 111.361L183.053 110.7H182.356V111.2ZM180.706 113.45L180.426 113.035L180.422 113.038L180.706 113.45ZM178.081 113.725C177.154 113.725 176.425 113.56 175.868 113.26L175.394 114.14C176.137 114.54 177.041 114.725 178.081 114.725V113.725ZM175.881 113.267C175.344 112.956 174.928 112.496 174.634 111.864L173.727 112.286C174.1 113.088 174.651 113.71 175.38 114.133L175.881 113.267ZM174.638 111.873C174.358 111.238 174.206 110.421 174.206 109.4H173.206C173.206 110.513 173.371 111.478 173.724 112.277L174.638 111.873ZM174.206 109.4V101.85H173.206V109.4H174.206ZM173.706 102.35H175.731V101.35H173.706V102.35ZM175.231 101.85V109.375H176.231V101.85H175.231ZM175.231 109.375C175.231 110.131 175.327 110.795 175.538 111.352L176.473 110.998C176.318 110.588 176.231 110.053 176.231 109.375H175.231ZM175.546 111.372C175.787 111.933 176.167 112.371 176.687 112.661L177.175 111.789C176.861 111.613 176.625 111.35 176.465 110.978L175.546 111.372ZM176.7 112.669C177.207 112.932 177.808 113.05 178.481 113.05V112.05C177.92 112.05 177.488 111.951 177.162 111.781L176.7 112.669ZM178.481 113.05C179.259 113.05 179.96 112.873 180.567 112.501L180.045 111.649C179.618 111.91 179.103 112.05 178.481 112.05V113.05ZM180.567 112.501C181.165 112.135 181.633 111.625 181.973 110.984L181.089 110.516C180.828 111.008 180.48 111.382 180.045 111.649L180.567 112.501ZM181.973 110.984C182.318 110.332 182.481 109.582 182.481 108.75H181.481C181.481 109.451 181.344 110.034 181.089 110.516L181.973 110.984ZM182.481 108.75V101.85H181.481V108.75H182.481ZM181.981 102.35H184.006V101.35H181.981V102.35ZM183.506 101.85V114H184.506V101.85H183.506ZM184.006 113.5H182.031V114.5H184.006V113.5ZM182.531 114V111.2H181.531V114H182.531ZM182.031 111.7H182.356V110.7H182.031V111.7ZM181.882 111.039C181.58 111.933 181.091 112.587 180.426 113.035L180.985 113.865C181.854 113.279 182.465 112.434 182.829 111.361L181.882 111.039ZM180.422 113.038C179.764 113.492 178.99 113.725 178.081 113.725V114.725C179.172 114.725 180.148 114.442 180.99 113.862L180.422 113.038ZM191.595 113.375L191.301 113.78L191.306 113.783L191.595 113.375ZM190.02 111.1V110.6H189.36L189.538 111.235L190.02 111.1ZM190.27 111.1H190.77V110.6H190.27V111.1ZM190.27 114V114.5H190.77V114H190.27ZM188.295 114H187.795V114.5H188.295V114ZM188.295 96.375V95.875H187.795V96.375H188.295ZM190.32 96.375H190.82V95.875H190.32V96.375ZM190.32 104.675V105.175H190.82V104.675H190.32ZM190.02 104.675L189.541 104.53L189.345 105.175H190.02V104.675ZM191.62 102.45L191.907 102.859L191.907 102.859L191.62 102.45ZM197.295 102.4L197.023 102.82L197.03 102.824L197.295 102.4ZM199.145 104.575L198.69 104.783L198.694 104.792L199.145 104.575ZM199.145 111.275L198.693 111.061L198.691 111.064L199.145 111.275ZM197.27 113.45L197.002 113.027L196.998 113.03L197.27 113.45ZM196.745 111.4L196.361 111.079L196.36 111.08L196.745 111.4ZM196.745 104.45L196.36 104.77L196.364 104.775L196.745 104.45ZM191.295 104.45L190.914 104.125L190.914 104.125L191.295 104.45ZM191.295 111.4L190.911 111.721L190.914 111.725L191.295 111.4ZM194.445 113.725C193.435 113.725 192.589 113.467 191.884 112.967L191.306 113.783C192.2 114.417 193.254 114.725 194.445 114.725V113.725ZM191.888 112.97C191.198 112.471 190.738 111.809 190.501 110.965L189.538 111.235C189.835 112.291 190.425 113.146 191.301 113.78L191.888 112.97ZM190.02 111.6H190.27V110.6H190.02V111.6ZM189.77 111.1V114H190.77V111.1H189.77ZM190.27 113.5H188.295V114.5H190.27V113.5ZM188.795 114V96.375H187.795V114H188.795ZM188.295 96.875H190.32V95.875H188.295V96.875ZM189.82 96.375V104.675H190.82V96.375H189.82ZM190.32 104.175H190.02V105.175H190.32V104.175ZM190.498 104.82C190.75 103.992 191.217 103.344 191.907 102.859L191.332 102.041C190.456 102.656 189.856 103.492 189.541 104.53L190.498 104.82ZM191.907 102.859C192.594 102.377 193.431 102.125 194.445 102.125V101.125C193.258 101.125 192.212 101.423 191.332 102.041L191.907 102.859ZM194.445 102.125C195.464 102.125 196.316 102.363 197.023 102.82L197.566 101.98C196.673 101.403 195.625 101.125 194.445 101.125V102.125ZM197.03 102.824C197.738 103.267 198.292 103.912 198.69 104.783L199.599 104.367C199.13 103.338 198.451 102.533 197.56 101.976L197.03 102.824ZM198.694 104.792C199.104 105.643 199.32 106.682 199.32 107.925H200.32C200.32 106.568 200.085 105.374 199.595 104.358L198.694 104.792ZM199.32 107.925C199.32 109.15 199.105 110.191 198.693 111.061L199.596 111.489C200.084 110.459 200.32 109.266 200.32 107.925H199.32ZM198.691 111.064C198.295 111.917 197.732 112.565 197.002 113.027L197.537 113.873C198.44 113.301 199.127 112.5 199.598 111.486L198.691 111.064ZM196.998 113.03C196.29 113.488 195.445 113.725 194.445 113.725V114.725C195.61 114.725 196.649 114.446 197.541 113.87L196.998 113.03ZM194.02 113.1C195.3 113.1 196.356 112.647 197.129 111.72L196.36 111.08C195.799 111.753 195.039 112.1 194.02 112.1V113.1ZM197.128 111.721C197.912 110.784 198.27 109.495 198.27 107.925H197.27C197.27 109.355 196.943 110.383 196.361 111.079L197.128 111.721ZM198.27 107.925C198.27 106.341 197.913 105.049 197.125 104.125L196.364 104.775C196.942 105.451 197.27 106.476 197.27 107.925H198.27ZM197.129 104.13C196.356 103.203 195.3 102.75 194.02 102.75V103.75C195.039 103.75 195.799 104.097 196.36 104.77L197.129 104.13ZM194.02 102.75C192.753 102.75 191.701 103.205 190.914 104.125L191.675 104.775C192.255 104.095 193.02 103.75 194.02 103.75V102.75ZM190.914 104.125C190.126 105.049 189.77 106.341 189.77 107.925H190.77C190.77 106.476 191.097 105.451 191.675 104.775L190.914 104.125ZM189.77 107.925C189.77 109.495 190.127 110.784 190.911 111.721L191.678 111.079C191.096 110.383 190.77 109.355 190.77 107.925H189.77ZM190.914 111.725C191.701 112.645 192.753 113.1 194.02 113.1V112.1C193.02 112.1 192.255 111.755 191.675 111.075L190.914 111.725ZM203.42 114H202.92V114.5H203.42V114ZM203.42 101.85V101.35H202.92V101.85H203.42ZM205.395 101.85H205.895V101.35H205.395V101.85ZM205.395 104.55V105.05H205.895V104.55H205.395ZM205.12 104.55L204.644 104.396L204.432 105.05H205.12V104.55ZM205.995 102.975L205.621 102.643L205.62 102.644L205.995 102.975ZM207.395 101.975L207.583 102.438L207.59 102.435L207.395 101.975ZM211.695 102.375L211.385 102.767L211.391 102.772L211.396 102.776L211.695 102.375ZM212.995 104.65V105.15H213.61L213.484 104.547L212.995 104.65ZM212.62 104.65L212.144 104.497L211.934 105.15H212.62V104.65ZM214.22 102.45L214.505 102.86L214.507 102.859L214.22 102.45ZM219.195 102.15L218.937 102.579L218.943 102.582L219.195 102.15ZM220.545 103.75L220.083 103.943L220.085 103.947L220.545 103.75ZM220.995 114V114.5H221.495V114H220.995ZM218.97 114H218.47V114.5H218.97V114ZM218.395 104.075L217.989 104.367L217.993 104.373L218.395 104.075ZM214.72 103.75L214.452 103.328L214.446 103.332L214.72 103.75ZM213.595 105.1L213.14 104.892L213.137 104.898L213.595 105.1ZM213.22 114V114.5H213.72V114H213.22ZM211.195 114H210.695V114.5H211.195V114ZM210.595 104.075L210.189 104.367L210.194 104.374L210.199 104.381L210.595 104.075ZM205.82 105.1L205.365 104.892L205.362 104.898L205.82 105.1ZM205.445 114V114.5H205.945V114H205.445ZM203.92 114V101.85H202.92V114H203.92ZM203.42 102.35H205.395V101.35H203.42V102.35ZM204.895 101.85V104.55H205.895V101.85H204.895ZM205.395 104.05H205.12V105.05H205.395V104.05ZM205.595 104.704C205.777 104.145 206.037 103.682 206.369 103.306L205.62 102.644C205.186 103.134 204.863 103.722 204.644 104.396L205.595 104.704ZM206.368 103.307C206.72 102.912 207.124 102.625 207.583 102.438L207.207 101.512C206.599 101.759 206.07 102.138 205.621 102.643L206.368 103.307ZM207.59 102.435C208.073 102.23 208.606 102.125 209.195 102.125V101.125C208.484 101.125 207.816 101.253 207.199 101.515L207.59 102.435ZM209.195 102.125C210.148 102.125 210.862 102.355 211.385 102.767L212.005 101.983C211.261 101.395 210.309 101.125 209.195 101.125V102.125ZM211.396 102.776C211.922 103.167 212.306 103.802 212.505 104.753L213.484 104.547C213.25 103.432 212.768 102.55 211.993 101.974L211.396 102.776ZM212.995 104.15H212.62V105.15H212.995V104.15ZM213.096 104.803C213.364 103.968 213.833 103.328 214.505 102.86L213.934 102.04C213.073 102.639 212.475 103.465 212.144 104.497L213.096 104.803ZM214.507 102.859C215.199 102.373 216.006 102.125 216.945 102.125V101.125C215.817 101.125 214.807 101.427 213.932 102.041L214.507 102.859ZM216.945 102.125C217.801 102.125 218.454 102.289 218.937 102.579L219.452 101.721C218.768 101.311 217.922 101.125 216.945 101.125V102.125ZM218.943 102.582C219.438 102.871 219.82 103.314 220.084 103.943L221.006 103.557C220.669 102.753 220.152 102.129 219.447 101.718L218.943 102.582ZM220.085 103.947C220.35 104.564 220.495 105.383 220.495 106.425H221.495C221.495 105.3 221.34 104.336 221.004 103.553L220.085 103.947ZM220.495 106.425V114H221.495V106.425H220.495ZM220.995 113.5H218.97V114.5H220.995V113.5ZM219.47 114V106.525H218.47V114H219.47ZM219.47 106.525C219.47 105.372 219.276 104.423 218.796 103.777L217.993 104.373C218.281 104.76 218.47 105.445 218.47 106.525H219.47ZM218.801 103.783C218.29 103.072 217.454 102.775 216.445 102.775V103.775C217.269 103.775 217.733 104.011 217.989 104.367L218.801 103.783ZM216.445 102.775C215.71 102.775 215.04 102.955 214.452 103.328L214.987 104.172C215.399 103.911 215.88 103.775 216.445 103.775V102.775ZM214.446 103.332C213.875 103.706 213.441 104.233 213.14 104.892L214.049 105.308C214.281 104.801 214.598 104.428 214.994 104.168L214.446 103.332ZM213.137 104.898C212.853 105.543 212.72 106.29 212.72 107.125H213.72C213.72 106.393 213.837 105.79 214.052 105.302L213.137 104.898ZM212.72 107.125V114H213.72V107.125H212.72ZM213.22 113.5H211.195V114.5H213.22V113.5ZM211.695 114V106.525H210.695V114H211.695ZM211.695 106.525C211.695 105.369 211.491 104.416 210.99 103.769L210.199 104.381C210.498 104.767 210.695 105.448 210.695 106.525H211.695ZM211.001 103.783C210.491 103.074 209.666 102.775 208.67 102.775V103.775C209.473 103.775 209.932 104.009 210.189 104.367L211.001 103.783ZM208.67 102.775C207.921 102.775 207.247 102.954 206.671 103.332L207.219 104.168C207.609 103.913 208.085 103.775 208.67 103.775V102.775ZM206.671 103.332C206.1 103.706 205.666 104.233 205.365 104.892L206.274 105.308C206.506 104.801 206.823 104.428 207.219 104.168L206.671 103.332ZM205.362 104.898C205.078 105.543 204.945 106.29 204.945 107.125H205.945C205.945 106.393 206.062 105.79 206.277 105.302L205.362 104.898ZM204.945 107.125V114H205.945V107.125H204.945ZM205.445 113.5H203.42V114.5H205.445V113.5ZM225.031 98.825H224.531V99.325H225.031V98.825ZM225.031 96.55V96.05H224.531V96.55H225.031ZM227.531 96.55H228.031V96.05H227.531V96.55ZM227.531 98.825V99.325H228.031V98.825H227.531ZM225.281 114H224.781V114.5H225.281V114ZM225.281 101.85V101.35H224.781V101.85H225.281ZM227.306 101.85H227.806V101.35H227.306V101.85ZM227.306 114V114.5H227.806V114H227.306ZM225.531 98.825V96.55H224.531V98.825H225.531ZM225.031 97.05H227.531V96.05H225.031V97.05ZM227.031 96.55V98.825H228.031V96.55H227.031ZM227.531 98.325H225.031V99.325H227.531V98.325ZM225.781 114V101.85H224.781V114H225.781ZM225.281 102.35H227.306V101.35H225.281V102.35ZM226.806 101.85V114H227.806V101.85H226.806ZM227.306 113.5H225.281V114.5H227.306V113.5ZM233.241 113.075L232.876 113.416L232.876 113.416L233.241 113.075ZM232.166 103.425H232.666V102.925H232.166V103.425ZM229.791 103.425H229.291V103.925H229.791V103.425ZM229.791 101.85V101.35H229.291V101.85H229.791ZM232.166 101.85V102.35H232.666V101.85H232.166ZM232.166 98.125V97.625H231.666V98.125H232.166ZM234.191 98.125H234.691V97.625H234.191V98.125ZM234.191 101.85H233.691V102.35H234.191V101.85ZM238.041 101.85H238.541V101.35H238.041V101.85ZM238.041 103.425V103.925H238.541V103.425H238.041ZM234.191 103.425V102.925H233.691V103.425H234.191ZM234.791 111.775L234.401 112.087L234.406 112.094L234.791 111.775ZM238.266 112.2L238.754 112.09L238.635 111.563L238.119 111.722L238.266 112.2ZM238.616 113.75L238.853 114.19L239.188 114.01L239.104 113.64L238.616 113.75ZM237.666 114.075L237.55 113.589L237.666 114.075ZM236.466 113.725C235.119 113.725 234.198 113.366 233.607 112.734L232.876 113.416C233.718 114.317 234.947 114.725 236.466 114.725V113.725ZM233.607 112.734C233.003 112.088 232.666 111.135 232.666 109.8H231.666C231.666 111.298 232.046 112.529 232.876 113.416L233.607 112.734ZM232.666 109.8V103.425H231.666V109.8H232.666ZM232.166 102.925H229.791V103.925H232.166V102.925ZM230.291 103.425V101.85H229.291V103.425H230.291ZM229.791 102.35H232.166V101.35H229.791V102.35ZM232.666 101.85V98.125H231.666V101.85H232.666ZM232.166 98.625H234.191V97.625H232.166V98.625ZM233.691 98.125V101.85H234.691V98.125H233.691ZM234.191 102.35H238.041V101.35H234.191V102.35ZM237.541 101.85V103.425H238.541V101.85H237.541ZM238.041 102.925H234.191V103.925H238.041V102.925ZM233.691 103.425V109.6H234.691V103.425H233.691ZM233.691 109.6C233.691 110.611 233.903 111.465 234.401 112.087L235.182 111.463C234.88 111.085 234.691 110.489 234.691 109.6H233.691ZM234.406 112.094C234.937 112.735 235.76 113 236.741 113V112C235.923 112 235.446 111.782 235.177 111.456L234.406 112.094ZM236.741 113C237.05 113 237.358 112.961 237.663 112.885L237.42 111.915C237.192 111.972 236.966 112 236.741 112V113ZM237.663 112.885C237.936 112.817 238.187 112.748 238.413 112.678L238.119 111.722C237.913 111.786 237.68 111.85 237.42 111.915L237.663 112.885ZM237.779 112.31L238.129 113.86L239.104 113.64L238.754 112.09L237.779 112.31ZM238.379 113.31C238.219 113.396 237.951 113.493 237.55 113.589L237.783 114.561C238.216 114.457 238.581 114.337 238.853 114.19L238.379 113.31ZM237.55 113.589C237.167 113.681 236.806 113.725 236.466 113.725V114.725C236.893 114.725 237.333 114.669 237.783 114.561L237.55 113.589Z" fill="#A594F9"/>
</g>
</g>
</g>
</svg>
