<svg width="150" height="150" viewBox="0 0 150 150" fill="none" xmlns="http://www.w3.org/2000/svg">
<g id="Frame 1">
<path id="Vector 24" d="M25 85L43.1967 67.0983C44.3756 65.9386 46.2708 65.9515 47.4337 67.1274L63.0338 82.9008C64.1857 84.0655 66.059 84.0909 67.242 82.9577L83.6921 67.2002C84.9384 66.0064 86.9323 66.1077 88.0513 67.4215L101.012 82.6397C102.111 83.9305 104.061 84.0545 105.315 82.9134L125 65" stroke="#D6CEFF" stroke-width="20" stroke-linecap="round"/>
<g id="Group 1">
<path id="W" d="M42.25 91L35.15 55.75H44.05L48.5 81.25H46.25L59.35 55.75H65.95L70.5 81.25H68.4L81.15 55.75H90.5L72.2 91H64.85L60.35 68.1H61.6L49.6 91H42.25Z" fill="#6758B3"/>
<path id="R" d="M83.25 91L88.85 55.75H104C106.7 55.75 108.967 56.15 110.8 56.95C112.667 57.75 114.083 58.9 115.05 60.4C116.017 61.9 116.5 63.7 116.5 65.8C116.5 68.5667 115.9 70.8333 114.7 72.6C113.5 74.3667 111.85 75.6667 109.75 76.5C107.65 77.3333 105.25 77.75 102.55 77.75V76.85H104.4C106.133 76.85 107.533 77.3167 108.6 78.25C109.667 79.1833 110.517 80.4667 111.15 82.1L114.55 91H105.15L101.15 80.4C100.917 79.8 100.633 79.3167 100.3 78.95C100 78.55 99.6333 78.2667 99.2 78.1C98.7667 77.9333 98.2167 77.85 97.55 77.85H94.55L92.45 91H83.25ZM95.55 71.35H102.2C104 71.35 105.367 70.9667 106.3 70.2C107.267 69.4 107.75 68.2167 107.75 66.65C107.75 65.35 107.317 64.3833 106.45 63.75C105.617 63.1167 104.283 62.8 102.45 62.8H96.9L95.55 71.35Z" fill="#6758B3"/>
</g>
</g>
</svg>
